%TF.GenerationSoftware,KiCad,Pcbnew,(5.1.6)-1*%
%TF.CreationDate,2020-12-06T00:26:17+01:00*%
%TF.ProjectId,04_La_Plaque_LEDS,30345f4c-615f-4506-9c61-7175655f4c45,rev?*%
%TF.SameCoordinates,Original*%
%TF.FileFunction,Soldermask,Top*%
%TF.FilePolarity,Negative*%
%FSLAX46Y46*%
G04 Gerber Fmt 4.6, Leading zero omitted, Abs format (unit mm)*
G04 Created by KiCad (PCBNEW (5.1.6)-1) date 2020-12-06 00:26:17*
%MOMM*%
%LPD*%
G01*
G04 APERTURE LIST*
%TA.AperFunction,Profile*%
%ADD10C,0.150000*%
%TD*%
%ADD11C,0.900000*%
%ADD12C,6.500000*%
%ADD13R,1.100000X1.600000*%
%ADD14O,2.050000X1.800000*%
G04 APERTURE END LIST*
D10*
X195000000Y-55000000D02*
G75*
G02*
X200000000Y-60000000I0J-5000000D01*
G01*
X200000000Y-150000000D02*
G75*
G02*
X195000000Y-155000000I-5000000J0D01*
G01*
X105000000Y-155000000D02*
G75*
G02*
X100000000Y-150000000I0J5000000D01*
G01*
X100000000Y-60000000D02*
G75*
G02*
X105000000Y-55000000I5000000J0D01*
G01*
X100000000Y-150000000D02*
X100000000Y-60000000D01*
X195000000Y-155000000D02*
X105000000Y-155000000D01*
X200000000Y-60000000D02*
X200000000Y-150000000D01*
X105000000Y-55000000D02*
X195000000Y-55000000D01*
%TO.C,C20*%
G36*
G01*
X138718750Y-106725000D02*
X139281250Y-106725000D01*
G75*
G02*
X139525000Y-106968750I0J-243750D01*
G01*
X139525000Y-107456250D01*
G75*
G02*
X139281250Y-107700000I-243750J0D01*
G01*
X138718750Y-107700000D01*
G75*
G02*
X138475000Y-107456250I0J243750D01*
G01*
X138475000Y-106968750D01*
G75*
G02*
X138718750Y-106725000I243750J0D01*
G01*
G37*
G36*
G01*
X138718750Y-108300000D02*
X139281250Y-108300000D01*
G75*
G02*
X139525000Y-108543750I0J-243750D01*
G01*
X139525000Y-109031250D01*
G75*
G02*
X139281250Y-109275000I-243750J0D01*
G01*
X138718750Y-109275000D01*
G75*
G02*
X138475000Y-109031250I0J243750D01*
G01*
X138475000Y-108543750D01*
G75*
G02*
X138718750Y-108300000I243750J0D01*
G01*
G37*
%TD*%
%TO.C,C11*%
G36*
G01*
X121281250Y-91700000D02*
X120718750Y-91700000D01*
G75*
G02*
X120475000Y-91456250I0J243750D01*
G01*
X120475000Y-90968750D01*
G75*
G02*
X120718750Y-90725000I243750J0D01*
G01*
X121281250Y-90725000D01*
G75*
G02*
X121525000Y-90968750I0J-243750D01*
G01*
X121525000Y-91456250D01*
G75*
G02*
X121281250Y-91700000I-243750J0D01*
G01*
G37*
G36*
G01*
X121281250Y-93275000D02*
X120718750Y-93275000D01*
G75*
G02*
X120475000Y-93031250I0J243750D01*
G01*
X120475000Y-92543750D01*
G75*
G02*
X120718750Y-92300000I243750J0D01*
G01*
X121281250Y-92300000D01*
G75*
G02*
X121525000Y-92543750I0J-243750D01*
G01*
X121525000Y-93031250D01*
G75*
G02*
X121281250Y-93275000I-243750J0D01*
G01*
G37*
%TD*%
D11*
%TO.C,H3*%
X196697056Y-148302944D03*
X195000000Y-147600000D03*
X193302944Y-148302944D03*
X192600000Y-150000000D03*
X193302944Y-151697056D03*
X195000000Y-152400000D03*
X196697056Y-151697056D03*
X197400000Y-150000000D03*
D12*
X195000000Y-150000000D03*
%TD*%
%TO.C,C15*%
G36*
G01*
X121281250Y-131700000D02*
X120718750Y-131700000D01*
G75*
G02*
X120475000Y-131456250I0J243750D01*
G01*
X120475000Y-130968750D01*
G75*
G02*
X120718750Y-130725000I243750J0D01*
G01*
X121281250Y-130725000D01*
G75*
G02*
X121525000Y-130968750I0J-243750D01*
G01*
X121525000Y-131456250D01*
G75*
G02*
X121281250Y-131700000I-243750J0D01*
G01*
G37*
G36*
G01*
X121281250Y-133275000D02*
X120718750Y-133275000D01*
G75*
G02*
X120475000Y-133031250I0J243750D01*
G01*
X120475000Y-132543750D01*
G75*
G02*
X120718750Y-132300000I243750J0D01*
G01*
X121281250Y-132300000D01*
G75*
G02*
X121525000Y-132543750I0J-243750D01*
G01*
X121525000Y-133031250D01*
G75*
G02*
X121281250Y-133275000I-243750J0D01*
G01*
G37*
%TD*%
%TO.C,C25*%
G36*
G01*
X141281250Y-71700000D02*
X140718750Y-71700000D01*
G75*
G02*
X140475000Y-71456250I0J243750D01*
G01*
X140475000Y-70968750D01*
G75*
G02*
X140718750Y-70725000I243750J0D01*
G01*
X141281250Y-70725000D01*
G75*
G02*
X141525000Y-70968750I0J-243750D01*
G01*
X141525000Y-71456250D01*
G75*
G02*
X141281250Y-71700000I-243750J0D01*
G01*
G37*
G36*
G01*
X141281250Y-73275000D02*
X140718750Y-73275000D01*
G75*
G02*
X140475000Y-73031250I0J243750D01*
G01*
X140475000Y-72543750D01*
G75*
G02*
X140718750Y-72300000I243750J0D01*
G01*
X141281250Y-72300000D01*
G75*
G02*
X141525000Y-72543750I0J-243750D01*
G01*
X141525000Y-73031250D01*
G75*
G02*
X141281250Y-73275000I-243750J0D01*
G01*
G37*
%TD*%
%TO.C,C35*%
G36*
G01*
X158718750Y-116725000D02*
X159281250Y-116725000D01*
G75*
G02*
X159525000Y-116968750I0J-243750D01*
G01*
X159525000Y-117456250D01*
G75*
G02*
X159281250Y-117700000I-243750J0D01*
G01*
X158718750Y-117700000D01*
G75*
G02*
X158475000Y-117456250I0J243750D01*
G01*
X158475000Y-116968750D01*
G75*
G02*
X158718750Y-116725000I243750J0D01*
G01*
G37*
G36*
G01*
X158718750Y-118300000D02*
X159281250Y-118300000D01*
G75*
G02*
X159525000Y-118543750I0J-243750D01*
G01*
X159525000Y-119031250D01*
G75*
G02*
X159281250Y-119275000I-243750J0D01*
G01*
X158718750Y-119275000D01*
G75*
G02*
X158475000Y-119031250I0J243750D01*
G01*
X158475000Y-118543750D01*
G75*
G02*
X158718750Y-118300000I243750J0D01*
G01*
G37*
%TD*%
%TO.C,C5*%
G36*
G01*
X118718750Y-98300000D02*
X119281250Y-98300000D01*
G75*
G02*
X119525000Y-98543750I0J-243750D01*
G01*
X119525000Y-99031250D01*
G75*
G02*
X119281250Y-99275000I-243750J0D01*
G01*
X118718750Y-99275000D01*
G75*
G02*
X118475000Y-99031250I0J243750D01*
G01*
X118475000Y-98543750D01*
G75*
G02*
X118718750Y-98300000I243750J0D01*
G01*
G37*
G36*
G01*
X118718750Y-96725000D02*
X119281250Y-96725000D01*
G75*
G02*
X119525000Y-96968750I0J-243750D01*
G01*
X119525000Y-97456250D01*
G75*
G02*
X119281250Y-97700000I-243750J0D01*
G01*
X118718750Y-97700000D01*
G75*
G02*
X118475000Y-97456250I0J243750D01*
G01*
X118475000Y-96968750D01*
G75*
G02*
X118718750Y-96725000I243750J0D01*
G01*
G37*
%TD*%
%TO.C,C12*%
G36*
G01*
X121281250Y-101700000D02*
X120718750Y-101700000D01*
G75*
G02*
X120475000Y-101456250I0J243750D01*
G01*
X120475000Y-100968750D01*
G75*
G02*
X120718750Y-100725000I243750J0D01*
G01*
X121281250Y-100725000D01*
G75*
G02*
X121525000Y-100968750I0J-243750D01*
G01*
X121525000Y-101456250D01*
G75*
G02*
X121281250Y-101700000I-243750J0D01*
G01*
G37*
G36*
G01*
X121281250Y-103275000D02*
X120718750Y-103275000D01*
G75*
G02*
X120475000Y-103031250I0J243750D01*
G01*
X120475000Y-102543750D01*
G75*
G02*
X120718750Y-102300000I243750J0D01*
G01*
X121281250Y-102300000D01*
G75*
G02*
X121525000Y-102543750I0J-243750D01*
G01*
X121525000Y-103031250D01*
G75*
G02*
X121281250Y-103275000I-243750J0D01*
G01*
G37*
%TD*%
%TO.C,C22*%
G36*
G01*
X138718750Y-86725000D02*
X139281250Y-86725000D01*
G75*
G02*
X139525000Y-86968750I0J-243750D01*
G01*
X139525000Y-87456250D01*
G75*
G02*
X139281250Y-87700000I-243750J0D01*
G01*
X138718750Y-87700000D01*
G75*
G02*
X138475000Y-87456250I0J243750D01*
G01*
X138475000Y-86968750D01*
G75*
G02*
X138718750Y-86725000I243750J0D01*
G01*
G37*
G36*
G01*
X138718750Y-88300000D02*
X139281250Y-88300000D01*
G75*
G02*
X139525000Y-88543750I0J-243750D01*
G01*
X139525000Y-89031250D01*
G75*
G02*
X139281250Y-89275000I-243750J0D01*
G01*
X138718750Y-89275000D01*
G75*
G02*
X138475000Y-89031250I0J243750D01*
G01*
X138475000Y-88543750D01*
G75*
G02*
X138718750Y-88300000I243750J0D01*
G01*
G37*
%TD*%
%TO.C,C32*%
G36*
G01*
X141281250Y-141700000D02*
X140718750Y-141700000D01*
G75*
G02*
X140475000Y-141456250I0J243750D01*
G01*
X140475000Y-140968750D01*
G75*
G02*
X140718750Y-140725000I243750J0D01*
G01*
X141281250Y-140725000D01*
G75*
G02*
X141525000Y-140968750I0J-243750D01*
G01*
X141525000Y-141456250D01*
G75*
G02*
X141281250Y-141700000I-243750J0D01*
G01*
G37*
G36*
G01*
X141281250Y-143275000D02*
X140718750Y-143275000D01*
G75*
G02*
X140475000Y-143031250I0J243750D01*
G01*
X140475000Y-142543750D01*
G75*
G02*
X140718750Y-142300000I243750J0D01*
G01*
X141281250Y-142300000D01*
G75*
G02*
X141525000Y-142543750I0J-243750D01*
G01*
X141525000Y-143031250D01*
G75*
G02*
X141281250Y-143275000I-243750J0D01*
G01*
G37*
%TD*%
%TO.C,C2*%
G36*
G01*
X118718750Y-126725000D02*
X119281250Y-126725000D01*
G75*
G02*
X119525000Y-126968750I0J-243750D01*
G01*
X119525000Y-127456250D01*
G75*
G02*
X119281250Y-127700000I-243750J0D01*
G01*
X118718750Y-127700000D01*
G75*
G02*
X118475000Y-127456250I0J243750D01*
G01*
X118475000Y-126968750D01*
G75*
G02*
X118718750Y-126725000I243750J0D01*
G01*
G37*
G36*
G01*
X118718750Y-128300000D02*
X119281250Y-128300000D01*
G75*
G02*
X119525000Y-128543750I0J-243750D01*
G01*
X119525000Y-129031250D01*
G75*
G02*
X119281250Y-129275000I-243750J0D01*
G01*
X118718750Y-129275000D01*
G75*
G02*
X118475000Y-129031250I0J243750D01*
G01*
X118475000Y-128543750D01*
G75*
G02*
X118718750Y-128300000I243750J0D01*
G01*
G37*
%TD*%
%TO.C,C16*%
G36*
G01*
X121281250Y-141700000D02*
X120718750Y-141700000D01*
G75*
G02*
X120475000Y-141456250I0J243750D01*
G01*
X120475000Y-140968750D01*
G75*
G02*
X120718750Y-140725000I243750J0D01*
G01*
X121281250Y-140725000D01*
G75*
G02*
X121525000Y-140968750I0J-243750D01*
G01*
X121525000Y-141456250D01*
G75*
G02*
X121281250Y-141700000I-243750J0D01*
G01*
G37*
G36*
G01*
X121281250Y-143275000D02*
X120718750Y-143275000D01*
G75*
G02*
X120475000Y-143031250I0J243750D01*
G01*
X120475000Y-142543750D01*
G75*
G02*
X120718750Y-142300000I243750J0D01*
G01*
X121281250Y-142300000D01*
G75*
G02*
X121525000Y-142543750I0J-243750D01*
G01*
X121525000Y-143031250D01*
G75*
G02*
X121281250Y-143275000I-243750J0D01*
G01*
G37*
%TD*%
%TO.C,C26*%
G36*
G01*
X141281250Y-81700000D02*
X140718750Y-81700000D01*
G75*
G02*
X140475000Y-81456250I0J243750D01*
G01*
X140475000Y-80968750D01*
G75*
G02*
X140718750Y-80725000I243750J0D01*
G01*
X141281250Y-80725000D01*
G75*
G02*
X141525000Y-80968750I0J-243750D01*
G01*
X141525000Y-81456250D01*
G75*
G02*
X141281250Y-81700000I-243750J0D01*
G01*
G37*
G36*
G01*
X141281250Y-83275000D02*
X140718750Y-83275000D01*
G75*
G02*
X140475000Y-83031250I0J243750D01*
G01*
X140475000Y-82543750D01*
G75*
G02*
X140718750Y-82300000I243750J0D01*
G01*
X141281250Y-82300000D01*
G75*
G02*
X141525000Y-82543750I0J-243750D01*
G01*
X141525000Y-83031250D01*
G75*
G02*
X141281250Y-83275000I-243750J0D01*
G01*
G37*
%TD*%
%TO.C,C36*%
G36*
G01*
X158718750Y-106725000D02*
X159281250Y-106725000D01*
G75*
G02*
X159525000Y-106968750I0J-243750D01*
G01*
X159525000Y-107456250D01*
G75*
G02*
X159281250Y-107700000I-243750J0D01*
G01*
X158718750Y-107700000D01*
G75*
G02*
X158475000Y-107456250I0J243750D01*
G01*
X158475000Y-106968750D01*
G75*
G02*
X158718750Y-106725000I243750J0D01*
G01*
G37*
G36*
G01*
X158718750Y-108300000D02*
X159281250Y-108300000D01*
G75*
G02*
X159525000Y-108543750I0J-243750D01*
G01*
X159525000Y-109031250D01*
G75*
G02*
X159281250Y-109275000I-243750J0D01*
G01*
X158718750Y-109275000D01*
G75*
G02*
X158475000Y-109031250I0J243750D01*
G01*
X158475000Y-108543750D01*
G75*
G02*
X158718750Y-108300000I243750J0D01*
G01*
G37*
%TD*%
%TO.C,C6*%
G36*
G01*
X118718750Y-88300000D02*
X119281250Y-88300000D01*
G75*
G02*
X119525000Y-88543750I0J-243750D01*
G01*
X119525000Y-89031250D01*
G75*
G02*
X119281250Y-89275000I-243750J0D01*
G01*
X118718750Y-89275000D01*
G75*
G02*
X118475000Y-89031250I0J243750D01*
G01*
X118475000Y-88543750D01*
G75*
G02*
X118718750Y-88300000I243750J0D01*
G01*
G37*
G36*
G01*
X118718750Y-86725000D02*
X119281250Y-86725000D01*
G75*
G02*
X119525000Y-86968750I0J-243750D01*
G01*
X119525000Y-87456250D01*
G75*
G02*
X119281250Y-87700000I-243750J0D01*
G01*
X118718750Y-87700000D01*
G75*
G02*
X118475000Y-87456250I0J243750D01*
G01*
X118475000Y-86968750D01*
G75*
G02*
X118718750Y-86725000I243750J0D01*
G01*
G37*
%TD*%
%TO.C,C19*%
G36*
G01*
X138718750Y-116725000D02*
X139281250Y-116725000D01*
G75*
G02*
X139525000Y-116968750I0J-243750D01*
G01*
X139525000Y-117456250D01*
G75*
G02*
X139281250Y-117700000I-243750J0D01*
G01*
X138718750Y-117700000D01*
G75*
G02*
X138475000Y-117456250I0J243750D01*
G01*
X138475000Y-116968750D01*
G75*
G02*
X138718750Y-116725000I243750J0D01*
G01*
G37*
G36*
G01*
X138718750Y-118300000D02*
X139281250Y-118300000D01*
G75*
G02*
X139525000Y-118543750I0J-243750D01*
G01*
X139525000Y-119031250D01*
G75*
G02*
X139281250Y-119275000I-243750J0D01*
G01*
X138718750Y-119275000D01*
G75*
G02*
X138475000Y-119031250I0J243750D01*
G01*
X138475000Y-118543750D01*
G75*
G02*
X138718750Y-118300000I243750J0D01*
G01*
G37*
%TD*%
%TO.C,C29*%
G36*
G01*
X141281250Y-113275000D02*
X140718750Y-113275000D01*
G75*
G02*
X140475000Y-113031250I0J243750D01*
G01*
X140475000Y-112543750D01*
G75*
G02*
X140718750Y-112300000I243750J0D01*
G01*
X141281250Y-112300000D01*
G75*
G02*
X141525000Y-112543750I0J-243750D01*
G01*
X141525000Y-113031250D01*
G75*
G02*
X141281250Y-113275000I-243750J0D01*
G01*
G37*
G36*
G01*
X141281250Y-111700000D02*
X140718750Y-111700000D01*
G75*
G02*
X140475000Y-111456250I0J243750D01*
G01*
X140475000Y-110968750D01*
G75*
G02*
X140718750Y-110725000I243750J0D01*
G01*
X141281250Y-110725000D01*
G75*
G02*
X141525000Y-110968750I0J-243750D01*
G01*
X141525000Y-111456250D01*
G75*
G02*
X141281250Y-111700000I-243750J0D01*
G01*
G37*
%TD*%
%TO.C,C39*%
G36*
G01*
X158718750Y-78300000D02*
X159281250Y-78300000D01*
G75*
G02*
X159525000Y-78543750I0J-243750D01*
G01*
X159525000Y-79031250D01*
G75*
G02*
X159281250Y-79275000I-243750J0D01*
G01*
X158718750Y-79275000D01*
G75*
G02*
X158475000Y-79031250I0J243750D01*
G01*
X158475000Y-78543750D01*
G75*
G02*
X158718750Y-78300000I243750J0D01*
G01*
G37*
G36*
G01*
X158718750Y-76725000D02*
X159281250Y-76725000D01*
G75*
G02*
X159525000Y-76968750I0J-243750D01*
G01*
X159525000Y-77456250D01*
G75*
G02*
X159281250Y-77700000I-243750J0D01*
G01*
X158718750Y-77700000D01*
G75*
G02*
X158475000Y-77456250I0J243750D01*
G01*
X158475000Y-76968750D01*
G75*
G02*
X158718750Y-76725000I243750J0D01*
G01*
G37*
%TD*%
%TO.C,C9*%
G36*
G01*
X121281250Y-73275000D02*
X120718750Y-73275000D01*
G75*
G02*
X120475000Y-73031250I0J243750D01*
G01*
X120475000Y-72543750D01*
G75*
G02*
X120718750Y-72300000I243750J0D01*
G01*
X121281250Y-72300000D01*
G75*
G02*
X121525000Y-72543750I0J-243750D01*
G01*
X121525000Y-73031250D01*
G75*
G02*
X121281250Y-73275000I-243750J0D01*
G01*
G37*
G36*
G01*
X121281250Y-71700000D02*
X120718750Y-71700000D01*
G75*
G02*
X120475000Y-71456250I0J243750D01*
G01*
X120475000Y-70968750D01*
G75*
G02*
X120718750Y-70725000I243750J0D01*
G01*
X121281250Y-70725000D01*
G75*
G02*
X121525000Y-70968750I0J-243750D01*
G01*
X121525000Y-71456250D01*
G75*
G02*
X121281250Y-71700000I-243750J0D01*
G01*
G37*
%TD*%
%TO.C,C17*%
G36*
G01*
X138718750Y-138300000D02*
X139281250Y-138300000D01*
G75*
G02*
X139525000Y-138543750I0J-243750D01*
G01*
X139525000Y-139031250D01*
G75*
G02*
X139281250Y-139275000I-243750J0D01*
G01*
X138718750Y-139275000D01*
G75*
G02*
X138475000Y-139031250I0J243750D01*
G01*
X138475000Y-138543750D01*
G75*
G02*
X138718750Y-138300000I243750J0D01*
G01*
G37*
G36*
G01*
X138718750Y-136725000D02*
X139281250Y-136725000D01*
G75*
G02*
X139525000Y-136968750I0J-243750D01*
G01*
X139525000Y-137456250D01*
G75*
G02*
X139281250Y-137700000I-243750J0D01*
G01*
X138718750Y-137700000D01*
G75*
G02*
X138475000Y-137456250I0J243750D01*
G01*
X138475000Y-136968750D01*
G75*
G02*
X138718750Y-136725000I243750J0D01*
G01*
G37*
%TD*%
%TO.C,C27*%
G36*
G01*
X141281250Y-93275000D02*
X140718750Y-93275000D01*
G75*
G02*
X140475000Y-93031250I0J243750D01*
G01*
X140475000Y-92543750D01*
G75*
G02*
X140718750Y-92300000I243750J0D01*
G01*
X141281250Y-92300000D01*
G75*
G02*
X141525000Y-92543750I0J-243750D01*
G01*
X141525000Y-93031250D01*
G75*
G02*
X141281250Y-93275000I-243750J0D01*
G01*
G37*
G36*
G01*
X141281250Y-91700000D02*
X140718750Y-91700000D01*
G75*
G02*
X140475000Y-91456250I0J243750D01*
G01*
X140475000Y-90968750D01*
G75*
G02*
X140718750Y-90725000I243750J0D01*
G01*
X141281250Y-90725000D01*
G75*
G02*
X141525000Y-90968750I0J-243750D01*
G01*
X141525000Y-91456250D01*
G75*
G02*
X141281250Y-91700000I-243750J0D01*
G01*
G37*
%TD*%
%TO.C,C37*%
G36*
G01*
X158718750Y-96725000D02*
X159281250Y-96725000D01*
G75*
G02*
X159525000Y-96968750I0J-243750D01*
G01*
X159525000Y-97456250D01*
G75*
G02*
X159281250Y-97700000I-243750J0D01*
G01*
X158718750Y-97700000D01*
G75*
G02*
X158475000Y-97456250I0J243750D01*
G01*
X158475000Y-96968750D01*
G75*
G02*
X158718750Y-96725000I243750J0D01*
G01*
G37*
G36*
G01*
X158718750Y-98300000D02*
X159281250Y-98300000D01*
G75*
G02*
X159525000Y-98543750I0J-243750D01*
G01*
X159525000Y-99031250D01*
G75*
G02*
X159281250Y-99275000I-243750J0D01*
G01*
X158718750Y-99275000D01*
G75*
G02*
X158475000Y-99031250I0J243750D01*
G01*
X158475000Y-98543750D01*
G75*
G02*
X158718750Y-98300000I243750J0D01*
G01*
G37*
%TD*%
%TO.C,C7*%
G36*
G01*
X118718750Y-78300000D02*
X119281250Y-78300000D01*
G75*
G02*
X119525000Y-78543750I0J-243750D01*
G01*
X119525000Y-79031250D01*
G75*
G02*
X119281250Y-79275000I-243750J0D01*
G01*
X118718750Y-79275000D01*
G75*
G02*
X118475000Y-79031250I0J243750D01*
G01*
X118475000Y-78543750D01*
G75*
G02*
X118718750Y-78300000I243750J0D01*
G01*
G37*
G36*
G01*
X118718750Y-76725000D02*
X119281250Y-76725000D01*
G75*
G02*
X119525000Y-76968750I0J-243750D01*
G01*
X119525000Y-77456250D01*
G75*
G02*
X119281250Y-77700000I-243750J0D01*
G01*
X118718750Y-77700000D01*
G75*
G02*
X118475000Y-77456250I0J243750D01*
G01*
X118475000Y-76968750D01*
G75*
G02*
X118718750Y-76725000I243750J0D01*
G01*
G37*
%TD*%
%TO.C,C30*%
G36*
G01*
X141281250Y-121700000D02*
X140718750Y-121700000D01*
G75*
G02*
X140475000Y-121456250I0J243750D01*
G01*
X140475000Y-120968750D01*
G75*
G02*
X140718750Y-120725000I243750J0D01*
G01*
X141281250Y-120725000D01*
G75*
G02*
X141525000Y-120968750I0J-243750D01*
G01*
X141525000Y-121456250D01*
G75*
G02*
X141281250Y-121700000I-243750J0D01*
G01*
G37*
G36*
G01*
X141281250Y-123275000D02*
X140718750Y-123275000D01*
G75*
G02*
X140475000Y-123031250I0J243750D01*
G01*
X140475000Y-122543750D01*
G75*
G02*
X140718750Y-122300000I243750J0D01*
G01*
X141281250Y-122300000D01*
G75*
G02*
X141525000Y-122543750I0J-243750D01*
G01*
X141525000Y-123031250D01*
G75*
G02*
X141281250Y-123275000I-243750J0D01*
G01*
G37*
%TD*%
%TO.C,C40*%
G36*
G01*
X158718750Y-68300000D02*
X159281250Y-68300000D01*
G75*
G02*
X159525000Y-68543750I0J-243750D01*
G01*
X159525000Y-69031250D01*
G75*
G02*
X159281250Y-69275000I-243750J0D01*
G01*
X158718750Y-69275000D01*
G75*
G02*
X158475000Y-69031250I0J243750D01*
G01*
X158475000Y-68543750D01*
G75*
G02*
X158718750Y-68300000I243750J0D01*
G01*
G37*
G36*
G01*
X158718750Y-66725000D02*
X159281250Y-66725000D01*
G75*
G02*
X159525000Y-66968750I0J-243750D01*
G01*
X159525000Y-67456250D01*
G75*
G02*
X159281250Y-67700000I-243750J0D01*
G01*
X158718750Y-67700000D01*
G75*
G02*
X158475000Y-67456250I0J243750D01*
G01*
X158475000Y-66968750D01*
G75*
G02*
X158718750Y-66725000I243750J0D01*
G01*
G37*
%TD*%
%TO.C,C10*%
G36*
G01*
X121281250Y-83275000D02*
X120718750Y-83275000D01*
G75*
G02*
X120475000Y-83031250I0J243750D01*
G01*
X120475000Y-82543750D01*
G75*
G02*
X120718750Y-82300000I243750J0D01*
G01*
X121281250Y-82300000D01*
G75*
G02*
X121525000Y-82543750I0J-243750D01*
G01*
X121525000Y-83031250D01*
G75*
G02*
X121281250Y-83275000I-243750J0D01*
G01*
G37*
G36*
G01*
X121281250Y-81700000D02*
X120718750Y-81700000D01*
G75*
G02*
X120475000Y-81456250I0J243750D01*
G01*
X120475000Y-80968750D01*
G75*
G02*
X120718750Y-80725000I243750J0D01*
G01*
X121281250Y-80725000D01*
G75*
G02*
X121525000Y-80968750I0J-243750D01*
G01*
X121525000Y-81456250D01*
G75*
G02*
X121281250Y-81700000I-243750J0D01*
G01*
G37*
%TD*%
%TO.C,C18*%
G36*
G01*
X138718750Y-128300000D02*
X139281250Y-128300000D01*
G75*
G02*
X139525000Y-128543750I0J-243750D01*
G01*
X139525000Y-129031250D01*
G75*
G02*
X139281250Y-129275000I-243750J0D01*
G01*
X138718750Y-129275000D01*
G75*
G02*
X138475000Y-129031250I0J243750D01*
G01*
X138475000Y-128543750D01*
G75*
G02*
X138718750Y-128300000I243750J0D01*
G01*
G37*
G36*
G01*
X138718750Y-126725000D02*
X139281250Y-126725000D01*
G75*
G02*
X139525000Y-126968750I0J-243750D01*
G01*
X139525000Y-127456250D01*
G75*
G02*
X139281250Y-127700000I-243750J0D01*
G01*
X138718750Y-127700000D01*
G75*
G02*
X138475000Y-127456250I0J243750D01*
G01*
X138475000Y-126968750D01*
G75*
G02*
X138718750Y-126725000I243750J0D01*
G01*
G37*
%TD*%
%TO.C,C28*%
G36*
G01*
X141281250Y-103275000D02*
X140718750Y-103275000D01*
G75*
G02*
X140475000Y-103031250I0J243750D01*
G01*
X140475000Y-102543750D01*
G75*
G02*
X140718750Y-102300000I243750J0D01*
G01*
X141281250Y-102300000D01*
G75*
G02*
X141525000Y-102543750I0J-243750D01*
G01*
X141525000Y-103031250D01*
G75*
G02*
X141281250Y-103275000I-243750J0D01*
G01*
G37*
G36*
G01*
X141281250Y-101700000D02*
X140718750Y-101700000D01*
G75*
G02*
X140475000Y-101456250I0J243750D01*
G01*
X140475000Y-100968750D01*
G75*
G02*
X140718750Y-100725000I243750J0D01*
G01*
X141281250Y-100725000D01*
G75*
G02*
X141525000Y-100968750I0J-243750D01*
G01*
X141525000Y-101456250D01*
G75*
G02*
X141281250Y-101700000I-243750J0D01*
G01*
G37*
%TD*%
%TO.C,C38*%
G36*
G01*
X158718750Y-88300000D02*
X159281250Y-88300000D01*
G75*
G02*
X159525000Y-88543750I0J-243750D01*
G01*
X159525000Y-89031250D01*
G75*
G02*
X159281250Y-89275000I-243750J0D01*
G01*
X158718750Y-89275000D01*
G75*
G02*
X158475000Y-89031250I0J243750D01*
G01*
X158475000Y-88543750D01*
G75*
G02*
X158718750Y-88300000I243750J0D01*
G01*
G37*
G36*
G01*
X158718750Y-86725000D02*
X159281250Y-86725000D01*
G75*
G02*
X159525000Y-86968750I0J-243750D01*
G01*
X159525000Y-87456250D01*
G75*
G02*
X159281250Y-87700000I-243750J0D01*
G01*
X158718750Y-87700000D01*
G75*
G02*
X158475000Y-87456250I0J243750D01*
G01*
X158475000Y-86968750D01*
G75*
G02*
X158718750Y-86725000I243750J0D01*
G01*
G37*
%TD*%
%TO.C,C8*%
G36*
G01*
X118718750Y-68300000D02*
X119281250Y-68300000D01*
G75*
G02*
X119525000Y-68543750I0J-243750D01*
G01*
X119525000Y-69031250D01*
G75*
G02*
X119281250Y-69275000I-243750J0D01*
G01*
X118718750Y-69275000D01*
G75*
G02*
X118475000Y-69031250I0J243750D01*
G01*
X118475000Y-68543750D01*
G75*
G02*
X118718750Y-68300000I243750J0D01*
G01*
G37*
G36*
G01*
X118718750Y-66725000D02*
X119281250Y-66725000D01*
G75*
G02*
X119525000Y-66968750I0J-243750D01*
G01*
X119525000Y-67456250D01*
G75*
G02*
X119281250Y-67700000I-243750J0D01*
G01*
X118718750Y-67700000D01*
G75*
G02*
X118475000Y-67456250I0J243750D01*
G01*
X118475000Y-66968750D01*
G75*
G02*
X118718750Y-66725000I243750J0D01*
G01*
G37*
%TD*%
%TO.C,C13*%
G36*
G01*
X121281250Y-113275000D02*
X120718750Y-113275000D01*
G75*
G02*
X120475000Y-113031250I0J243750D01*
G01*
X120475000Y-112543750D01*
G75*
G02*
X120718750Y-112300000I243750J0D01*
G01*
X121281250Y-112300000D01*
G75*
G02*
X121525000Y-112543750I0J-243750D01*
G01*
X121525000Y-113031250D01*
G75*
G02*
X121281250Y-113275000I-243750J0D01*
G01*
G37*
G36*
G01*
X121281250Y-111700000D02*
X120718750Y-111700000D01*
G75*
G02*
X120475000Y-111456250I0J243750D01*
G01*
X120475000Y-110968750D01*
G75*
G02*
X120718750Y-110725000I243750J0D01*
G01*
X121281250Y-110725000D01*
G75*
G02*
X121525000Y-110968750I0J-243750D01*
G01*
X121525000Y-111456250D01*
G75*
G02*
X121281250Y-111700000I-243750J0D01*
G01*
G37*
%TD*%
%TO.C,C23*%
G36*
G01*
X138718750Y-78300000D02*
X139281250Y-78300000D01*
G75*
G02*
X139525000Y-78543750I0J-243750D01*
G01*
X139525000Y-79031250D01*
G75*
G02*
X139281250Y-79275000I-243750J0D01*
G01*
X138718750Y-79275000D01*
G75*
G02*
X138475000Y-79031250I0J243750D01*
G01*
X138475000Y-78543750D01*
G75*
G02*
X138718750Y-78300000I243750J0D01*
G01*
G37*
G36*
G01*
X138718750Y-76725000D02*
X139281250Y-76725000D01*
G75*
G02*
X139525000Y-76968750I0J-243750D01*
G01*
X139525000Y-77456250D01*
G75*
G02*
X139281250Y-77700000I-243750J0D01*
G01*
X138718750Y-77700000D01*
G75*
G02*
X138475000Y-77456250I0J243750D01*
G01*
X138475000Y-76968750D01*
G75*
G02*
X138718750Y-76725000I243750J0D01*
G01*
G37*
%TD*%
%TO.C,C33*%
G36*
G01*
X158718750Y-138300000D02*
X159281250Y-138300000D01*
G75*
G02*
X159525000Y-138543750I0J-243750D01*
G01*
X159525000Y-139031250D01*
G75*
G02*
X159281250Y-139275000I-243750J0D01*
G01*
X158718750Y-139275000D01*
G75*
G02*
X158475000Y-139031250I0J243750D01*
G01*
X158475000Y-138543750D01*
G75*
G02*
X158718750Y-138300000I243750J0D01*
G01*
G37*
G36*
G01*
X158718750Y-136725000D02*
X159281250Y-136725000D01*
G75*
G02*
X159525000Y-136968750I0J-243750D01*
G01*
X159525000Y-137456250D01*
G75*
G02*
X159281250Y-137700000I-243750J0D01*
G01*
X158718750Y-137700000D01*
G75*
G02*
X158475000Y-137456250I0J243750D01*
G01*
X158475000Y-136968750D01*
G75*
G02*
X158718750Y-136725000I243750J0D01*
G01*
G37*
%TD*%
%TO.C,C3*%
G36*
G01*
X118718750Y-116725000D02*
X119281250Y-116725000D01*
G75*
G02*
X119525000Y-116968750I0J-243750D01*
G01*
X119525000Y-117456250D01*
G75*
G02*
X119281250Y-117700000I-243750J0D01*
G01*
X118718750Y-117700000D01*
G75*
G02*
X118475000Y-117456250I0J243750D01*
G01*
X118475000Y-116968750D01*
G75*
G02*
X118718750Y-116725000I243750J0D01*
G01*
G37*
G36*
G01*
X118718750Y-118300000D02*
X119281250Y-118300000D01*
G75*
G02*
X119525000Y-118543750I0J-243750D01*
G01*
X119525000Y-119031250D01*
G75*
G02*
X119281250Y-119275000I-243750J0D01*
G01*
X118718750Y-119275000D01*
G75*
G02*
X118475000Y-119031250I0J243750D01*
G01*
X118475000Y-118543750D01*
G75*
G02*
X118718750Y-118300000I243750J0D01*
G01*
G37*
%TD*%
%TO.C,C21*%
G36*
G01*
X138718750Y-96725000D02*
X139281250Y-96725000D01*
G75*
G02*
X139525000Y-96968750I0J-243750D01*
G01*
X139525000Y-97456250D01*
G75*
G02*
X139281250Y-97700000I-243750J0D01*
G01*
X138718750Y-97700000D01*
G75*
G02*
X138475000Y-97456250I0J243750D01*
G01*
X138475000Y-96968750D01*
G75*
G02*
X138718750Y-96725000I243750J0D01*
G01*
G37*
G36*
G01*
X138718750Y-98300000D02*
X139281250Y-98300000D01*
G75*
G02*
X139525000Y-98543750I0J-243750D01*
G01*
X139525000Y-99031250D01*
G75*
G02*
X139281250Y-99275000I-243750J0D01*
G01*
X138718750Y-99275000D01*
G75*
G02*
X138475000Y-99031250I0J243750D01*
G01*
X138475000Y-98543750D01*
G75*
G02*
X138718750Y-98300000I243750J0D01*
G01*
G37*
%TD*%
%TO.C,C31*%
G36*
G01*
X141281250Y-133275000D02*
X140718750Y-133275000D01*
G75*
G02*
X140475000Y-133031250I0J243750D01*
G01*
X140475000Y-132543750D01*
G75*
G02*
X140718750Y-132300000I243750J0D01*
G01*
X141281250Y-132300000D01*
G75*
G02*
X141525000Y-132543750I0J-243750D01*
G01*
X141525000Y-133031250D01*
G75*
G02*
X141281250Y-133275000I-243750J0D01*
G01*
G37*
G36*
G01*
X141281250Y-131700000D02*
X140718750Y-131700000D01*
G75*
G02*
X140475000Y-131456250I0J243750D01*
G01*
X140475000Y-130968750D01*
G75*
G02*
X140718750Y-130725000I243750J0D01*
G01*
X141281250Y-130725000D01*
G75*
G02*
X141525000Y-130968750I0J-243750D01*
G01*
X141525000Y-131456250D01*
G75*
G02*
X141281250Y-131700000I-243750J0D01*
G01*
G37*
%TD*%
%TO.C,C1*%
G36*
G01*
X118718750Y-138300000D02*
X119281250Y-138300000D01*
G75*
G02*
X119525000Y-138543750I0J-243750D01*
G01*
X119525000Y-139031250D01*
G75*
G02*
X119281250Y-139275000I-243750J0D01*
G01*
X118718750Y-139275000D01*
G75*
G02*
X118475000Y-139031250I0J243750D01*
G01*
X118475000Y-138543750D01*
G75*
G02*
X118718750Y-138300000I243750J0D01*
G01*
G37*
G36*
G01*
X118718750Y-136725000D02*
X119281250Y-136725000D01*
G75*
G02*
X119525000Y-136968750I0J-243750D01*
G01*
X119525000Y-137456250D01*
G75*
G02*
X119281250Y-137700000I-243750J0D01*
G01*
X118718750Y-137700000D01*
G75*
G02*
X118475000Y-137456250I0J243750D01*
G01*
X118475000Y-136968750D01*
G75*
G02*
X118718750Y-136725000I243750J0D01*
G01*
G37*
%TD*%
%TO.C,C14*%
G36*
G01*
X121281250Y-123275000D02*
X120718750Y-123275000D01*
G75*
G02*
X120475000Y-123031250I0J243750D01*
G01*
X120475000Y-122543750D01*
G75*
G02*
X120718750Y-122300000I243750J0D01*
G01*
X121281250Y-122300000D01*
G75*
G02*
X121525000Y-122543750I0J-243750D01*
G01*
X121525000Y-123031250D01*
G75*
G02*
X121281250Y-123275000I-243750J0D01*
G01*
G37*
G36*
G01*
X121281250Y-121700000D02*
X120718750Y-121700000D01*
G75*
G02*
X120475000Y-121456250I0J243750D01*
G01*
X120475000Y-120968750D01*
G75*
G02*
X120718750Y-120725000I243750J0D01*
G01*
X121281250Y-120725000D01*
G75*
G02*
X121525000Y-120968750I0J-243750D01*
G01*
X121525000Y-121456250D01*
G75*
G02*
X121281250Y-121700000I-243750J0D01*
G01*
G37*
%TD*%
%TO.C,C24*%
G36*
G01*
X138718750Y-68300000D02*
X139281250Y-68300000D01*
G75*
G02*
X139525000Y-68543750I0J-243750D01*
G01*
X139525000Y-69031250D01*
G75*
G02*
X139281250Y-69275000I-243750J0D01*
G01*
X138718750Y-69275000D01*
G75*
G02*
X138475000Y-69031250I0J243750D01*
G01*
X138475000Y-68543750D01*
G75*
G02*
X138718750Y-68300000I243750J0D01*
G01*
G37*
G36*
G01*
X138718750Y-66725000D02*
X139281250Y-66725000D01*
G75*
G02*
X139525000Y-66968750I0J-243750D01*
G01*
X139525000Y-67456250D01*
G75*
G02*
X139281250Y-67700000I-243750J0D01*
G01*
X138718750Y-67700000D01*
G75*
G02*
X138475000Y-67456250I0J243750D01*
G01*
X138475000Y-66968750D01*
G75*
G02*
X138718750Y-66725000I243750J0D01*
G01*
G37*
%TD*%
%TO.C,C34*%
G36*
G01*
X158718750Y-128300000D02*
X159281250Y-128300000D01*
G75*
G02*
X159525000Y-128543750I0J-243750D01*
G01*
X159525000Y-129031250D01*
G75*
G02*
X159281250Y-129275000I-243750J0D01*
G01*
X158718750Y-129275000D01*
G75*
G02*
X158475000Y-129031250I0J243750D01*
G01*
X158475000Y-128543750D01*
G75*
G02*
X158718750Y-128300000I243750J0D01*
G01*
G37*
G36*
G01*
X158718750Y-126725000D02*
X159281250Y-126725000D01*
G75*
G02*
X159525000Y-126968750I0J-243750D01*
G01*
X159525000Y-127456250D01*
G75*
G02*
X159281250Y-127700000I-243750J0D01*
G01*
X158718750Y-127700000D01*
G75*
G02*
X158475000Y-127456250I0J243750D01*
G01*
X158475000Y-126968750D01*
G75*
G02*
X158718750Y-126725000I243750J0D01*
G01*
G37*
%TD*%
%TO.C,C4*%
G36*
G01*
X118718750Y-106725000D02*
X119281250Y-106725000D01*
G75*
G02*
X119525000Y-106968750I0J-243750D01*
G01*
X119525000Y-107456250D01*
G75*
G02*
X119281250Y-107700000I-243750J0D01*
G01*
X118718750Y-107700000D01*
G75*
G02*
X118475000Y-107456250I0J243750D01*
G01*
X118475000Y-106968750D01*
G75*
G02*
X118718750Y-106725000I243750J0D01*
G01*
G37*
G36*
G01*
X118718750Y-108300000D02*
X119281250Y-108300000D01*
G75*
G02*
X119525000Y-108543750I0J-243750D01*
G01*
X119525000Y-109031250D01*
G75*
G02*
X119281250Y-109275000I-243750J0D01*
G01*
X118718750Y-109275000D01*
G75*
G02*
X118475000Y-109031250I0J243750D01*
G01*
X118475000Y-108543750D01*
G75*
G02*
X118718750Y-108300000I243750J0D01*
G01*
G37*
%TD*%
%TO.C,C55*%
G36*
G01*
X178718750Y-76725000D02*
X179281250Y-76725000D01*
G75*
G02*
X179525000Y-76968750I0J-243750D01*
G01*
X179525000Y-77456250D01*
G75*
G02*
X179281250Y-77700000I-243750J0D01*
G01*
X178718750Y-77700000D01*
G75*
G02*
X178475000Y-77456250I0J243750D01*
G01*
X178475000Y-76968750D01*
G75*
G02*
X178718750Y-76725000I243750J0D01*
G01*
G37*
G36*
G01*
X178718750Y-78300000D02*
X179281250Y-78300000D01*
G75*
G02*
X179525000Y-78543750I0J-243750D01*
G01*
X179525000Y-79031250D01*
G75*
G02*
X179281250Y-79275000I-243750J0D01*
G01*
X178718750Y-79275000D01*
G75*
G02*
X178475000Y-79031250I0J243750D01*
G01*
X178475000Y-78543750D01*
G75*
G02*
X178718750Y-78300000I243750J0D01*
G01*
G37*
%TD*%
%TO.C,C62*%
G36*
G01*
X181281250Y-121700000D02*
X180718750Y-121700000D01*
G75*
G02*
X180475000Y-121456250I0J243750D01*
G01*
X180475000Y-120968750D01*
G75*
G02*
X180718750Y-120725000I243750J0D01*
G01*
X181281250Y-120725000D01*
G75*
G02*
X181525000Y-120968750I0J-243750D01*
G01*
X181525000Y-121456250D01*
G75*
G02*
X181281250Y-121700000I-243750J0D01*
G01*
G37*
G36*
G01*
X181281250Y-123275000D02*
X180718750Y-123275000D01*
G75*
G02*
X180475000Y-123031250I0J243750D01*
G01*
X180475000Y-122543750D01*
G75*
G02*
X180718750Y-122300000I243750J0D01*
G01*
X181281250Y-122300000D01*
G75*
G02*
X181525000Y-122543750I0J-243750D01*
G01*
X181525000Y-123031250D01*
G75*
G02*
X181281250Y-123275000I-243750J0D01*
G01*
G37*
%TD*%
%TO.C,C45*%
G36*
G01*
X161281250Y-113275000D02*
X160718750Y-113275000D01*
G75*
G02*
X160475000Y-113031250I0J243750D01*
G01*
X160475000Y-112543750D01*
G75*
G02*
X160718750Y-112300000I243750J0D01*
G01*
X161281250Y-112300000D01*
G75*
G02*
X161525000Y-112543750I0J-243750D01*
G01*
X161525000Y-113031250D01*
G75*
G02*
X161281250Y-113275000I-243750J0D01*
G01*
G37*
G36*
G01*
X161281250Y-111700000D02*
X160718750Y-111700000D01*
G75*
G02*
X160475000Y-111456250I0J243750D01*
G01*
X160475000Y-110968750D01*
G75*
G02*
X160718750Y-110725000I243750J0D01*
G01*
X161281250Y-110725000D01*
G75*
G02*
X161525000Y-110968750I0J-243750D01*
G01*
X161525000Y-111456250D01*
G75*
G02*
X161281250Y-111700000I-243750J0D01*
G01*
G37*
%TD*%
%TO.C,C52*%
G36*
G01*
X178718750Y-108300000D02*
X179281250Y-108300000D01*
G75*
G02*
X179525000Y-108543750I0J-243750D01*
G01*
X179525000Y-109031250D01*
G75*
G02*
X179281250Y-109275000I-243750J0D01*
G01*
X178718750Y-109275000D01*
G75*
G02*
X178475000Y-109031250I0J243750D01*
G01*
X178475000Y-108543750D01*
G75*
G02*
X178718750Y-108300000I243750J0D01*
G01*
G37*
G36*
G01*
X178718750Y-106725000D02*
X179281250Y-106725000D01*
G75*
G02*
X179525000Y-106968750I0J-243750D01*
G01*
X179525000Y-107456250D01*
G75*
G02*
X179281250Y-107700000I-243750J0D01*
G01*
X178718750Y-107700000D01*
G75*
G02*
X178475000Y-107456250I0J243750D01*
G01*
X178475000Y-106968750D01*
G75*
G02*
X178718750Y-106725000I243750J0D01*
G01*
G37*
%TD*%
%TO.C,C61*%
G36*
G01*
X181281250Y-113275000D02*
X180718750Y-113275000D01*
G75*
G02*
X180475000Y-113031250I0J243750D01*
G01*
X180475000Y-112543750D01*
G75*
G02*
X180718750Y-112300000I243750J0D01*
G01*
X181281250Y-112300000D01*
G75*
G02*
X181525000Y-112543750I0J-243750D01*
G01*
X181525000Y-113031250D01*
G75*
G02*
X181281250Y-113275000I-243750J0D01*
G01*
G37*
G36*
G01*
X181281250Y-111700000D02*
X180718750Y-111700000D01*
G75*
G02*
X180475000Y-111456250I0J243750D01*
G01*
X180475000Y-110968750D01*
G75*
G02*
X180718750Y-110725000I243750J0D01*
G01*
X181281250Y-110725000D01*
G75*
G02*
X181525000Y-110968750I0J-243750D01*
G01*
X181525000Y-111456250D01*
G75*
G02*
X181281250Y-111700000I-243750J0D01*
G01*
G37*
%TD*%
%TO.C,C41*%
G36*
G01*
X161281250Y-71700000D02*
X160718750Y-71700000D01*
G75*
G02*
X160475000Y-71456250I0J243750D01*
G01*
X160475000Y-70968750D01*
G75*
G02*
X160718750Y-70725000I243750J0D01*
G01*
X161281250Y-70725000D01*
G75*
G02*
X161525000Y-70968750I0J-243750D01*
G01*
X161525000Y-71456250D01*
G75*
G02*
X161281250Y-71700000I-243750J0D01*
G01*
G37*
G36*
G01*
X161281250Y-73275000D02*
X160718750Y-73275000D01*
G75*
G02*
X160475000Y-73031250I0J243750D01*
G01*
X160475000Y-72543750D01*
G75*
G02*
X160718750Y-72300000I243750J0D01*
G01*
X161281250Y-72300000D01*
G75*
G02*
X161525000Y-72543750I0J-243750D01*
G01*
X161525000Y-73031250D01*
G75*
G02*
X161281250Y-73275000I-243750J0D01*
G01*
G37*
%TD*%
%TO.C,C56*%
G36*
G01*
X178718750Y-66725000D02*
X179281250Y-66725000D01*
G75*
G02*
X179525000Y-66968750I0J-243750D01*
G01*
X179525000Y-67456250D01*
G75*
G02*
X179281250Y-67700000I-243750J0D01*
G01*
X178718750Y-67700000D01*
G75*
G02*
X178475000Y-67456250I0J243750D01*
G01*
X178475000Y-66968750D01*
G75*
G02*
X178718750Y-66725000I243750J0D01*
G01*
G37*
G36*
G01*
X178718750Y-68300000D02*
X179281250Y-68300000D01*
G75*
G02*
X179525000Y-68543750I0J-243750D01*
G01*
X179525000Y-69031250D01*
G75*
G02*
X179281250Y-69275000I-243750J0D01*
G01*
X178718750Y-69275000D01*
G75*
G02*
X178475000Y-69031250I0J243750D01*
G01*
X178475000Y-68543750D01*
G75*
G02*
X178718750Y-68300000I243750J0D01*
G01*
G37*
%TD*%
%TO.C,C63*%
G36*
G01*
X181281250Y-131700000D02*
X180718750Y-131700000D01*
G75*
G02*
X180475000Y-131456250I0J243750D01*
G01*
X180475000Y-130968750D01*
G75*
G02*
X180718750Y-130725000I243750J0D01*
G01*
X181281250Y-130725000D01*
G75*
G02*
X181525000Y-130968750I0J-243750D01*
G01*
X181525000Y-131456250D01*
G75*
G02*
X181281250Y-131700000I-243750J0D01*
G01*
G37*
G36*
G01*
X181281250Y-133275000D02*
X180718750Y-133275000D01*
G75*
G02*
X180475000Y-133031250I0J243750D01*
G01*
X180475000Y-132543750D01*
G75*
G02*
X180718750Y-132300000I243750J0D01*
G01*
X181281250Y-132300000D01*
G75*
G02*
X181525000Y-132543750I0J-243750D01*
G01*
X181525000Y-133031250D01*
G75*
G02*
X181281250Y-133275000I-243750J0D01*
G01*
G37*
%TD*%
%TO.C,C46*%
G36*
G01*
X161281250Y-123275000D02*
X160718750Y-123275000D01*
G75*
G02*
X160475000Y-123031250I0J243750D01*
G01*
X160475000Y-122543750D01*
G75*
G02*
X160718750Y-122300000I243750J0D01*
G01*
X161281250Y-122300000D01*
G75*
G02*
X161525000Y-122543750I0J-243750D01*
G01*
X161525000Y-123031250D01*
G75*
G02*
X161281250Y-123275000I-243750J0D01*
G01*
G37*
G36*
G01*
X161281250Y-121700000D02*
X160718750Y-121700000D01*
G75*
G02*
X160475000Y-121456250I0J243750D01*
G01*
X160475000Y-120968750D01*
G75*
G02*
X160718750Y-120725000I243750J0D01*
G01*
X161281250Y-120725000D01*
G75*
G02*
X161525000Y-120968750I0J-243750D01*
G01*
X161525000Y-121456250D01*
G75*
G02*
X161281250Y-121700000I-243750J0D01*
G01*
G37*
%TD*%
%TO.C,C64*%
G36*
G01*
X181281250Y-143275000D02*
X180718750Y-143275000D01*
G75*
G02*
X180475000Y-143031250I0J243750D01*
G01*
X180475000Y-142543750D01*
G75*
G02*
X180718750Y-142300000I243750J0D01*
G01*
X181281250Y-142300000D01*
G75*
G02*
X181525000Y-142543750I0J-243750D01*
G01*
X181525000Y-143031250D01*
G75*
G02*
X181281250Y-143275000I-243750J0D01*
G01*
G37*
G36*
G01*
X181281250Y-141700000D02*
X180718750Y-141700000D01*
G75*
G02*
X180475000Y-141456250I0J243750D01*
G01*
X180475000Y-140968750D01*
G75*
G02*
X180718750Y-140725000I243750J0D01*
G01*
X181281250Y-140725000D01*
G75*
G02*
X181525000Y-140968750I0J-243750D01*
G01*
X181525000Y-141456250D01*
G75*
G02*
X181281250Y-141700000I-243750J0D01*
G01*
G37*
%TD*%
%TO.C,C49*%
G36*
G01*
X178718750Y-138300000D02*
X179281250Y-138300000D01*
G75*
G02*
X179525000Y-138543750I0J-243750D01*
G01*
X179525000Y-139031250D01*
G75*
G02*
X179281250Y-139275000I-243750J0D01*
G01*
X178718750Y-139275000D01*
G75*
G02*
X178475000Y-139031250I0J243750D01*
G01*
X178475000Y-138543750D01*
G75*
G02*
X178718750Y-138300000I243750J0D01*
G01*
G37*
G36*
G01*
X178718750Y-136725000D02*
X179281250Y-136725000D01*
G75*
G02*
X179525000Y-136968750I0J-243750D01*
G01*
X179525000Y-137456250D01*
G75*
G02*
X179281250Y-137700000I-243750J0D01*
G01*
X178718750Y-137700000D01*
G75*
G02*
X178475000Y-137456250I0J243750D01*
G01*
X178475000Y-136968750D01*
G75*
G02*
X178718750Y-136725000I243750J0D01*
G01*
G37*
%TD*%
%TO.C,C57*%
G36*
G01*
X181281250Y-73275000D02*
X180718750Y-73275000D01*
G75*
G02*
X180475000Y-73031250I0J243750D01*
G01*
X180475000Y-72543750D01*
G75*
G02*
X180718750Y-72300000I243750J0D01*
G01*
X181281250Y-72300000D01*
G75*
G02*
X181525000Y-72543750I0J-243750D01*
G01*
X181525000Y-73031250D01*
G75*
G02*
X181281250Y-73275000I-243750J0D01*
G01*
G37*
G36*
G01*
X181281250Y-71700000D02*
X180718750Y-71700000D01*
G75*
G02*
X180475000Y-71456250I0J243750D01*
G01*
X180475000Y-70968750D01*
G75*
G02*
X180718750Y-70725000I243750J0D01*
G01*
X181281250Y-70725000D01*
G75*
G02*
X181525000Y-70968750I0J-243750D01*
G01*
X181525000Y-71456250D01*
G75*
G02*
X181281250Y-71700000I-243750J0D01*
G01*
G37*
%TD*%
%TO.C,C47*%
G36*
G01*
X161281250Y-133275000D02*
X160718750Y-133275000D01*
G75*
G02*
X160475000Y-133031250I0J243750D01*
G01*
X160475000Y-132543750D01*
G75*
G02*
X160718750Y-132300000I243750J0D01*
G01*
X161281250Y-132300000D01*
G75*
G02*
X161525000Y-132543750I0J-243750D01*
G01*
X161525000Y-133031250D01*
G75*
G02*
X161281250Y-133275000I-243750J0D01*
G01*
G37*
G36*
G01*
X161281250Y-131700000D02*
X160718750Y-131700000D01*
G75*
G02*
X160475000Y-131456250I0J243750D01*
G01*
X160475000Y-130968750D01*
G75*
G02*
X160718750Y-130725000I243750J0D01*
G01*
X161281250Y-130725000D01*
G75*
G02*
X161525000Y-130968750I0J-243750D01*
G01*
X161525000Y-131456250D01*
G75*
G02*
X161281250Y-131700000I-243750J0D01*
G01*
G37*
%TD*%
%TO.C,C50*%
G36*
G01*
X178718750Y-128300000D02*
X179281250Y-128300000D01*
G75*
G02*
X179525000Y-128543750I0J-243750D01*
G01*
X179525000Y-129031250D01*
G75*
G02*
X179281250Y-129275000I-243750J0D01*
G01*
X178718750Y-129275000D01*
G75*
G02*
X178475000Y-129031250I0J243750D01*
G01*
X178475000Y-128543750D01*
G75*
G02*
X178718750Y-128300000I243750J0D01*
G01*
G37*
G36*
G01*
X178718750Y-126725000D02*
X179281250Y-126725000D01*
G75*
G02*
X179525000Y-126968750I0J-243750D01*
G01*
X179525000Y-127456250D01*
G75*
G02*
X179281250Y-127700000I-243750J0D01*
G01*
X178718750Y-127700000D01*
G75*
G02*
X178475000Y-127456250I0J243750D01*
G01*
X178475000Y-126968750D01*
G75*
G02*
X178718750Y-126725000I243750J0D01*
G01*
G37*
%TD*%
%TO.C,C58*%
G36*
G01*
X181281250Y-83275000D02*
X180718750Y-83275000D01*
G75*
G02*
X180475000Y-83031250I0J243750D01*
G01*
X180475000Y-82543750D01*
G75*
G02*
X180718750Y-82300000I243750J0D01*
G01*
X181281250Y-82300000D01*
G75*
G02*
X181525000Y-82543750I0J-243750D01*
G01*
X181525000Y-83031250D01*
G75*
G02*
X181281250Y-83275000I-243750J0D01*
G01*
G37*
G36*
G01*
X181281250Y-81700000D02*
X180718750Y-81700000D01*
G75*
G02*
X180475000Y-81456250I0J243750D01*
G01*
X180475000Y-80968750D01*
G75*
G02*
X180718750Y-80725000I243750J0D01*
G01*
X181281250Y-80725000D01*
G75*
G02*
X181525000Y-80968750I0J-243750D01*
G01*
X181525000Y-81456250D01*
G75*
G02*
X181281250Y-81700000I-243750J0D01*
G01*
G37*
%TD*%
%TO.C,C48*%
G36*
G01*
X161281250Y-143275000D02*
X160718750Y-143275000D01*
G75*
G02*
X160475000Y-143031250I0J243750D01*
G01*
X160475000Y-142543750D01*
G75*
G02*
X160718750Y-142300000I243750J0D01*
G01*
X161281250Y-142300000D01*
G75*
G02*
X161525000Y-142543750I0J-243750D01*
G01*
X161525000Y-143031250D01*
G75*
G02*
X161281250Y-143275000I-243750J0D01*
G01*
G37*
G36*
G01*
X161281250Y-141700000D02*
X160718750Y-141700000D01*
G75*
G02*
X160475000Y-141456250I0J243750D01*
G01*
X160475000Y-140968750D01*
G75*
G02*
X160718750Y-140725000I243750J0D01*
G01*
X161281250Y-140725000D01*
G75*
G02*
X161525000Y-140968750I0J-243750D01*
G01*
X161525000Y-141456250D01*
G75*
G02*
X161281250Y-141700000I-243750J0D01*
G01*
G37*
%TD*%
%TO.C,C53*%
G36*
G01*
X178718750Y-98300000D02*
X179281250Y-98300000D01*
G75*
G02*
X179525000Y-98543750I0J-243750D01*
G01*
X179525000Y-99031250D01*
G75*
G02*
X179281250Y-99275000I-243750J0D01*
G01*
X178718750Y-99275000D01*
G75*
G02*
X178475000Y-99031250I0J243750D01*
G01*
X178475000Y-98543750D01*
G75*
G02*
X178718750Y-98300000I243750J0D01*
G01*
G37*
G36*
G01*
X178718750Y-96725000D02*
X179281250Y-96725000D01*
G75*
G02*
X179525000Y-96968750I0J-243750D01*
G01*
X179525000Y-97456250D01*
G75*
G02*
X179281250Y-97700000I-243750J0D01*
G01*
X178718750Y-97700000D01*
G75*
G02*
X178475000Y-97456250I0J243750D01*
G01*
X178475000Y-96968750D01*
G75*
G02*
X178718750Y-96725000I243750J0D01*
G01*
G37*
%TD*%
%TO.C,C42*%
G36*
G01*
X161281250Y-81700000D02*
X160718750Y-81700000D01*
G75*
G02*
X160475000Y-81456250I0J243750D01*
G01*
X160475000Y-80968750D01*
G75*
G02*
X160718750Y-80725000I243750J0D01*
G01*
X161281250Y-80725000D01*
G75*
G02*
X161525000Y-80968750I0J-243750D01*
G01*
X161525000Y-81456250D01*
G75*
G02*
X161281250Y-81700000I-243750J0D01*
G01*
G37*
G36*
G01*
X161281250Y-83275000D02*
X160718750Y-83275000D01*
G75*
G02*
X160475000Y-83031250I0J243750D01*
G01*
X160475000Y-82543750D01*
G75*
G02*
X160718750Y-82300000I243750J0D01*
G01*
X161281250Y-82300000D01*
G75*
G02*
X161525000Y-82543750I0J-243750D01*
G01*
X161525000Y-83031250D01*
G75*
G02*
X161281250Y-83275000I-243750J0D01*
G01*
G37*
%TD*%
%TO.C,C51*%
G36*
G01*
X178718750Y-116725000D02*
X179281250Y-116725000D01*
G75*
G02*
X179525000Y-116968750I0J-243750D01*
G01*
X179525000Y-117456250D01*
G75*
G02*
X179281250Y-117700000I-243750J0D01*
G01*
X178718750Y-117700000D01*
G75*
G02*
X178475000Y-117456250I0J243750D01*
G01*
X178475000Y-116968750D01*
G75*
G02*
X178718750Y-116725000I243750J0D01*
G01*
G37*
G36*
G01*
X178718750Y-118300000D02*
X179281250Y-118300000D01*
G75*
G02*
X179525000Y-118543750I0J-243750D01*
G01*
X179525000Y-119031250D01*
G75*
G02*
X179281250Y-119275000I-243750J0D01*
G01*
X178718750Y-119275000D01*
G75*
G02*
X178475000Y-119031250I0J243750D01*
G01*
X178475000Y-118543750D01*
G75*
G02*
X178718750Y-118300000I243750J0D01*
G01*
G37*
%TD*%
%TO.C,C54*%
G36*
G01*
X178718750Y-86725000D02*
X179281250Y-86725000D01*
G75*
G02*
X179525000Y-86968750I0J-243750D01*
G01*
X179525000Y-87456250D01*
G75*
G02*
X179281250Y-87700000I-243750J0D01*
G01*
X178718750Y-87700000D01*
G75*
G02*
X178475000Y-87456250I0J243750D01*
G01*
X178475000Y-86968750D01*
G75*
G02*
X178718750Y-86725000I243750J0D01*
G01*
G37*
G36*
G01*
X178718750Y-88300000D02*
X179281250Y-88300000D01*
G75*
G02*
X179525000Y-88543750I0J-243750D01*
G01*
X179525000Y-89031250D01*
G75*
G02*
X179281250Y-89275000I-243750J0D01*
G01*
X178718750Y-89275000D01*
G75*
G02*
X178475000Y-89031250I0J243750D01*
G01*
X178475000Y-88543750D01*
G75*
G02*
X178718750Y-88300000I243750J0D01*
G01*
G37*
%TD*%
%TO.C,C44*%
G36*
G01*
X161281250Y-103275000D02*
X160718750Y-103275000D01*
G75*
G02*
X160475000Y-103031250I0J243750D01*
G01*
X160475000Y-102543750D01*
G75*
G02*
X160718750Y-102300000I243750J0D01*
G01*
X161281250Y-102300000D01*
G75*
G02*
X161525000Y-102543750I0J-243750D01*
G01*
X161525000Y-103031250D01*
G75*
G02*
X161281250Y-103275000I-243750J0D01*
G01*
G37*
G36*
G01*
X161281250Y-101700000D02*
X160718750Y-101700000D01*
G75*
G02*
X160475000Y-101456250I0J243750D01*
G01*
X160475000Y-100968750D01*
G75*
G02*
X160718750Y-100725000I243750J0D01*
G01*
X161281250Y-100725000D01*
G75*
G02*
X161525000Y-100968750I0J-243750D01*
G01*
X161525000Y-101456250D01*
G75*
G02*
X161281250Y-101700000I-243750J0D01*
G01*
G37*
%TD*%
D13*
%TO.C,D11*%
X123400000Y-92450000D03*
X126600000Y-92450000D03*
X123400000Y-87550000D03*
X126600000Y-87550000D03*
%TD*%
%TO.C,D21*%
X136600000Y-97550000D03*
X133400000Y-97550000D03*
X136600000Y-102450000D03*
X133400000Y-102450000D03*
%TD*%
%TO.C,D31*%
X143400000Y-132450000D03*
X146600000Y-132450000D03*
X143400000Y-127550000D03*
X146600000Y-127550000D03*
%TD*%
%TO.C,D1*%
X113400000Y-142450000D03*
X116600000Y-142450000D03*
X113400000Y-137550000D03*
X116600000Y-137550000D03*
%TD*%
%TO.C,D12*%
X126600000Y-97550000D03*
X123400000Y-97550000D03*
X126600000Y-102450000D03*
X123400000Y-102450000D03*
%TD*%
%TO.C,D22*%
X133400000Y-92450000D03*
X136600000Y-92450000D03*
X133400000Y-87550000D03*
X136600000Y-87550000D03*
%TD*%
%TO.C,D32*%
X146600000Y-137550000D03*
X143400000Y-137550000D03*
X146600000Y-142450000D03*
X143400000Y-142450000D03*
%TD*%
%TO.C,D2*%
X116600000Y-127550000D03*
X113400000Y-127550000D03*
X116600000Y-132450000D03*
X113400000Y-132450000D03*
%TD*%
%TO.C,D13*%
X123400000Y-112450000D03*
X126600000Y-112450000D03*
X123400000Y-107550000D03*
X126600000Y-107550000D03*
%TD*%
%TO.C,D23*%
X133400000Y-82450000D03*
X136600000Y-82450000D03*
X133400000Y-77550000D03*
X136600000Y-77550000D03*
%TD*%
%TO.C,D33*%
X156600000Y-137550000D03*
X153400000Y-137550000D03*
X156600000Y-142450000D03*
X153400000Y-142450000D03*
%TD*%
%TO.C,D3*%
X113400000Y-122450000D03*
X116600000Y-122450000D03*
X113400000Y-117550000D03*
X116600000Y-117550000D03*
%TD*%
%TO.C,D14*%
X126600000Y-117550000D03*
X123400000Y-117550000D03*
X126600000Y-122450000D03*
X123400000Y-122450000D03*
%TD*%
%TO.C,D24*%
X133400000Y-72450000D03*
X136600000Y-72450000D03*
X133400000Y-67550000D03*
X136600000Y-67550000D03*
%TD*%
%TO.C,D34*%
X153400000Y-132450000D03*
X156600000Y-132450000D03*
X153400000Y-127550000D03*
X156600000Y-127550000D03*
%TD*%
%TO.C,D4*%
X116600000Y-107550000D03*
X113400000Y-107550000D03*
X116600000Y-112450000D03*
X113400000Y-112450000D03*
%TD*%
%TO.C,D15*%
X123400000Y-132450000D03*
X126600000Y-132450000D03*
X123400000Y-127550000D03*
X126600000Y-127550000D03*
%TD*%
%TO.C,D25*%
X146600000Y-67550000D03*
X143400000Y-67550000D03*
X146600000Y-72450000D03*
X143400000Y-72450000D03*
%TD*%
%TO.C,D35*%
X156600000Y-117550000D03*
X153400000Y-117550000D03*
X156600000Y-122450000D03*
X153400000Y-122450000D03*
%TD*%
%TO.C,D5*%
X113400000Y-102450000D03*
X116600000Y-102450000D03*
X113400000Y-97550000D03*
X116600000Y-97550000D03*
%TD*%
%TO.C,D16*%
X126600000Y-137550000D03*
X123400000Y-137550000D03*
X126600000Y-142450000D03*
X123400000Y-142450000D03*
%TD*%
%TO.C,D26*%
X143400000Y-82450000D03*
X146600000Y-82450000D03*
X143400000Y-77550000D03*
X146600000Y-77550000D03*
%TD*%
%TO.C,D36*%
X153400000Y-112450000D03*
X156600000Y-112450000D03*
X153400000Y-107550000D03*
X156600000Y-107550000D03*
%TD*%
%TO.C,D6*%
X116600000Y-87550000D03*
X113400000Y-87550000D03*
X116600000Y-92450000D03*
X113400000Y-92450000D03*
%TD*%
%TO.C,D17*%
X136600000Y-137550000D03*
X133400000Y-137550000D03*
X136600000Y-142450000D03*
X133400000Y-142450000D03*
%TD*%
%TO.C,D27*%
X146600000Y-87550000D03*
X143400000Y-87550000D03*
X146600000Y-92450000D03*
X143400000Y-92450000D03*
%TD*%
%TO.C,D37*%
X156600000Y-97550000D03*
X153400000Y-97550000D03*
X156600000Y-102450000D03*
X153400000Y-102450000D03*
%TD*%
%TO.C,D7*%
X113400000Y-82450000D03*
X116600000Y-82450000D03*
X113400000Y-77550000D03*
X116600000Y-77550000D03*
%TD*%
%TO.C,D18*%
X133400000Y-132450000D03*
X136600000Y-132450000D03*
X133400000Y-127550000D03*
X136600000Y-127550000D03*
%TD*%
%TO.C,D28*%
X143400000Y-102450000D03*
X146600000Y-102450000D03*
X143400000Y-97550000D03*
X146600000Y-97550000D03*
%TD*%
%TO.C,D38*%
X153400000Y-92450000D03*
X156600000Y-92450000D03*
X153400000Y-87550000D03*
X156600000Y-87550000D03*
%TD*%
%TO.C,D8*%
X116600000Y-67550000D03*
X113400000Y-67550000D03*
X116600000Y-72450000D03*
X113400000Y-72450000D03*
%TD*%
%TO.C,D19*%
X136600000Y-117550000D03*
X133400000Y-117550000D03*
X136600000Y-122450000D03*
X133400000Y-122450000D03*
%TD*%
%TO.C,D29*%
X146600000Y-107550000D03*
X143400000Y-107550000D03*
X146600000Y-112450000D03*
X143400000Y-112450000D03*
%TD*%
%TO.C,D39*%
X156600000Y-77550000D03*
X153400000Y-77550000D03*
X156600000Y-82450000D03*
X153400000Y-82450000D03*
%TD*%
%TO.C,D9*%
X126600000Y-67550000D03*
X123400000Y-67550000D03*
X126600000Y-72450000D03*
X123400000Y-72450000D03*
%TD*%
%TO.C,D20*%
X133400000Y-112450000D03*
X136600000Y-112450000D03*
X133400000Y-107550000D03*
X136600000Y-107550000D03*
%TD*%
%TO.C,D30*%
X143400000Y-122450000D03*
X146600000Y-122450000D03*
X143400000Y-117550000D03*
X146600000Y-117550000D03*
%TD*%
%TO.C,D40*%
X153400000Y-72450000D03*
X156600000Y-72450000D03*
X153400000Y-67550000D03*
X156600000Y-67550000D03*
%TD*%
%TO.C,D10*%
X123400000Y-82450000D03*
X126600000Y-82450000D03*
X123400000Y-77550000D03*
X126600000Y-77550000D03*
%TD*%
%TO.C,D51*%
X176600000Y-117550000D03*
X173400000Y-117550000D03*
X176600000Y-122450000D03*
X173400000Y-122450000D03*
%TD*%
%TO.C,D61*%
X183400000Y-112450000D03*
X186600000Y-112450000D03*
X183400000Y-107550000D03*
X186600000Y-107550000D03*
%TD*%
%TO.C,D41*%
X166600000Y-67550000D03*
X163400000Y-67550000D03*
X166600000Y-72450000D03*
X163400000Y-72450000D03*
%TD*%
%TO.C,D52*%
X173400000Y-112450000D03*
X176600000Y-112450000D03*
X173400000Y-107550000D03*
X176600000Y-107550000D03*
%TD*%
%TO.C,D62*%
X186600000Y-117550000D03*
X183400000Y-117550000D03*
X186600000Y-122450000D03*
X183400000Y-122450000D03*
%TD*%
%TO.C,D42*%
X163400000Y-82450000D03*
X166600000Y-82450000D03*
X163400000Y-77550000D03*
X166600000Y-77550000D03*
%TD*%
%TO.C,D53*%
X176600000Y-97550000D03*
X173400000Y-97550000D03*
X176600000Y-102450000D03*
X173400000Y-102450000D03*
%TD*%
%TO.C,D63*%
X186600000Y-127550000D03*
X183400000Y-127550000D03*
X186600000Y-132450000D03*
X183400000Y-132450000D03*
%TD*%
%TO.C,D43*%
X166600000Y-87550000D03*
X163400000Y-87550000D03*
X166600000Y-92450000D03*
X163400000Y-92450000D03*
%TD*%
%TO.C,D54*%
X173400000Y-92450000D03*
X176600000Y-92450000D03*
X173400000Y-87550000D03*
X176600000Y-87550000D03*
%TD*%
%TO.C,D64*%
X186600000Y-137550000D03*
X183400000Y-137550000D03*
X186600000Y-142450000D03*
X183400000Y-142450000D03*
%TD*%
%TO.C,D44*%
X163400000Y-102450000D03*
X166600000Y-102450000D03*
X163400000Y-97550000D03*
X166600000Y-97550000D03*
%TD*%
%TO.C,D55*%
X176600000Y-77550000D03*
X173400000Y-77550000D03*
X176600000Y-82450000D03*
X173400000Y-82450000D03*
%TD*%
%TO.C,D45*%
X166600000Y-107550000D03*
X163400000Y-107550000D03*
X166600000Y-112450000D03*
X163400000Y-112450000D03*
%TD*%
%TO.C,D56*%
X173400000Y-72450000D03*
X176600000Y-72450000D03*
X173400000Y-67550000D03*
X176600000Y-67550000D03*
%TD*%
%TO.C,D46*%
X163400000Y-122450000D03*
X166600000Y-122450000D03*
X163400000Y-117550000D03*
X166600000Y-117550000D03*
%TD*%
%TO.C,D57*%
X183400000Y-72450000D03*
X186600000Y-72450000D03*
X183400000Y-67550000D03*
X186600000Y-67550000D03*
%TD*%
%TO.C,D47*%
X166600000Y-127550000D03*
X163400000Y-127550000D03*
X166600000Y-132450000D03*
X163400000Y-132450000D03*
%TD*%
%TO.C,D58*%
X186600000Y-77550000D03*
X183400000Y-77550000D03*
X186600000Y-82450000D03*
X183400000Y-82450000D03*
%TD*%
%TO.C,D48*%
X163400000Y-142450000D03*
X166600000Y-142450000D03*
X163400000Y-137550000D03*
X166600000Y-137550000D03*
%TD*%
%TO.C,D59*%
X183400000Y-92450000D03*
X186600000Y-92450000D03*
X183400000Y-87550000D03*
X186600000Y-87550000D03*
%TD*%
%TO.C,D49*%
X173400000Y-142450000D03*
X176600000Y-142450000D03*
X173400000Y-137550000D03*
X176600000Y-137550000D03*
%TD*%
%TO.C,D60*%
X186600000Y-97550000D03*
X183400000Y-97550000D03*
X186600000Y-102450000D03*
X183400000Y-102450000D03*
%TD*%
%TO.C,D50*%
X176600000Y-127550000D03*
X173400000Y-127550000D03*
X176600000Y-132450000D03*
X173400000Y-132450000D03*
%TD*%
D12*
%TO.C,H1*%
X105000000Y-60000000D03*
D11*
X107400000Y-60000000D03*
X106697056Y-61697056D03*
X105000000Y-62400000D03*
X103302944Y-61697056D03*
X102600000Y-60000000D03*
X103302944Y-58302944D03*
X105000000Y-57600000D03*
X106697056Y-58302944D03*
%TD*%
D12*
%TO.C,H2*%
X195000000Y-60000000D03*
D11*
X197400000Y-60000000D03*
X196697056Y-61697056D03*
X195000000Y-62400000D03*
X193302944Y-61697056D03*
X192600000Y-60000000D03*
X193302944Y-58302944D03*
X195000000Y-57600000D03*
X196697056Y-58302944D03*
%TD*%
%TO.C,H4*%
X106697056Y-148302944D03*
X105000000Y-147600000D03*
X103302944Y-148302944D03*
X102600000Y-150000000D03*
X103302944Y-151697056D03*
X105000000Y-152400000D03*
X106697056Y-151697056D03*
X107400000Y-150000000D03*
D12*
X105000000Y-150000000D03*
%TD*%
%TO.C,C59*%
G36*
G01*
X181281250Y-93275000D02*
X180718750Y-93275000D01*
G75*
G02*
X180475000Y-93031250I0J243750D01*
G01*
X180475000Y-92543750D01*
G75*
G02*
X180718750Y-92300000I243750J0D01*
G01*
X181281250Y-92300000D01*
G75*
G02*
X181525000Y-92543750I0J-243750D01*
G01*
X181525000Y-93031250D01*
G75*
G02*
X181281250Y-93275000I-243750J0D01*
G01*
G37*
G36*
G01*
X181281250Y-91700000D02*
X180718750Y-91700000D01*
G75*
G02*
X180475000Y-91456250I0J243750D01*
G01*
X180475000Y-90968750D01*
G75*
G02*
X180718750Y-90725000I243750J0D01*
G01*
X181281250Y-90725000D01*
G75*
G02*
X181525000Y-90968750I0J-243750D01*
G01*
X181525000Y-91456250D01*
G75*
G02*
X181281250Y-91700000I-243750J0D01*
G01*
G37*
%TD*%
%TO.C,C60*%
G36*
G01*
X181281250Y-101700000D02*
X180718750Y-101700000D01*
G75*
G02*
X180475000Y-101456250I0J243750D01*
G01*
X180475000Y-100968750D01*
G75*
G02*
X180718750Y-100725000I243750J0D01*
G01*
X181281250Y-100725000D01*
G75*
G02*
X181525000Y-100968750I0J-243750D01*
G01*
X181525000Y-101456250D01*
G75*
G02*
X181281250Y-101700000I-243750J0D01*
G01*
G37*
G36*
G01*
X181281250Y-103275000D02*
X180718750Y-103275000D01*
G75*
G02*
X180475000Y-103031250I0J243750D01*
G01*
X180475000Y-102543750D01*
G75*
G02*
X180718750Y-102300000I243750J0D01*
G01*
X181281250Y-102300000D01*
G75*
G02*
X181525000Y-102543750I0J-243750D01*
G01*
X181525000Y-103031250D01*
G75*
G02*
X181281250Y-103275000I-243750J0D01*
G01*
G37*
%TD*%
%TO.C,C43*%
G36*
G01*
X161281250Y-93275000D02*
X160718750Y-93275000D01*
G75*
G02*
X160475000Y-93031250I0J243750D01*
G01*
X160475000Y-92543750D01*
G75*
G02*
X160718750Y-92300000I243750J0D01*
G01*
X161281250Y-92300000D01*
G75*
G02*
X161525000Y-92543750I0J-243750D01*
G01*
X161525000Y-93031250D01*
G75*
G02*
X161281250Y-93275000I-243750J0D01*
G01*
G37*
G36*
G01*
X161281250Y-91700000D02*
X160718750Y-91700000D01*
G75*
G02*
X160475000Y-91456250I0J243750D01*
G01*
X160475000Y-90968750D01*
G75*
G02*
X160718750Y-90725000I243750J0D01*
G01*
X161281250Y-90725000D01*
G75*
G02*
X161525000Y-90968750I0J-243750D01*
G01*
X161525000Y-91456250D01*
G75*
G02*
X161281250Y-91700000I-243750J0D01*
G01*
G37*
%TD*%
%TO.C,J1*%
G36*
G01*
X130760294Y-140900000D02*
X129239706Y-140900000D01*
G75*
G02*
X128975000Y-140635294I0J264706D01*
G01*
X128975000Y-139364706D01*
G75*
G02*
X129239706Y-139100000I264706J0D01*
G01*
X130760294Y-139100000D01*
G75*
G02*
X131025000Y-139364706I0J-264706D01*
G01*
X131025000Y-140635294D01*
G75*
G02*
X130760294Y-140900000I-264706J0D01*
G01*
G37*
D14*
X130000000Y-137500000D03*
X130000000Y-135000000D03*
X130000000Y-132500000D03*
%TD*%
M02*
