%TF.GenerationSoftware,KiCad,Pcbnew,(5.1.6)-1*%
%TF.CreationDate,2020-12-06T00:26:17+01:00*%
%TF.ProjectId,04_La_Plaque_LEDS,30345f4c-615f-4506-9c61-7175655f4c45,rev?*%
%TF.SameCoordinates,Original*%
%TF.FileFunction,Copper,L2,Bot*%
%TF.FilePolarity,Positive*%
%FSLAX46Y46*%
G04 Gerber Fmt 4.6, Leading zero omitted, Abs format (unit mm)*
G04 Created by KiCad (PCBNEW (5.1.6)-1) date 2020-12-06 00:26:17*
%MOMM*%
%LPD*%
G01*
G04 APERTURE LIST*
%TA.AperFunction,Profile*%
%ADD10C,0.150000*%
%TD*%
%TA.AperFunction,ComponentPad*%
%ADD11C,0.800000*%
%TD*%
%TA.AperFunction,ComponentPad*%
%ADD12C,6.400000*%
%TD*%
%TA.AperFunction,ComponentPad*%
%ADD13O,1.950000X1.700000*%
%TD*%
%TA.AperFunction,ViaPad*%
%ADD14C,1.000000*%
%TD*%
%TA.AperFunction,Conductor*%
%ADD15C,0.500000*%
%TD*%
%TA.AperFunction,Conductor*%
%ADD16C,0.254000*%
%TD*%
G04 APERTURE END LIST*
D10*
X195000000Y-55000000D02*
G75*
G02*
X200000000Y-60000000I0J-5000000D01*
G01*
X200000000Y-150000000D02*
G75*
G02*
X195000000Y-155000000I-5000000J0D01*
G01*
X105000000Y-155000000D02*
G75*
G02*
X100000000Y-150000000I0J5000000D01*
G01*
X100000000Y-60000000D02*
G75*
G02*
X105000000Y-55000000I5000000J0D01*
G01*
X100000000Y-150000000D02*
X100000000Y-60000000D01*
X195000000Y-155000000D02*
X105000000Y-155000000D01*
X200000000Y-60000000D02*
X200000000Y-150000000D01*
X105000000Y-55000000D02*
X195000000Y-55000000D01*
D11*
%TO.P,H3,1*%
%TO.N,GND*%
X196697056Y-148302944D03*
X195000000Y-147600000D03*
X193302944Y-148302944D03*
X192600000Y-150000000D03*
X193302944Y-151697056D03*
X195000000Y-152400000D03*
X196697056Y-151697056D03*
X197400000Y-150000000D03*
D12*
X195000000Y-150000000D03*
%TD*%
%TO.P,H1,1*%
%TO.N,GND*%
X105000000Y-60000000D03*
D11*
X107400000Y-60000000D03*
X106697056Y-61697056D03*
X105000000Y-62400000D03*
X103302944Y-61697056D03*
X102600000Y-60000000D03*
X103302944Y-58302944D03*
X105000000Y-57600000D03*
X106697056Y-58302944D03*
%TD*%
D12*
%TO.P,H2,1*%
%TO.N,GND*%
X195000000Y-60000000D03*
D11*
X197400000Y-60000000D03*
X196697056Y-61697056D03*
X195000000Y-62400000D03*
X193302944Y-61697056D03*
X192600000Y-60000000D03*
X193302944Y-58302944D03*
X195000000Y-57600000D03*
X196697056Y-58302944D03*
%TD*%
%TO.P,H4,1*%
%TO.N,GND*%
X106697056Y-148302944D03*
X105000000Y-147600000D03*
X103302944Y-148302944D03*
X102600000Y-150000000D03*
X103302944Y-151697056D03*
X105000000Y-152400000D03*
X106697056Y-151697056D03*
X107400000Y-150000000D03*
D12*
X105000000Y-150000000D03*
%TD*%
%TO.P,J1,1*%
%TO.N,back0*%
%TA.AperFunction,ComponentPad*%
G36*
G01*
X130725000Y-140850000D02*
X129275000Y-140850000D01*
G75*
G02*
X129025000Y-140600000I0J250000D01*
G01*
X129025000Y-139400000D01*
G75*
G02*
X129275000Y-139150000I250000J0D01*
G01*
X130725000Y-139150000D01*
G75*
G02*
X130975000Y-139400000I0J-250000D01*
G01*
X130975000Y-140600000D01*
G75*
G02*
X130725000Y-140850000I-250000J0D01*
G01*
G37*
%TD.AperFunction*%
D13*
%TO.P,J1,2*%
%TO.N,S0*%
X130000000Y-137500000D03*
%TO.P,J1,3*%
%TO.N,+5V*%
X130000000Y-135000000D03*
%TO.P,J1,4*%
%TO.N,GND*%
X130000000Y-132500000D03*
%TD*%
D14*
%TO.N,GND*%
X105000000Y-65000000D03*
X105000000Y-70000000D03*
X105000000Y-75000000D03*
X105000000Y-80000000D03*
X105000000Y-85000000D03*
X105000000Y-90000000D03*
X105000000Y-95000000D03*
X105000000Y-105000000D03*
X105000000Y-110000000D03*
X105000000Y-115000000D03*
X105000000Y-120000000D03*
X105000000Y-130000000D03*
X105000000Y-135000000D03*
X105000000Y-140000000D03*
X105000000Y-145000000D03*
X110000000Y-60000000D03*
X115000000Y-60000000D03*
X120000000Y-60000000D03*
X125000000Y-60000000D03*
X130000000Y-60000000D03*
X135000000Y-60000000D03*
X140000000Y-60000000D03*
X145000000Y-60000000D03*
X150000000Y-60000000D03*
X155000000Y-60000000D03*
X160000000Y-60000000D03*
X170000000Y-60000000D03*
X175000000Y-60000000D03*
X180000000Y-60000000D03*
X185000000Y-60000000D03*
X190000000Y-60000000D03*
X195000000Y-65000000D03*
X195000000Y-70000000D03*
X195000000Y-75000000D03*
X195000000Y-80000000D03*
X195000000Y-85000000D03*
X195000000Y-90000000D03*
X195000000Y-95000000D03*
X195000000Y-100000000D03*
X195000000Y-105000000D03*
X195000000Y-110000000D03*
X195000000Y-115000000D03*
X195000000Y-120000000D03*
X195000000Y-125000000D03*
X195000000Y-130000000D03*
X195000000Y-135000000D03*
X195000000Y-140000000D03*
X195000000Y-145000000D03*
X110000000Y-150000000D03*
X115000000Y-150000000D03*
X125000000Y-150000000D03*
X130000000Y-150000000D03*
X135000000Y-150000000D03*
X145000000Y-150000000D03*
X150000000Y-150000000D03*
X160000000Y-150000000D03*
X165000000Y-150000000D03*
X170000000Y-150000000D03*
X175000000Y-150000000D03*
X180000000Y-150000000D03*
X185000000Y-150000000D03*
X190000000Y-150000000D03*
X105000000Y-100000000D03*
X105000000Y-125000000D03*
X165000000Y-60000000D03*
X120000000Y-150000000D03*
X140000000Y-150000000D03*
X155000000Y-150000000D03*
X113000000Y-74000000D03*
X113000000Y-84000000D03*
X113000000Y-94000000D03*
X113000000Y-104000000D03*
X113000000Y-114000000D03*
X113000000Y-124000000D03*
X127000000Y-66000000D03*
X127000000Y-76000000D03*
X127000000Y-136000000D03*
X113000000Y-134000000D03*
X113000000Y-144000000D03*
X127000000Y-86000000D03*
X127000000Y-96000000D03*
X127000000Y-106000000D03*
X127000000Y-116000000D03*
X127000000Y-126000000D03*
X118000000Y-70000000D03*
X122000000Y-70000000D03*
X118000000Y-80000000D03*
X122000000Y-80000000D03*
X118000000Y-90000000D03*
X121500000Y-90000000D03*
X118000000Y-140000000D03*
X122000000Y-140000000D03*
X118000000Y-100000000D03*
X122000000Y-100000000D03*
X118000000Y-110000000D03*
X122000000Y-110000000D03*
X118000000Y-120000000D03*
X122000000Y-120000000D03*
X118000000Y-130000000D03*
X122000000Y-130000000D03*
X133000000Y-74000000D03*
X133000000Y-143950000D03*
X133000000Y-134000000D03*
X133000000Y-124000000D03*
X133000000Y-114000000D03*
X133000000Y-104000000D03*
X133000000Y-94000000D03*
X133000000Y-84000000D03*
X147000000Y-136000000D03*
X147000000Y-66000000D03*
X147000000Y-76000000D03*
X147000000Y-86000000D03*
X147000000Y-96000000D03*
X147000000Y-106000000D03*
X147000000Y-116000000D03*
X147000000Y-126000000D03*
X153000000Y-144000000D03*
X153000000Y-74000000D03*
X153000000Y-84000000D03*
X153000000Y-94000000D03*
X153000000Y-104000000D03*
X153000000Y-114000000D03*
X153000000Y-124000000D03*
X153000000Y-134000000D03*
X167000000Y-66000000D03*
X167000000Y-136000000D03*
X167000000Y-126000000D03*
X167000000Y-116000000D03*
X167000000Y-106000000D03*
X167000000Y-96000000D03*
X167000000Y-86000000D03*
X167000000Y-76000000D03*
X173000000Y-144000000D03*
X173000000Y-134000000D03*
X173000000Y-124000000D03*
X173000000Y-114000000D03*
X173000000Y-104000000D03*
X173000000Y-94000000D03*
X173000000Y-84000000D03*
X173000000Y-74000000D03*
X187000000Y-136000000D03*
X187000000Y-126000000D03*
X187000000Y-116000000D03*
X187000000Y-106000000D03*
X187000000Y-96000000D03*
X187000000Y-86000000D03*
X187000000Y-76000000D03*
X187000000Y-66000000D03*
X138000000Y-70000000D03*
X142000000Y-70000000D03*
X138000000Y-80000000D03*
X142000000Y-80000000D03*
X138000000Y-90000000D03*
X138000000Y-100000000D03*
X138000000Y-110000000D03*
X138000000Y-120000000D03*
X138000000Y-130000000D03*
X138000000Y-140000000D03*
X142000000Y-140000000D03*
X142000000Y-130000000D03*
X142000000Y-120000000D03*
X142000000Y-110000000D03*
X142000000Y-100000000D03*
X142000000Y-90000000D03*
X158000000Y-70000000D03*
X162000000Y-70000000D03*
X158000000Y-90000000D03*
X162000000Y-90000000D03*
X158000000Y-140000000D03*
X162000000Y-140000000D03*
X158000000Y-130000000D03*
X162000000Y-130000000D03*
X158000000Y-120000000D03*
X162000000Y-120000000D03*
X158000000Y-110000000D03*
X162000000Y-110000000D03*
X158000000Y-100000000D03*
X162000000Y-100000000D03*
X158000000Y-80000000D03*
X162000000Y-80000000D03*
X178000000Y-70000000D03*
X182000000Y-140000000D03*
X178000000Y-140000000D03*
X182000000Y-70000000D03*
X178000000Y-80000000D03*
X182000000Y-80000000D03*
X178000000Y-90000000D03*
X182000000Y-90000000D03*
X178000000Y-100000000D03*
X182000000Y-100000000D03*
X178000000Y-110000000D03*
X182000000Y-110000000D03*
X178000000Y-120000000D03*
X182000000Y-120000000D03*
X178000000Y-130000000D03*
X182000000Y-130000000D03*
X141500000Y-145500000D03*
X161500000Y-145500000D03*
X181500000Y-145500000D03*
%TO.N,+5V*%
X121000000Y-136500000D03*
%TO.N,S0*%
X116500000Y-144500000D03*
%TO.N,back0*%
X130000000Y-147000000D03*
%TD*%
D15*
%TO.N,GND*%
X195000000Y-150000000D02*
X185000000Y-150000000D01*
X105000000Y-60000000D02*
X105000000Y-136000000D01*
X105000000Y-136000000D02*
X105000000Y-150000000D01*
X195000000Y-60000000D02*
X195000000Y-98500000D01*
X195000000Y-98500000D02*
X195000000Y-150000000D01*
X181000000Y-60000000D02*
X182000000Y-60000000D01*
X175250000Y-60250000D02*
X175000000Y-60000000D01*
X113000000Y-144500000D02*
X113000000Y-150000000D01*
X117000000Y-150000000D02*
X113000000Y-150000000D01*
X113000000Y-150000000D02*
X105000000Y-150000000D01*
X113000000Y-84000000D02*
X113000000Y-74000000D01*
X113000000Y-94000000D02*
X113000000Y-84000000D01*
X113000000Y-104000000D02*
X113000000Y-94000000D01*
X113000000Y-114000000D02*
X113000000Y-104000000D01*
X113000000Y-124000000D02*
X113000000Y-114000000D01*
X127000000Y-76000000D02*
X127000000Y-66000000D01*
X127000000Y-66000000D02*
X127000000Y-60000000D01*
X127000000Y-60000000D02*
X133000000Y-60000000D01*
X133000000Y-150000000D02*
X127000000Y-150000000D01*
X113000000Y-134500000D02*
X113000000Y-134000000D01*
X113000000Y-134000000D02*
X113000000Y-124000000D01*
X113000000Y-144500000D02*
X113000000Y-144000000D01*
X113000000Y-144000000D02*
X113000000Y-134500000D01*
X127000000Y-76000000D02*
X127000000Y-86000000D01*
X127000000Y-86000000D02*
X127000000Y-96000000D01*
X127000000Y-96000000D02*
X127000000Y-106000000D01*
X127000000Y-106000000D02*
X127000000Y-116000000D01*
X127000000Y-116000000D02*
X127000000Y-125500000D01*
X127000000Y-125500000D02*
X127000000Y-126000000D01*
X127000000Y-126000000D02*
X127000000Y-136000000D01*
X118000000Y-70000000D02*
X118000000Y-60000000D01*
X117000000Y-60000000D02*
X118000000Y-60000000D01*
X118000000Y-60000000D02*
X127000000Y-60000000D01*
X118000000Y-70000000D02*
X122000000Y-70000000D01*
X118000000Y-80000000D02*
X118000000Y-70000000D01*
X122000000Y-80000000D02*
X118000000Y-80000000D01*
X113000000Y-74000000D02*
X113000000Y-60000000D01*
X105000000Y-60000000D02*
X113000000Y-60000000D01*
X113000000Y-60000000D02*
X117000000Y-60000000D01*
X118000000Y-90000000D02*
X118000000Y-80000000D01*
X121500000Y-90000000D02*
X118000000Y-90000000D01*
X118000000Y-140000000D02*
X118000000Y-139500000D01*
X122000000Y-140000000D02*
X118000000Y-140000000D01*
X118000000Y-100000000D02*
X118000000Y-90000000D01*
X122000000Y-100000000D02*
X118000000Y-100000000D01*
X118000000Y-110000000D02*
X118000000Y-100000000D01*
X122000000Y-110000000D02*
X118000000Y-110000000D01*
X118000000Y-120000000D02*
X118000000Y-110000000D01*
X122000000Y-120000000D02*
X118000000Y-120000000D01*
X118000000Y-139500000D02*
X118000000Y-130000000D01*
X118000000Y-130000000D02*
X118000000Y-120000000D01*
X122000000Y-130000000D02*
X118000000Y-130000000D01*
X127000000Y-150000000D02*
X118000000Y-150000000D01*
X118000000Y-150000000D02*
X117000000Y-150000000D01*
X133000000Y-104500000D02*
X133000000Y-114000000D01*
X133000000Y-114000000D02*
X133000000Y-124000000D01*
X133000000Y-104000000D02*
X133000000Y-104500000D01*
X133000000Y-94000000D02*
X133000000Y-104000000D01*
X133000000Y-74000000D02*
X133000000Y-84000000D01*
X133000000Y-84000000D02*
X133000000Y-94000000D01*
X133000000Y-74000000D02*
X133000000Y-60000000D01*
X147000000Y-66000000D02*
X147000000Y-60000000D01*
X147000000Y-60000000D02*
X149000000Y-60000000D01*
X147000000Y-76000000D02*
X147000000Y-66000000D01*
X147000000Y-96000000D02*
X147000000Y-86000000D01*
X147000000Y-86000000D02*
X147000000Y-76000000D01*
X147000000Y-106000000D02*
X147000000Y-96000000D01*
X147000000Y-119500000D02*
X147000000Y-116000000D01*
X147000000Y-116000000D02*
X147000000Y-106000000D01*
X147000000Y-136000000D02*
X147000000Y-126000000D01*
X147000000Y-126000000D02*
X147000000Y-119500000D01*
X147000000Y-136000000D02*
X147000000Y-150000000D01*
X149000000Y-150000000D02*
X147000000Y-150000000D01*
X147000000Y-150000000D02*
X146500000Y-150000000D01*
X149000000Y-60000000D02*
X153000000Y-60000000D01*
X153000000Y-75000000D02*
X153000000Y-74000000D01*
X153000000Y-74000000D02*
X153000000Y-60000000D01*
X153000000Y-84000000D02*
X153000000Y-75000000D01*
X153000000Y-94000000D02*
X153000000Y-84000000D01*
X153000000Y-104000000D02*
X153000000Y-94000000D01*
X153000000Y-114000000D02*
X153000000Y-104000000D01*
X153000000Y-124000000D02*
X153000000Y-114000000D01*
X153000000Y-144000000D02*
X153000000Y-134000000D01*
X153000000Y-134000000D02*
X153000000Y-124000000D01*
X153000000Y-144000000D02*
X153000000Y-150000000D01*
X153000000Y-150000000D02*
X149000000Y-150000000D01*
X167000000Y-66000000D02*
X167000000Y-60000000D01*
X171500000Y-150000000D02*
X167000000Y-150000000D01*
X167000000Y-150000000D02*
X161500000Y-150000000D01*
X167000000Y-136000000D02*
X167000000Y-150000000D01*
X167000000Y-126000000D02*
X167000000Y-136000000D01*
X167000000Y-116000000D02*
X167000000Y-126000000D01*
X167000000Y-106000000D02*
X167000000Y-116000000D01*
X167000000Y-96000000D02*
X167000000Y-106000000D01*
X167000000Y-86000000D02*
X167000000Y-96000000D01*
X167000000Y-66000000D02*
X167000000Y-76000000D01*
X167000000Y-76000000D02*
X167000000Y-86000000D01*
X167000000Y-60000000D02*
X173000000Y-60000000D01*
X173000000Y-144000000D02*
X173000000Y-150000000D01*
X178000000Y-150000000D02*
X173000000Y-150000000D01*
X173000000Y-150000000D02*
X171500000Y-150000000D01*
X173000000Y-144000000D02*
X173000000Y-134000000D01*
X173000000Y-134000000D02*
X173000000Y-124000000D01*
X173000000Y-124000000D02*
X173000000Y-114000000D01*
X173000000Y-114000000D02*
X173000000Y-104000000D01*
X173000000Y-104000000D02*
X173000000Y-94000000D01*
X173000000Y-94000000D02*
X173000000Y-84000000D01*
X173000000Y-84000000D02*
X173000000Y-74000000D01*
X173000000Y-74000000D02*
X173000000Y-60000000D01*
X187000000Y-136000000D02*
X187000000Y-150000000D01*
X195000000Y-150000000D02*
X187000000Y-150000000D01*
X182000000Y-60000000D02*
X187000000Y-60000000D01*
X187000000Y-60000000D02*
X195000000Y-60000000D01*
X187000000Y-136000000D02*
X187000000Y-126000000D01*
X187000000Y-126000000D02*
X187000000Y-116000000D01*
X187000000Y-116000000D02*
X187000000Y-106000000D01*
X187000000Y-106000000D02*
X187000000Y-96000000D01*
X187000000Y-96000000D02*
X187000000Y-86000000D01*
X187000000Y-86000000D02*
X187000000Y-76000000D01*
X187000000Y-76000000D02*
X187000000Y-66000000D01*
X187000000Y-66000000D02*
X187000000Y-60000000D01*
X138000000Y-70000000D02*
X138000000Y-60000000D01*
X133000000Y-60000000D02*
X138000000Y-60000000D01*
X138000000Y-60000000D02*
X147000000Y-60000000D01*
X138000000Y-150000000D02*
X133000000Y-150000000D01*
X142000000Y-70000000D02*
X138000000Y-70000000D01*
X138000000Y-70000000D02*
X138000000Y-80000000D01*
X142000000Y-80000000D02*
X138000000Y-80000000D01*
X138000000Y-80000000D02*
X138000000Y-90000000D01*
X138000000Y-90000000D02*
X138000000Y-100000000D01*
X138000000Y-100000000D02*
X138000000Y-110000000D01*
X138000000Y-110000000D02*
X138000000Y-120000000D01*
X138000000Y-120000000D02*
X138000000Y-130000000D01*
X138000000Y-130000000D02*
X138000000Y-140000000D01*
X142000000Y-140000000D02*
X138000000Y-140000000D01*
X142000000Y-130000000D02*
X138000000Y-130000000D01*
X142000000Y-120000000D02*
X138000000Y-120000000D01*
X142000000Y-110000000D02*
X138000000Y-110000000D01*
X142000000Y-100000000D02*
X138000000Y-100000000D01*
X142000000Y-90000000D02*
X138000000Y-90000000D01*
X153000000Y-60000000D02*
X158000000Y-60000000D01*
X158000000Y-70000000D02*
X158000000Y-60000000D01*
X158000000Y-60000000D02*
X167000000Y-60000000D01*
X162000000Y-70000000D02*
X158000000Y-70000000D01*
X162000000Y-90000000D02*
X158000000Y-90000000D01*
X161500000Y-150000000D02*
X158000000Y-150000000D01*
X158000000Y-150000000D02*
X153000000Y-150000000D01*
X162000000Y-140000000D02*
X158000000Y-140000000D01*
X158000000Y-130000000D02*
X158000000Y-150000000D01*
X162000000Y-130000000D02*
X158000000Y-130000000D01*
X158000000Y-120000000D02*
X158000000Y-130000000D01*
X162000000Y-120000000D02*
X158000000Y-120000000D01*
X158000000Y-110000000D02*
X158000000Y-120000000D01*
X162000000Y-110000000D02*
X158000000Y-110000000D01*
X158000000Y-90000000D02*
X158000000Y-100000000D01*
X158000000Y-100000000D02*
X158000000Y-110000000D01*
X162000000Y-100000000D02*
X158000000Y-100000000D01*
X158000000Y-70000000D02*
X158000000Y-80000000D01*
X158000000Y-80000000D02*
X158000000Y-90000000D01*
X162000000Y-80000000D02*
X158000000Y-80000000D01*
X178000000Y-70000000D02*
X178000000Y-60000000D01*
X173000000Y-60000000D02*
X178000000Y-60000000D01*
X178000000Y-60000000D02*
X181000000Y-60000000D01*
X182000000Y-140000000D02*
X178000000Y-140000000D01*
X178000000Y-140000000D02*
X178000000Y-150000000D01*
X182000000Y-70000000D02*
X178000000Y-70000000D01*
X178000000Y-80000000D02*
X178000000Y-70000000D01*
X182000000Y-80000000D02*
X178000000Y-80000000D01*
X178000000Y-90000000D02*
X178000000Y-80000000D01*
X182000000Y-90000000D02*
X178000000Y-90000000D01*
X178000000Y-100000000D02*
X178000000Y-90000000D01*
X182000000Y-100000000D02*
X178000000Y-100000000D01*
X178000000Y-110000000D02*
X178000000Y-100000000D01*
X182000000Y-110000000D02*
X178000000Y-110000000D01*
X178000000Y-120000000D02*
X178000000Y-110000000D01*
X182000000Y-120000000D02*
X178000000Y-120000000D01*
X178000000Y-140000000D02*
X178000000Y-130000000D01*
X178000000Y-130000000D02*
X178000000Y-120000000D01*
X182000000Y-130000000D02*
X178000000Y-130000000D01*
X141500000Y-150000000D02*
X141500000Y-145500000D01*
X141500000Y-150000000D02*
X138000000Y-150000000D01*
X146500000Y-150000000D02*
X141500000Y-150000000D01*
X161500000Y-150000000D02*
X161500000Y-145500000D01*
X181500000Y-150000000D02*
X181500000Y-145500000D01*
X181500000Y-150000000D02*
X178000000Y-150000000D01*
X187000000Y-150000000D02*
X181500000Y-150000000D01*
X130000000Y-132500000D02*
X133000000Y-132500000D01*
X133000000Y-124000000D02*
X133000000Y-132500000D01*
X133000000Y-132500000D02*
X133000000Y-134000000D01*
X137950000Y-143950000D02*
X138000000Y-144000000D01*
X133000000Y-143950000D02*
X137950000Y-143950000D01*
X138000000Y-140000000D02*
X138000000Y-144000000D01*
X138000000Y-144000000D02*
X138000000Y-150000000D01*
%TO.N,+5V*%
X123500000Y-136500000D02*
X121000000Y-136500000D01*
X127500000Y-137500000D02*
X124500000Y-137500000D01*
X124500000Y-137500000D02*
X123500000Y-136500000D01*
X130000000Y-135000000D02*
X127500000Y-137500000D01*
%TO.N,S0*%
X130000000Y-137500000D02*
X129000000Y-137500000D01*
X122000000Y-144500000D02*
X120500000Y-144500000D01*
X129000000Y-137500000D02*
X122000000Y-144500000D01*
X120500000Y-144500000D02*
X116500000Y-144500000D01*
%TO.N,back0*%
X130000000Y-147000000D02*
X130000000Y-140000000D01*
%TD*%
D16*
%TO.N,GND*%
G36*
X195759192Y-55780578D02*
G01*
X196494389Y-55981705D01*
X197182351Y-56309846D01*
X197801331Y-56754628D01*
X198331761Y-57301988D01*
X198756884Y-57934639D01*
X199063251Y-58632561D01*
X199242499Y-59379183D01*
X199290000Y-60026030D01*
X199290001Y-149968370D01*
X199219422Y-150759193D01*
X199018295Y-151494389D01*
X198690152Y-152182355D01*
X198245374Y-152801328D01*
X197698012Y-153331761D01*
X197065362Y-153756883D01*
X196367439Y-154063251D01*
X195620819Y-154242499D01*
X194973970Y-154290000D01*
X105031618Y-154290000D01*
X104240807Y-154219422D01*
X103505611Y-154018295D01*
X102817645Y-153690152D01*
X102198672Y-153245374D01*
X101671020Y-152700881D01*
X102478724Y-152700881D01*
X102838912Y-153190548D01*
X103502882Y-153550849D01*
X104224385Y-153774694D01*
X104975695Y-153853480D01*
X105727938Y-153784178D01*
X106452208Y-153569452D01*
X107120670Y-153217555D01*
X107161088Y-153190548D01*
X107521276Y-152700881D01*
X192478724Y-152700881D01*
X192838912Y-153190548D01*
X193502882Y-153550849D01*
X194224385Y-153774694D01*
X194975695Y-153853480D01*
X195727938Y-153784178D01*
X196452208Y-153569452D01*
X197120670Y-153217555D01*
X197161088Y-153190548D01*
X197521276Y-152700881D01*
X195000000Y-150179605D01*
X192478724Y-152700881D01*
X107521276Y-152700881D01*
X105000000Y-150179605D01*
X102478724Y-152700881D01*
X101671020Y-152700881D01*
X101668239Y-152698012D01*
X101243117Y-152065362D01*
X100936749Y-151367439D01*
X100757501Y-150620819D01*
X100710127Y-149975695D01*
X101146520Y-149975695D01*
X101215822Y-150727938D01*
X101430548Y-151452208D01*
X101782445Y-152120670D01*
X101809452Y-152161088D01*
X102299119Y-152521276D01*
X104820395Y-150000000D01*
X105179605Y-150000000D01*
X107700881Y-152521276D01*
X108190548Y-152161088D01*
X108550849Y-151497118D01*
X108774694Y-150775615D01*
X108853480Y-150024305D01*
X108849002Y-149975695D01*
X191146520Y-149975695D01*
X191215822Y-150727938D01*
X191430548Y-151452208D01*
X191782445Y-152120670D01*
X191809452Y-152161088D01*
X192299119Y-152521276D01*
X194820395Y-150000000D01*
X195179605Y-150000000D01*
X197700881Y-152521276D01*
X198190548Y-152161088D01*
X198550849Y-151497118D01*
X198774694Y-150775615D01*
X198853480Y-150024305D01*
X198784178Y-149272062D01*
X198569452Y-148547792D01*
X198217555Y-147879330D01*
X198190548Y-147838912D01*
X197700881Y-147478724D01*
X195179605Y-150000000D01*
X194820395Y-150000000D01*
X192299119Y-147478724D01*
X191809452Y-147838912D01*
X191449151Y-148502882D01*
X191225306Y-149224385D01*
X191146520Y-149975695D01*
X108849002Y-149975695D01*
X108784178Y-149272062D01*
X108569452Y-148547792D01*
X108217555Y-147879330D01*
X108190548Y-147838912D01*
X107700881Y-147478724D01*
X105179605Y-150000000D01*
X104820395Y-150000000D01*
X102299119Y-147478724D01*
X101809452Y-147838912D01*
X101449151Y-148502882D01*
X101225306Y-149224385D01*
X101146520Y-149975695D01*
X100710127Y-149975695D01*
X100710000Y-149973970D01*
X100710000Y-147299119D01*
X102478724Y-147299119D01*
X105000000Y-149820395D01*
X107521276Y-147299119D01*
X107161088Y-146809452D01*
X106497118Y-146449151D01*
X105775615Y-146225306D01*
X105024305Y-146146520D01*
X104272062Y-146215822D01*
X103547792Y-146430548D01*
X102879330Y-146782445D01*
X102838912Y-146809452D01*
X102478724Y-147299119D01*
X100710000Y-147299119D01*
X100710000Y-144388212D01*
X115365000Y-144388212D01*
X115365000Y-144611788D01*
X115408617Y-144831067D01*
X115494176Y-145037624D01*
X115618388Y-145223520D01*
X115776480Y-145381612D01*
X115962376Y-145505824D01*
X116168933Y-145591383D01*
X116388212Y-145635000D01*
X116611788Y-145635000D01*
X116831067Y-145591383D01*
X117037624Y-145505824D01*
X117218450Y-145385000D01*
X121956531Y-145385000D01*
X122000000Y-145389281D01*
X122043469Y-145385000D01*
X122043477Y-145385000D01*
X122173490Y-145372195D01*
X122340313Y-145321589D01*
X122494059Y-145239411D01*
X122628817Y-145128817D01*
X122656534Y-145095044D01*
X128390790Y-139360789D01*
X128386928Y-139400000D01*
X128386928Y-140600000D01*
X128403992Y-140773254D01*
X128454528Y-140939850D01*
X128536595Y-141093386D01*
X128647038Y-141227962D01*
X128781614Y-141338405D01*
X128935150Y-141420472D01*
X129101746Y-141471008D01*
X129115001Y-141472313D01*
X129115000Y-146281550D01*
X128994176Y-146462376D01*
X128908617Y-146668933D01*
X128865000Y-146888212D01*
X128865000Y-147111788D01*
X128908617Y-147331067D01*
X128994176Y-147537624D01*
X129118388Y-147723520D01*
X129276480Y-147881612D01*
X129462376Y-148005824D01*
X129668933Y-148091383D01*
X129888212Y-148135000D01*
X130111788Y-148135000D01*
X130331067Y-148091383D01*
X130537624Y-148005824D01*
X130723520Y-147881612D01*
X130881612Y-147723520D01*
X131005824Y-147537624D01*
X131091383Y-147331067D01*
X131097737Y-147299119D01*
X192478724Y-147299119D01*
X195000000Y-149820395D01*
X197521276Y-147299119D01*
X197161088Y-146809452D01*
X196497118Y-146449151D01*
X195775615Y-146225306D01*
X195024305Y-146146520D01*
X194272062Y-146215822D01*
X193547792Y-146430548D01*
X192879330Y-146782445D01*
X192838912Y-146809452D01*
X192478724Y-147299119D01*
X131097737Y-147299119D01*
X131135000Y-147111788D01*
X131135000Y-146888212D01*
X131091383Y-146668933D01*
X131005824Y-146462376D01*
X130885000Y-146281550D01*
X130885000Y-141472313D01*
X130898254Y-141471008D01*
X131064850Y-141420472D01*
X131218386Y-141338405D01*
X131352962Y-141227962D01*
X131463405Y-141093386D01*
X131545472Y-140939850D01*
X131596008Y-140773254D01*
X131613072Y-140600000D01*
X131613072Y-139400000D01*
X131596008Y-139226746D01*
X131545472Y-139060150D01*
X131463405Y-138906614D01*
X131352962Y-138772038D01*
X131218386Y-138661595D01*
X131116663Y-138607223D01*
X131180134Y-138555134D01*
X131365706Y-138329014D01*
X131503599Y-138071034D01*
X131588513Y-137791111D01*
X131617185Y-137500000D01*
X131588513Y-137208889D01*
X131503599Y-136928966D01*
X131365706Y-136670986D01*
X131180134Y-136444866D01*
X130954014Y-136259294D01*
X130936626Y-136250000D01*
X130954014Y-136240706D01*
X131180134Y-136055134D01*
X131365706Y-135829014D01*
X131503599Y-135571034D01*
X131588513Y-135291111D01*
X131617185Y-135000000D01*
X131588513Y-134708889D01*
X131503599Y-134428966D01*
X131365706Y-134170986D01*
X131180134Y-133944866D01*
X130954014Y-133759294D01*
X130928278Y-133745538D01*
X131134429Y-133589049D01*
X131327496Y-133371193D01*
X131474352Y-133119858D01*
X131566476Y-132856890D01*
X131445155Y-132627000D01*
X130127000Y-132627000D01*
X130127000Y-132647000D01*
X129873000Y-132647000D01*
X129873000Y-132627000D01*
X128554845Y-132627000D01*
X128433524Y-132856890D01*
X128525648Y-133119858D01*
X128672504Y-133371193D01*
X128865571Y-133589049D01*
X129071722Y-133745538D01*
X129045986Y-133759294D01*
X128819866Y-133944866D01*
X128634294Y-134170986D01*
X128496401Y-134428966D01*
X128411487Y-134708889D01*
X128382815Y-135000000D01*
X128411487Y-135291111D01*
X128422152Y-135326269D01*
X127133422Y-136615000D01*
X124866579Y-136615000D01*
X124156534Y-135904956D01*
X124128817Y-135871183D01*
X123994059Y-135760589D01*
X123840313Y-135678411D01*
X123673490Y-135627805D01*
X123543477Y-135615000D01*
X123543469Y-135615000D01*
X123500000Y-135610719D01*
X123456531Y-135615000D01*
X121718450Y-135615000D01*
X121537624Y-135494176D01*
X121331067Y-135408617D01*
X121111788Y-135365000D01*
X120888212Y-135365000D01*
X120668933Y-135408617D01*
X120462376Y-135494176D01*
X120276480Y-135618388D01*
X120118388Y-135776480D01*
X119994176Y-135962376D01*
X119908617Y-136168933D01*
X119865000Y-136388212D01*
X119865000Y-136611788D01*
X119908617Y-136831067D01*
X119994176Y-137037624D01*
X120118388Y-137223520D01*
X120276480Y-137381612D01*
X120462376Y-137505824D01*
X120668933Y-137591383D01*
X120888212Y-137635000D01*
X121111788Y-137635000D01*
X121331067Y-137591383D01*
X121537624Y-137505824D01*
X121718450Y-137385000D01*
X123133422Y-137385000D01*
X123843468Y-138095047D01*
X123871183Y-138128817D01*
X123904951Y-138156530D01*
X123904953Y-138156532D01*
X124005941Y-138239411D01*
X124159686Y-138321589D01*
X124326510Y-138372195D01*
X124456523Y-138385000D01*
X124456531Y-138385000D01*
X124500000Y-138389281D01*
X124543469Y-138385000D01*
X126863421Y-138385000D01*
X121633422Y-143615000D01*
X117218450Y-143615000D01*
X117037624Y-143494176D01*
X116831067Y-143408617D01*
X116611788Y-143365000D01*
X116388212Y-143365000D01*
X116168933Y-143408617D01*
X115962376Y-143494176D01*
X115776480Y-143618388D01*
X115618388Y-143776480D01*
X115494176Y-143962376D01*
X115408617Y-144168933D01*
X115365000Y-144388212D01*
X100710000Y-144388212D01*
X100710000Y-132143110D01*
X128433524Y-132143110D01*
X128554845Y-132373000D01*
X129873000Y-132373000D01*
X129873000Y-131173835D01*
X130127000Y-131173835D01*
X130127000Y-132373000D01*
X131445155Y-132373000D01*
X131566476Y-132143110D01*
X131474352Y-131880142D01*
X131327496Y-131628807D01*
X131134429Y-131410951D01*
X130902570Y-131234947D01*
X130640830Y-131107558D01*
X130359267Y-131033680D01*
X130127000Y-131173835D01*
X129873000Y-131173835D01*
X129640733Y-131033680D01*
X129359170Y-131107558D01*
X129097430Y-131234947D01*
X128865571Y-131410951D01*
X128672504Y-131628807D01*
X128525648Y-131880142D01*
X128433524Y-132143110D01*
X100710000Y-132143110D01*
X100710000Y-62700881D01*
X102478724Y-62700881D01*
X102838912Y-63190548D01*
X103502882Y-63550849D01*
X104224385Y-63774694D01*
X104975695Y-63853480D01*
X105727938Y-63784178D01*
X106452208Y-63569452D01*
X107120670Y-63217555D01*
X107161088Y-63190548D01*
X107521276Y-62700881D01*
X192478724Y-62700881D01*
X192838912Y-63190548D01*
X193502882Y-63550849D01*
X194224385Y-63774694D01*
X194975695Y-63853480D01*
X195727938Y-63784178D01*
X196452208Y-63569452D01*
X197120670Y-63217555D01*
X197161088Y-63190548D01*
X197521276Y-62700881D01*
X195000000Y-60179605D01*
X192478724Y-62700881D01*
X107521276Y-62700881D01*
X105000000Y-60179605D01*
X102478724Y-62700881D01*
X100710000Y-62700881D01*
X100710000Y-60031618D01*
X100714991Y-59975695D01*
X101146520Y-59975695D01*
X101215822Y-60727938D01*
X101430548Y-61452208D01*
X101782445Y-62120670D01*
X101809452Y-62161088D01*
X102299119Y-62521276D01*
X104820395Y-60000000D01*
X105179605Y-60000000D01*
X107700881Y-62521276D01*
X108190548Y-62161088D01*
X108550849Y-61497118D01*
X108774694Y-60775615D01*
X108853480Y-60024305D01*
X108849002Y-59975695D01*
X191146520Y-59975695D01*
X191215822Y-60727938D01*
X191430548Y-61452208D01*
X191782445Y-62120670D01*
X191809452Y-62161088D01*
X192299119Y-62521276D01*
X194820395Y-60000000D01*
X195179605Y-60000000D01*
X197700881Y-62521276D01*
X198190548Y-62161088D01*
X198550849Y-61497118D01*
X198774694Y-60775615D01*
X198853480Y-60024305D01*
X198784178Y-59272062D01*
X198569452Y-58547792D01*
X198217555Y-57879330D01*
X198190548Y-57838912D01*
X197700881Y-57478724D01*
X195179605Y-60000000D01*
X194820395Y-60000000D01*
X192299119Y-57478724D01*
X191809452Y-57838912D01*
X191449151Y-58502882D01*
X191225306Y-59224385D01*
X191146520Y-59975695D01*
X108849002Y-59975695D01*
X108784178Y-59272062D01*
X108569452Y-58547792D01*
X108217555Y-57879330D01*
X108190548Y-57838912D01*
X107700881Y-57478724D01*
X105179605Y-60000000D01*
X104820395Y-60000000D01*
X102299119Y-57478724D01*
X101809452Y-57838912D01*
X101449151Y-58502882D01*
X101225306Y-59224385D01*
X101146520Y-59975695D01*
X100714991Y-59975695D01*
X100780578Y-59240808D01*
X100981705Y-58505611D01*
X101309846Y-57817649D01*
X101682447Y-57299119D01*
X102478724Y-57299119D01*
X105000000Y-59820395D01*
X107521276Y-57299119D01*
X192478724Y-57299119D01*
X195000000Y-59820395D01*
X197521276Y-57299119D01*
X197161088Y-56809452D01*
X196497118Y-56449151D01*
X195775615Y-56225306D01*
X195024305Y-56146520D01*
X194272062Y-56215822D01*
X193547792Y-56430548D01*
X192879330Y-56782445D01*
X192838912Y-56809452D01*
X192478724Y-57299119D01*
X107521276Y-57299119D01*
X107161088Y-56809452D01*
X106497118Y-56449151D01*
X105775615Y-56225306D01*
X105024305Y-56146520D01*
X104272062Y-56215822D01*
X103547792Y-56430548D01*
X102879330Y-56782445D01*
X102838912Y-56809452D01*
X102478724Y-57299119D01*
X101682447Y-57299119D01*
X101754628Y-57198669D01*
X102301988Y-56668239D01*
X102934639Y-56243116D01*
X103632561Y-55936749D01*
X104379183Y-55757501D01*
X105026030Y-55710000D01*
X194968382Y-55710000D01*
X195759192Y-55780578D01*
G37*
X195759192Y-55780578D02*
X196494389Y-55981705D01*
X197182351Y-56309846D01*
X197801331Y-56754628D01*
X198331761Y-57301988D01*
X198756884Y-57934639D01*
X199063251Y-58632561D01*
X199242499Y-59379183D01*
X199290000Y-60026030D01*
X199290001Y-149968370D01*
X199219422Y-150759193D01*
X199018295Y-151494389D01*
X198690152Y-152182355D01*
X198245374Y-152801328D01*
X197698012Y-153331761D01*
X197065362Y-153756883D01*
X196367439Y-154063251D01*
X195620819Y-154242499D01*
X194973970Y-154290000D01*
X105031618Y-154290000D01*
X104240807Y-154219422D01*
X103505611Y-154018295D01*
X102817645Y-153690152D01*
X102198672Y-153245374D01*
X101671020Y-152700881D01*
X102478724Y-152700881D01*
X102838912Y-153190548D01*
X103502882Y-153550849D01*
X104224385Y-153774694D01*
X104975695Y-153853480D01*
X105727938Y-153784178D01*
X106452208Y-153569452D01*
X107120670Y-153217555D01*
X107161088Y-153190548D01*
X107521276Y-152700881D01*
X192478724Y-152700881D01*
X192838912Y-153190548D01*
X193502882Y-153550849D01*
X194224385Y-153774694D01*
X194975695Y-153853480D01*
X195727938Y-153784178D01*
X196452208Y-153569452D01*
X197120670Y-153217555D01*
X197161088Y-153190548D01*
X197521276Y-152700881D01*
X195000000Y-150179605D01*
X192478724Y-152700881D01*
X107521276Y-152700881D01*
X105000000Y-150179605D01*
X102478724Y-152700881D01*
X101671020Y-152700881D01*
X101668239Y-152698012D01*
X101243117Y-152065362D01*
X100936749Y-151367439D01*
X100757501Y-150620819D01*
X100710127Y-149975695D01*
X101146520Y-149975695D01*
X101215822Y-150727938D01*
X101430548Y-151452208D01*
X101782445Y-152120670D01*
X101809452Y-152161088D01*
X102299119Y-152521276D01*
X104820395Y-150000000D01*
X105179605Y-150000000D01*
X107700881Y-152521276D01*
X108190548Y-152161088D01*
X108550849Y-151497118D01*
X108774694Y-150775615D01*
X108853480Y-150024305D01*
X108849002Y-149975695D01*
X191146520Y-149975695D01*
X191215822Y-150727938D01*
X191430548Y-151452208D01*
X191782445Y-152120670D01*
X191809452Y-152161088D01*
X192299119Y-152521276D01*
X194820395Y-150000000D01*
X195179605Y-150000000D01*
X197700881Y-152521276D01*
X198190548Y-152161088D01*
X198550849Y-151497118D01*
X198774694Y-150775615D01*
X198853480Y-150024305D01*
X198784178Y-149272062D01*
X198569452Y-148547792D01*
X198217555Y-147879330D01*
X198190548Y-147838912D01*
X197700881Y-147478724D01*
X195179605Y-150000000D01*
X194820395Y-150000000D01*
X192299119Y-147478724D01*
X191809452Y-147838912D01*
X191449151Y-148502882D01*
X191225306Y-149224385D01*
X191146520Y-149975695D01*
X108849002Y-149975695D01*
X108784178Y-149272062D01*
X108569452Y-148547792D01*
X108217555Y-147879330D01*
X108190548Y-147838912D01*
X107700881Y-147478724D01*
X105179605Y-150000000D01*
X104820395Y-150000000D01*
X102299119Y-147478724D01*
X101809452Y-147838912D01*
X101449151Y-148502882D01*
X101225306Y-149224385D01*
X101146520Y-149975695D01*
X100710127Y-149975695D01*
X100710000Y-149973970D01*
X100710000Y-147299119D01*
X102478724Y-147299119D01*
X105000000Y-149820395D01*
X107521276Y-147299119D01*
X107161088Y-146809452D01*
X106497118Y-146449151D01*
X105775615Y-146225306D01*
X105024305Y-146146520D01*
X104272062Y-146215822D01*
X103547792Y-146430548D01*
X102879330Y-146782445D01*
X102838912Y-146809452D01*
X102478724Y-147299119D01*
X100710000Y-147299119D01*
X100710000Y-144388212D01*
X115365000Y-144388212D01*
X115365000Y-144611788D01*
X115408617Y-144831067D01*
X115494176Y-145037624D01*
X115618388Y-145223520D01*
X115776480Y-145381612D01*
X115962376Y-145505824D01*
X116168933Y-145591383D01*
X116388212Y-145635000D01*
X116611788Y-145635000D01*
X116831067Y-145591383D01*
X117037624Y-145505824D01*
X117218450Y-145385000D01*
X121956531Y-145385000D01*
X122000000Y-145389281D01*
X122043469Y-145385000D01*
X122043477Y-145385000D01*
X122173490Y-145372195D01*
X122340313Y-145321589D01*
X122494059Y-145239411D01*
X122628817Y-145128817D01*
X122656534Y-145095044D01*
X128390790Y-139360789D01*
X128386928Y-139400000D01*
X128386928Y-140600000D01*
X128403992Y-140773254D01*
X128454528Y-140939850D01*
X128536595Y-141093386D01*
X128647038Y-141227962D01*
X128781614Y-141338405D01*
X128935150Y-141420472D01*
X129101746Y-141471008D01*
X129115001Y-141472313D01*
X129115000Y-146281550D01*
X128994176Y-146462376D01*
X128908617Y-146668933D01*
X128865000Y-146888212D01*
X128865000Y-147111788D01*
X128908617Y-147331067D01*
X128994176Y-147537624D01*
X129118388Y-147723520D01*
X129276480Y-147881612D01*
X129462376Y-148005824D01*
X129668933Y-148091383D01*
X129888212Y-148135000D01*
X130111788Y-148135000D01*
X130331067Y-148091383D01*
X130537624Y-148005824D01*
X130723520Y-147881612D01*
X130881612Y-147723520D01*
X131005824Y-147537624D01*
X131091383Y-147331067D01*
X131097737Y-147299119D01*
X192478724Y-147299119D01*
X195000000Y-149820395D01*
X197521276Y-147299119D01*
X197161088Y-146809452D01*
X196497118Y-146449151D01*
X195775615Y-146225306D01*
X195024305Y-146146520D01*
X194272062Y-146215822D01*
X193547792Y-146430548D01*
X192879330Y-146782445D01*
X192838912Y-146809452D01*
X192478724Y-147299119D01*
X131097737Y-147299119D01*
X131135000Y-147111788D01*
X131135000Y-146888212D01*
X131091383Y-146668933D01*
X131005824Y-146462376D01*
X130885000Y-146281550D01*
X130885000Y-141472313D01*
X130898254Y-141471008D01*
X131064850Y-141420472D01*
X131218386Y-141338405D01*
X131352962Y-141227962D01*
X131463405Y-141093386D01*
X131545472Y-140939850D01*
X131596008Y-140773254D01*
X131613072Y-140600000D01*
X131613072Y-139400000D01*
X131596008Y-139226746D01*
X131545472Y-139060150D01*
X131463405Y-138906614D01*
X131352962Y-138772038D01*
X131218386Y-138661595D01*
X131116663Y-138607223D01*
X131180134Y-138555134D01*
X131365706Y-138329014D01*
X131503599Y-138071034D01*
X131588513Y-137791111D01*
X131617185Y-137500000D01*
X131588513Y-137208889D01*
X131503599Y-136928966D01*
X131365706Y-136670986D01*
X131180134Y-136444866D01*
X130954014Y-136259294D01*
X130936626Y-136250000D01*
X130954014Y-136240706D01*
X131180134Y-136055134D01*
X131365706Y-135829014D01*
X131503599Y-135571034D01*
X131588513Y-135291111D01*
X131617185Y-135000000D01*
X131588513Y-134708889D01*
X131503599Y-134428966D01*
X131365706Y-134170986D01*
X131180134Y-133944866D01*
X130954014Y-133759294D01*
X130928278Y-133745538D01*
X131134429Y-133589049D01*
X131327496Y-133371193D01*
X131474352Y-133119858D01*
X131566476Y-132856890D01*
X131445155Y-132627000D01*
X130127000Y-132627000D01*
X130127000Y-132647000D01*
X129873000Y-132647000D01*
X129873000Y-132627000D01*
X128554845Y-132627000D01*
X128433524Y-132856890D01*
X128525648Y-133119858D01*
X128672504Y-133371193D01*
X128865571Y-133589049D01*
X129071722Y-133745538D01*
X129045986Y-133759294D01*
X128819866Y-133944866D01*
X128634294Y-134170986D01*
X128496401Y-134428966D01*
X128411487Y-134708889D01*
X128382815Y-135000000D01*
X128411487Y-135291111D01*
X128422152Y-135326269D01*
X127133422Y-136615000D01*
X124866579Y-136615000D01*
X124156534Y-135904956D01*
X124128817Y-135871183D01*
X123994059Y-135760589D01*
X123840313Y-135678411D01*
X123673490Y-135627805D01*
X123543477Y-135615000D01*
X123543469Y-135615000D01*
X123500000Y-135610719D01*
X123456531Y-135615000D01*
X121718450Y-135615000D01*
X121537624Y-135494176D01*
X121331067Y-135408617D01*
X121111788Y-135365000D01*
X120888212Y-135365000D01*
X120668933Y-135408617D01*
X120462376Y-135494176D01*
X120276480Y-135618388D01*
X120118388Y-135776480D01*
X119994176Y-135962376D01*
X119908617Y-136168933D01*
X119865000Y-136388212D01*
X119865000Y-136611788D01*
X119908617Y-136831067D01*
X119994176Y-137037624D01*
X120118388Y-137223520D01*
X120276480Y-137381612D01*
X120462376Y-137505824D01*
X120668933Y-137591383D01*
X120888212Y-137635000D01*
X121111788Y-137635000D01*
X121331067Y-137591383D01*
X121537624Y-137505824D01*
X121718450Y-137385000D01*
X123133422Y-137385000D01*
X123843468Y-138095047D01*
X123871183Y-138128817D01*
X123904951Y-138156530D01*
X123904953Y-138156532D01*
X124005941Y-138239411D01*
X124159686Y-138321589D01*
X124326510Y-138372195D01*
X124456523Y-138385000D01*
X124456531Y-138385000D01*
X124500000Y-138389281D01*
X124543469Y-138385000D01*
X126863421Y-138385000D01*
X121633422Y-143615000D01*
X117218450Y-143615000D01*
X117037624Y-143494176D01*
X116831067Y-143408617D01*
X116611788Y-143365000D01*
X116388212Y-143365000D01*
X116168933Y-143408617D01*
X115962376Y-143494176D01*
X115776480Y-143618388D01*
X115618388Y-143776480D01*
X115494176Y-143962376D01*
X115408617Y-144168933D01*
X115365000Y-144388212D01*
X100710000Y-144388212D01*
X100710000Y-132143110D01*
X128433524Y-132143110D01*
X128554845Y-132373000D01*
X129873000Y-132373000D01*
X129873000Y-131173835D01*
X130127000Y-131173835D01*
X130127000Y-132373000D01*
X131445155Y-132373000D01*
X131566476Y-132143110D01*
X131474352Y-131880142D01*
X131327496Y-131628807D01*
X131134429Y-131410951D01*
X130902570Y-131234947D01*
X130640830Y-131107558D01*
X130359267Y-131033680D01*
X130127000Y-131173835D01*
X129873000Y-131173835D01*
X129640733Y-131033680D01*
X129359170Y-131107558D01*
X129097430Y-131234947D01*
X128865571Y-131410951D01*
X128672504Y-131628807D01*
X128525648Y-131880142D01*
X128433524Y-132143110D01*
X100710000Y-132143110D01*
X100710000Y-62700881D01*
X102478724Y-62700881D01*
X102838912Y-63190548D01*
X103502882Y-63550849D01*
X104224385Y-63774694D01*
X104975695Y-63853480D01*
X105727938Y-63784178D01*
X106452208Y-63569452D01*
X107120670Y-63217555D01*
X107161088Y-63190548D01*
X107521276Y-62700881D01*
X192478724Y-62700881D01*
X192838912Y-63190548D01*
X193502882Y-63550849D01*
X194224385Y-63774694D01*
X194975695Y-63853480D01*
X195727938Y-63784178D01*
X196452208Y-63569452D01*
X197120670Y-63217555D01*
X197161088Y-63190548D01*
X197521276Y-62700881D01*
X195000000Y-60179605D01*
X192478724Y-62700881D01*
X107521276Y-62700881D01*
X105000000Y-60179605D01*
X102478724Y-62700881D01*
X100710000Y-62700881D01*
X100710000Y-60031618D01*
X100714991Y-59975695D01*
X101146520Y-59975695D01*
X101215822Y-60727938D01*
X101430548Y-61452208D01*
X101782445Y-62120670D01*
X101809452Y-62161088D01*
X102299119Y-62521276D01*
X104820395Y-60000000D01*
X105179605Y-60000000D01*
X107700881Y-62521276D01*
X108190548Y-62161088D01*
X108550849Y-61497118D01*
X108774694Y-60775615D01*
X108853480Y-60024305D01*
X108849002Y-59975695D01*
X191146520Y-59975695D01*
X191215822Y-60727938D01*
X191430548Y-61452208D01*
X191782445Y-62120670D01*
X191809452Y-62161088D01*
X192299119Y-62521276D01*
X194820395Y-60000000D01*
X195179605Y-60000000D01*
X197700881Y-62521276D01*
X198190548Y-62161088D01*
X198550849Y-61497118D01*
X198774694Y-60775615D01*
X198853480Y-60024305D01*
X198784178Y-59272062D01*
X198569452Y-58547792D01*
X198217555Y-57879330D01*
X198190548Y-57838912D01*
X197700881Y-57478724D01*
X195179605Y-60000000D01*
X194820395Y-60000000D01*
X192299119Y-57478724D01*
X191809452Y-57838912D01*
X191449151Y-58502882D01*
X191225306Y-59224385D01*
X191146520Y-59975695D01*
X108849002Y-59975695D01*
X108784178Y-59272062D01*
X108569452Y-58547792D01*
X108217555Y-57879330D01*
X108190548Y-57838912D01*
X107700881Y-57478724D01*
X105179605Y-60000000D01*
X104820395Y-60000000D01*
X102299119Y-57478724D01*
X101809452Y-57838912D01*
X101449151Y-58502882D01*
X101225306Y-59224385D01*
X101146520Y-59975695D01*
X100714991Y-59975695D01*
X100780578Y-59240808D01*
X100981705Y-58505611D01*
X101309846Y-57817649D01*
X101682447Y-57299119D01*
X102478724Y-57299119D01*
X105000000Y-59820395D01*
X107521276Y-57299119D01*
X192478724Y-57299119D01*
X195000000Y-59820395D01*
X197521276Y-57299119D01*
X197161088Y-56809452D01*
X196497118Y-56449151D01*
X195775615Y-56225306D01*
X195024305Y-56146520D01*
X194272062Y-56215822D01*
X193547792Y-56430548D01*
X192879330Y-56782445D01*
X192838912Y-56809452D01*
X192478724Y-57299119D01*
X107521276Y-57299119D01*
X107161088Y-56809452D01*
X106497118Y-56449151D01*
X105775615Y-56225306D01*
X105024305Y-56146520D01*
X104272062Y-56215822D01*
X103547792Y-56430548D01*
X102879330Y-56782445D01*
X102838912Y-56809452D01*
X102478724Y-57299119D01*
X101682447Y-57299119D01*
X101754628Y-57198669D01*
X102301988Y-56668239D01*
X102934639Y-56243116D01*
X103632561Y-55936749D01*
X104379183Y-55757501D01*
X105026030Y-55710000D01*
X194968382Y-55710000D01*
X195759192Y-55780578D01*
%TD*%
M02*
