%TF.GenerationSoftware,KiCad,Pcbnew,(5.1.6)-1*%
%TF.CreationDate,2020-12-06T17:28:13+01:00*%
%TF.ProjectId,04_La_Plaque_LEDS,30345f4c-615f-4506-9c61-7175655f4c45,rev?*%
%TF.SameCoordinates,Original*%
%TF.FileFunction,Legend,Bot*%
%TF.FilePolarity,Positive*%
%FSLAX46Y46*%
G04 Gerber Fmt 4.6, Leading zero omitted, Abs format (unit mm)*
G04 Created by KiCad (PCBNEW (5.1.6)-1) date 2020-12-06 17:28:13*
%MOMM*%
%LPD*%
G01*
G04 APERTURE LIST*
%ADD10C,0.120000*%
%TA.AperFunction,Profile*%
%ADD11C,0.150000*%
%TD*%
%ADD12C,0.300000*%
%ADD13C,0.100000*%
%ADD14C,0.150000*%
G04 APERTURE END LIST*
D10*
X110000000Y-65000000D02*
X110000000Y-145000000D01*
X190000000Y-65000000D02*
X110000000Y-65000000D01*
X190000000Y-145000000D02*
X190000000Y-65000000D01*
X110000000Y-145000000D02*
X190000000Y-145000000D01*
D11*
X195000000Y-55000000D02*
G75*
G02*
X200000000Y-60000000I0J-5000000D01*
G01*
X200000000Y-150000000D02*
G75*
G02*
X195000000Y-155000000I-5000000J0D01*
G01*
X105000000Y-155000000D02*
G75*
G02*
X100000000Y-150000000I0J5000000D01*
G01*
X100000000Y-60000000D02*
G75*
G02*
X105000000Y-55000000I5000000J0D01*
G01*
X100000000Y-150000000D02*
X100000000Y-60000000D01*
X195000000Y-155000000D02*
X105000000Y-155000000D01*
X200000000Y-60000000D02*
X200000000Y-150000000D01*
X105000000Y-55000000D02*
X195000000Y-55000000D01*
D12*
X150071428Y-136035714D02*
X150071428Y-136750000D01*
X151571428Y-136750000D01*
X150071428Y-134892857D02*
X150857142Y-134892857D01*
X151000000Y-134964285D01*
X151071428Y-135107142D01*
X151071428Y-135392857D01*
X151000000Y-135535714D01*
X150142857Y-134892857D02*
X150071428Y-135035714D01*
X150071428Y-135392857D01*
X150142857Y-135535714D01*
X150285714Y-135607142D01*
X150428571Y-135607142D01*
X150571428Y-135535714D01*
X150642857Y-135392857D01*
X150642857Y-135035714D01*
X150714285Y-134892857D01*
X149928571Y-134535714D02*
X149928571Y-133392857D01*
X151071428Y-133035714D02*
X149571428Y-133035714D01*
X151000000Y-133035714D02*
X151071428Y-132892857D01*
X151071428Y-132607142D01*
X151000000Y-132464285D01*
X150928571Y-132392857D01*
X150785714Y-132321428D01*
X150357142Y-132321428D01*
X150214285Y-132392857D01*
X150142857Y-132464285D01*
X150071428Y-132607142D01*
X150071428Y-132892857D01*
X150142857Y-133035714D01*
X150071428Y-131464285D02*
X150142857Y-131607142D01*
X150285714Y-131678571D01*
X151571428Y-131678571D01*
X150071428Y-130250000D02*
X150857142Y-130250000D01*
X151000000Y-130321428D01*
X151071428Y-130464285D01*
X151071428Y-130750000D01*
X151000000Y-130892857D01*
X150142857Y-130250000D02*
X150071428Y-130392857D01*
X150071428Y-130750000D01*
X150142857Y-130892857D01*
X150285714Y-130964285D01*
X150428571Y-130964285D01*
X150571428Y-130892857D01*
X150642857Y-130750000D01*
X150642857Y-130392857D01*
X150714285Y-130250000D01*
X151071428Y-128892857D02*
X149571428Y-128892857D01*
X150142857Y-128892857D02*
X150071428Y-129035714D01*
X150071428Y-129321428D01*
X150142857Y-129464285D01*
X150214285Y-129535714D01*
X150357142Y-129607142D01*
X150785714Y-129607142D01*
X150928571Y-129535714D01*
X151000000Y-129464285D01*
X151071428Y-129321428D01*
X151071428Y-129035714D01*
X151000000Y-128892857D01*
X151071428Y-127535714D02*
X150071428Y-127535714D01*
X151071428Y-128178571D02*
X150285714Y-128178571D01*
X150142857Y-128107142D01*
X150071428Y-127964285D01*
X150071428Y-127750000D01*
X150142857Y-127607142D01*
X150214285Y-127535714D01*
X150142857Y-126250000D02*
X150071428Y-126392857D01*
X150071428Y-126678571D01*
X150142857Y-126821428D01*
X150285714Y-126892857D01*
X150857142Y-126892857D01*
X151000000Y-126821428D01*
X151071428Y-126678571D01*
X151071428Y-126392857D01*
X151000000Y-126250000D01*
X150857142Y-126178571D01*
X150714285Y-126178571D01*
X150571428Y-126892857D01*
X149928571Y-125892857D02*
X149928571Y-124750000D01*
X150071428Y-123678571D02*
X150071428Y-124392857D01*
X151571428Y-124392857D01*
X150857142Y-123178571D02*
X150857142Y-122678571D01*
X150071428Y-122464285D02*
X150071428Y-123178571D01*
X151571428Y-123178571D01*
X151571428Y-122464285D01*
X150071428Y-121821428D02*
X151571428Y-121821428D01*
X151571428Y-121464285D01*
X151500000Y-121250000D01*
X151357142Y-121107142D01*
X151214285Y-121035714D01*
X150928571Y-120964285D01*
X150714285Y-120964285D01*
X150428571Y-121035714D01*
X150285714Y-121107142D01*
X150142857Y-121250000D01*
X150071428Y-121464285D01*
X150071428Y-121821428D01*
X150142857Y-120392857D02*
X150071428Y-120178571D01*
X150071428Y-119821428D01*
X150142857Y-119678571D01*
X150214285Y-119607142D01*
X150357142Y-119535714D01*
X150500000Y-119535714D01*
X150642857Y-119607142D01*
X150714285Y-119678571D01*
X150785714Y-119821428D01*
X150857142Y-120107142D01*
X150928571Y-120250000D01*
X151000000Y-120321428D01*
X151142857Y-120392857D01*
X151285714Y-120392857D01*
X151428571Y-120321428D01*
X151500000Y-120250000D01*
X151571428Y-120107142D01*
X151571428Y-119750000D01*
X151500000Y-119535714D01*
X151428571Y-116678571D02*
X151500000Y-116607142D01*
X151571428Y-116464285D01*
X151571428Y-116107142D01*
X151500000Y-115964285D01*
X151428571Y-115892857D01*
X151285714Y-115821428D01*
X151142857Y-115821428D01*
X150928571Y-115892857D01*
X150071428Y-116750000D01*
X150071428Y-115821428D01*
X151571428Y-114892857D02*
X151571428Y-114750000D01*
X151500000Y-114607142D01*
X151428571Y-114535714D01*
X151285714Y-114464285D01*
X151000000Y-114392857D01*
X150642857Y-114392857D01*
X150357142Y-114464285D01*
X150214285Y-114535714D01*
X150142857Y-114607142D01*
X150071428Y-114750000D01*
X150071428Y-114892857D01*
X150142857Y-115035714D01*
X150214285Y-115107142D01*
X150357142Y-115178571D01*
X150642857Y-115250000D01*
X151000000Y-115250000D01*
X151285714Y-115178571D01*
X151428571Y-115107142D01*
X151500000Y-115035714D01*
X151571428Y-114892857D01*
X151428571Y-113821428D02*
X151500000Y-113750000D01*
X151571428Y-113607142D01*
X151571428Y-113250000D01*
X151500000Y-113107142D01*
X151428571Y-113035714D01*
X151285714Y-112964285D01*
X151142857Y-112964285D01*
X150928571Y-113035714D01*
X150071428Y-113892857D01*
X150071428Y-112964285D01*
X151571428Y-112035714D02*
X151571428Y-111892857D01*
X151500000Y-111750000D01*
X151428571Y-111678571D01*
X151285714Y-111607142D01*
X151000000Y-111535714D01*
X150642857Y-111535714D01*
X150357142Y-111607142D01*
X150214285Y-111678571D01*
X150142857Y-111750000D01*
X150071428Y-111892857D01*
X150071428Y-112035714D01*
X150142857Y-112178571D01*
X150214285Y-112250000D01*
X150357142Y-112321428D01*
X150642857Y-112392857D01*
X151000000Y-112392857D01*
X151285714Y-112321428D01*
X151428571Y-112250000D01*
X151500000Y-112178571D01*
X151571428Y-112035714D01*
X151642857Y-109821428D02*
X149714285Y-111107142D01*
X150071428Y-108535714D02*
X150071428Y-109392857D01*
X150071428Y-108964285D02*
X151571428Y-108964285D01*
X151357142Y-109107142D01*
X151214285Y-109250000D01*
X151142857Y-109392857D01*
X151428571Y-107964285D02*
X151500000Y-107892857D01*
X151571428Y-107750000D01*
X151571428Y-107392857D01*
X151500000Y-107250000D01*
X151428571Y-107178571D01*
X151285714Y-107107142D01*
X151142857Y-107107142D01*
X150928571Y-107178571D01*
X150071428Y-108035714D01*
X150071428Y-107107142D01*
X151642857Y-105392857D02*
X149714285Y-106678571D01*
X151571428Y-104607142D02*
X151571428Y-104464285D01*
X151500000Y-104321428D01*
X151428571Y-104250000D01*
X151285714Y-104178571D01*
X151000000Y-104107142D01*
X150642857Y-104107142D01*
X150357142Y-104178571D01*
X150214285Y-104250000D01*
X150142857Y-104321428D01*
X150071428Y-104464285D01*
X150071428Y-104607142D01*
X150142857Y-104750000D01*
X150214285Y-104821428D01*
X150357142Y-104892857D01*
X150642857Y-104964285D01*
X151000000Y-104964285D01*
X151285714Y-104892857D01*
X151428571Y-104821428D01*
X151500000Y-104750000D01*
X151571428Y-104607142D01*
X151571428Y-102821428D02*
X151571428Y-103107142D01*
X151500000Y-103250000D01*
X151428571Y-103321428D01*
X151214285Y-103464285D01*
X150928571Y-103535714D01*
X150357142Y-103535714D01*
X150214285Y-103464285D01*
X150142857Y-103392857D01*
X150071428Y-103250000D01*
X150071428Y-102964285D01*
X150142857Y-102821428D01*
X150214285Y-102749999D01*
X150357142Y-102678571D01*
X150714285Y-102678571D01*
X150857142Y-102749999D01*
X150928571Y-102821428D01*
X151000000Y-102964285D01*
X151000000Y-103250000D01*
X150928571Y-103392857D01*
X150857142Y-103464285D01*
X150714285Y-103535714D01*
D13*
X123466666Y-140300000D02*
X123400000Y-140333333D01*
X123300000Y-140333333D01*
X123200000Y-140300000D01*
X123133333Y-140233333D01*
X123100000Y-140166666D01*
X123066666Y-140033333D01*
X123066666Y-139933333D01*
X123100000Y-139800000D01*
X123133333Y-139733333D01*
X123200000Y-139666666D01*
X123300000Y-139633333D01*
X123366666Y-139633333D01*
X123466666Y-139666666D01*
X123500000Y-139700000D01*
X123500000Y-139933333D01*
X123366666Y-139933333D01*
X123800000Y-139633333D02*
X123800000Y-140333333D01*
X124200000Y-139633333D01*
X124200000Y-140333333D01*
X124533333Y-139633333D02*
X124533333Y-140333333D01*
X124700000Y-140333333D01*
X124800000Y-140300000D01*
X124866666Y-140233333D01*
X124900000Y-140166666D01*
X124933333Y-140033333D01*
X124933333Y-139933333D01*
X124900000Y-139800000D01*
X124866666Y-139733333D01*
X124800000Y-139666666D01*
X124700000Y-139633333D01*
X124533333Y-139633333D01*
X123100000Y-137600000D02*
X123633333Y-137600000D01*
X123366666Y-137333333D02*
X123366666Y-137866666D01*
X124300000Y-138033333D02*
X123966666Y-138033333D01*
X123933333Y-137700000D01*
X123966666Y-137733333D01*
X124033333Y-137766666D01*
X124200000Y-137766666D01*
X124266666Y-137733333D01*
X124300000Y-137700000D01*
X124333333Y-137633333D01*
X124333333Y-137466666D01*
X124300000Y-137400000D01*
X124266666Y-137366666D01*
X124200000Y-137333333D01*
X124033333Y-137333333D01*
X123966666Y-137366666D01*
X123933333Y-137400000D01*
X124533333Y-138033333D02*
X124766666Y-137333333D01*
X125000000Y-138033333D01*
X123466666Y-135066666D02*
X123566666Y-135033333D01*
X123733333Y-135033333D01*
X123800000Y-135066666D01*
X123833333Y-135100000D01*
X123866666Y-135166666D01*
X123866666Y-135233333D01*
X123833333Y-135300000D01*
X123800000Y-135333333D01*
X123733333Y-135366666D01*
X123600000Y-135400000D01*
X123533333Y-135433333D01*
X123500000Y-135466666D01*
X123466666Y-135533333D01*
X123466666Y-135600000D01*
X123500000Y-135666666D01*
X123533333Y-135700000D01*
X123600000Y-135733333D01*
X123766666Y-135733333D01*
X123866666Y-135700000D01*
X124300000Y-135733333D02*
X124366666Y-135733333D01*
X124433333Y-135700000D01*
X124466666Y-135666666D01*
X124500000Y-135600000D01*
X124533333Y-135466666D01*
X124533333Y-135300000D01*
X124500000Y-135166666D01*
X124466666Y-135100000D01*
X124433333Y-135066666D01*
X124366666Y-135033333D01*
X124300000Y-135033333D01*
X124233333Y-135066666D01*
X124200000Y-135100000D01*
X124166666Y-135166666D01*
X124133333Y-135300000D01*
X124133333Y-135466666D01*
X124166666Y-135600000D01*
X124200000Y-135666666D01*
X124233333Y-135700000D01*
X124300000Y-135733333D01*
X122616666Y-132733333D02*
X122616666Y-133433333D01*
X122616666Y-133166666D02*
X122683333Y-133200000D01*
X122816666Y-133200000D01*
X122883333Y-133166666D01*
X122916666Y-133133333D01*
X122950000Y-133066666D01*
X122950000Y-132866666D01*
X122916666Y-132800000D01*
X122883333Y-132766666D01*
X122816666Y-132733333D01*
X122683333Y-132733333D01*
X122616666Y-132766666D01*
X123550000Y-132733333D02*
X123550000Y-133100000D01*
X123516666Y-133166666D01*
X123450000Y-133200000D01*
X123316666Y-133200000D01*
X123250000Y-133166666D01*
X123550000Y-132766666D02*
X123483333Y-132733333D01*
X123316666Y-132733333D01*
X123250000Y-132766666D01*
X123216666Y-132833333D01*
X123216666Y-132900000D01*
X123250000Y-132966666D01*
X123316666Y-133000000D01*
X123483333Y-133000000D01*
X123550000Y-133033333D01*
X124183333Y-132766666D02*
X124116666Y-132733333D01*
X123983333Y-132733333D01*
X123916666Y-132766666D01*
X123883333Y-132800000D01*
X123850000Y-132866666D01*
X123850000Y-133066666D01*
X123883333Y-133133333D01*
X123916666Y-133166666D01*
X123983333Y-133200000D01*
X124116666Y-133200000D01*
X124183333Y-133166666D01*
X124483333Y-132733333D02*
X124483333Y-133433333D01*
X124550000Y-133000000D02*
X124750000Y-132733333D01*
X124750000Y-133200000D02*
X124483333Y-132933333D01*
X125183333Y-133433333D02*
X125250000Y-133433333D01*
X125316666Y-133400000D01*
X125350000Y-133366666D01*
X125383333Y-133300000D01*
X125416666Y-133166666D01*
X125416666Y-133000000D01*
X125383333Y-132866666D01*
X125350000Y-132800000D01*
X125316666Y-132766666D01*
X125250000Y-132733333D01*
X125183333Y-132733333D01*
X125116666Y-132766666D01*
X125083333Y-132800000D01*
X125050000Y-132866666D01*
X125016666Y-133000000D01*
X125016666Y-133166666D01*
X125050000Y-133300000D01*
X125083333Y-133366666D01*
X125116666Y-133400000D01*
X125183333Y-133433333D01*
D10*
%TO.C,J1*%
X139310000Y-136250000D02*
X139310000Y-129940000D01*
X139310000Y-129940000D02*
X127590000Y-129940000D01*
X127590000Y-129940000D02*
X127590000Y-131360000D01*
X127590000Y-131360000D02*
X132090000Y-131360000D01*
X132090000Y-131360000D02*
X132090000Y-136250000D01*
X139310000Y-136250000D02*
X139310000Y-142560000D01*
X139310000Y-142560000D02*
X127590000Y-142560000D01*
X127590000Y-142560000D02*
X127590000Y-141140000D01*
X127590000Y-141140000D02*
X132090000Y-141140000D01*
X132090000Y-141140000D02*
X132090000Y-136250000D01*
X133200000Y-132250000D02*
X138700000Y-132250000D01*
X138700000Y-132250000D02*
X138700000Y-132750000D01*
X138700000Y-132750000D02*
X133200000Y-132750000D01*
X133200000Y-132750000D02*
X133200000Y-132250000D01*
X133200000Y-134750000D02*
X138700000Y-134750000D01*
X138700000Y-134750000D02*
X138700000Y-135250000D01*
X138700000Y-135250000D02*
X133200000Y-135250000D01*
X133200000Y-135250000D02*
X133200000Y-134750000D01*
X133200000Y-137250000D02*
X138700000Y-137250000D01*
X138700000Y-137250000D02*
X138700000Y-137750000D01*
X138700000Y-137750000D02*
X133200000Y-137750000D01*
X133200000Y-137750000D02*
X133200000Y-137250000D01*
X133200000Y-139750000D02*
X138700000Y-139750000D01*
X138700000Y-139750000D02*
X138700000Y-140250000D01*
X138700000Y-140250000D02*
X133200000Y-140250000D01*
X133200000Y-140250000D02*
X133200000Y-139750000D01*
X128500000Y-132500000D02*
X127900000Y-132200000D01*
X127900000Y-132200000D02*
X127900000Y-132800000D01*
X127900000Y-132800000D02*
X128500000Y-132500000D01*
%TD*%
%TO.C,J1*%
D14*
X125952380Y-135916666D02*
X126666666Y-135916666D01*
X126809523Y-135869047D01*
X126904761Y-135773809D01*
X126952380Y-135630952D01*
X126952380Y-135535714D01*
X126952380Y-136916666D02*
X126952380Y-136345238D01*
X126952380Y-136630952D02*
X125952380Y-136630952D01*
X126095238Y-136535714D01*
X126190476Y-136440476D01*
X126238095Y-136345238D01*
%TD*%
M02*
