%TF.GenerationSoftware,KiCad,Pcbnew,(5.1.6)-1*%
%TF.CreationDate,2020-12-06T17:28:13+01:00*%
%TF.ProjectId,04_La_Plaque_LEDS,30345f4c-615f-4506-9c61-7175655f4c45,rev?*%
%TF.SameCoordinates,Original*%
%TF.FileFunction,Other,Fab,Bot*%
%FSLAX46Y46*%
G04 Gerber Fmt 4.6, Leading zero omitted, Abs format (unit mm)*
G04 Created by KiCad (PCBNEW (5.1.6)-1) date 2020-12-06 17:28:13*
%MOMM*%
%LPD*%
G01*
G04 APERTURE LIST*
%TA.AperFunction,Profile*%
%ADD10C,0.150000*%
%TD*%
%ADD11C,0.100000*%
%ADD12C,0.150000*%
G04 APERTURE END LIST*
D10*
X195000000Y-55000000D02*
G75*
G02*
X200000000Y-60000000I0J-5000000D01*
G01*
X200000000Y-150000000D02*
G75*
G02*
X195000000Y-155000000I-5000000J0D01*
G01*
X105000000Y-155000000D02*
G75*
G02*
X100000000Y-150000000I0J5000000D01*
G01*
X100000000Y-60000000D02*
G75*
G02*
X105000000Y-55000000I5000000J0D01*
G01*
X100000000Y-150000000D02*
X100000000Y-60000000D01*
X195000000Y-155000000D02*
X105000000Y-155000000D01*
X200000000Y-60000000D02*
X200000000Y-150000000D01*
X105000000Y-55000000D02*
X195000000Y-55000000D01*
D11*
%TO.C,J1*%
X139200000Y-136250000D02*
X139200000Y-130050000D01*
X139200000Y-130050000D02*
X127700000Y-130050000D01*
X127700000Y-130050000D02*
X127700000Y-131250000D01*
X127700000Y-131250000D02*
X132200000Y-131250000D01*
X132200000Y-131250000D02*
X132200000Y-136250000D01*
X139200000Y-136250000D02*
X139200000Y-142450000D01*
X139200000Y-142450000D02*
X127700000Y-142450000D01*
X127700000Y-142450000D02*
X127700000Y-141250000D01*
X127700000Y-141250000D02*
X132200000Y-141250000D01*
X132200000Y-141250000D02*
X132200000Y-136250000D01*
X132200000Y-131875000D02*
X131200000Y-132500000D01*
X131200000Y-132500000D02*
X132200000Y-133125000D01*
%TD*%
%TO.C,J1*%
D12*
X140757142Y-132511904D02*
X140804761Y-132464285D01*
X140852380Y-132321428D01*
X140852380Y-132226190D01*
X140804761Y-132083333D01*
X140709523Y-131988095D01*
X140614285Y-131940476D01*
X140423809Y-131892857D01*
X140280952Y-131892857D01*
X140090476Y-131940476D01*
X139995238Y-131988095D01*
X139900000Y-132083333D01*
X139852380Y-132226190D01*
X139852380Y-132321428D01*
X139900000Y-132464285D01*
X139947619Y-132511904D01*
X140852380Y-133083333D02*
X140804761Y-132988095D01*
X140757142Y-132940476D01*
X140661904Y-132892857D01*
X140376190Y-132892857D01*
X140280952Y-132940476D01*
X140233333Y-132988095D01*
X140185714Y-133083333D01*
X140185714Y-133226190D01*
X140233333Y-133321428D01*
X140280952Y-133369047D01*
X140376190Y-133416666D01*
X140661904Y-133416666D01*
X140757142Y-133369047D01*
X140804761Y-133321428D01*
X140852380Y-133226190D01*
X140852380Y-133083333D01*
X140185714Y-133845238D02*
X140852380Y-133845238D01*
X140280952Y-133845238D02*
X140233333Y-133892857D01*
X140185714Y-133988095D01*
X140185714Y-134130952D01*
X140233333Y-134226190D01*
X140328571Y-134273809D01*
X140852380Y-134273809D01*
X140185714Y-134750000D02*
X140852380Y-134750000D01*
X140280952Y-134750000D02*
X140233333Y-134797619D01*
X140185714Y-134892857D01*
X140185714Y-135035714D01*
X140233333Y-135130952D01*
X140328571Y-135178571D01*
X140852380Y-135178571D01*
X140947619Y-135416666D02*
X140947619Y-136178571D01*
X139852380Y-136607142D02*
X139852380Y-136702380D01*
X139900000Y-136797619D01*
X139947619Y-136845238D01*
X140042857Y-136892857D01*
X140233333Y-136940476D01*
X140471428Y-136940476D01*
X140661904Y-136892857D01*
X140757142Y-136845238D01*
X140804761Y-136797619D01*
X140852380Y-136702380D01*
X140852380Y-136607142D01*
X140804761Y-136511904D01*
X140757142Y-136464285D01*
X140661904Y-136416666D01*
X140471428Y-136369047D01*
X140233333Y-136369047D01*
X140042857Y-136416666D01*
X139947619Y-136464285D01*
X139900000Y-136511904D01*
X139852380Y-136607142D01*
X140852380Y-137892857D02*
X140852380Y-137321428D01*
X140852380Y-137607142D02*
X139852380Y-137607142D01*
X139995238Y-137511904D01*
X140090476Y-137416666D01*
X140138095Y-137321428D01*
X140852380Y-138226190D02*
X140185714Y-138750000D01*
X140185714Y-138226190D02*
X140852380Y-138750000D01*
X139852380Y-139321428D02*
X139852380Y-139416666D01*
X139900000Y-139511904D01*
X139947619Y-139559523D01*
X140042857Y-139607142D01*
X140233333Y-139654761D01*
X140471428Y-139654761D01*
X140661904Y-139607142D01*
X140757142Y-139559523D01*
X140804761Y-139511904D01*
X140852380Y-139416666D01*
X140852380Y-139321428D01*
X140804761Y-139226190D01*
X140757142Y-139178571D01*
X140661904Y-139130952D01*
X140471428Y-139083333D01*
X140233333Y-139083333D01*
X140042857Y-139130952D01*
X139947619Y-139178571D01*
X139900000Y-139226190D01*
X139852380Y-139321428D01*
X140185714Y-140511904D02*
X140852380Y-140511904D01*
X139804761Y-140273809D02*
X140519047Y-140035714D01*
X140519047Y-140654761D01*
X132902380Y-135916666D02*
X133616666Y-135916666D01*
X133759523Y-135869047D01*
X133854761Y-135773809D01*
X133902380Y-135630952D01*
X133902380Y-135535714D01*
X133902380Y-136916666D02*
X133902380Y-136345238D01*
X133902380Y-136630952D02*
X132902380Y-136630952D01*
X133045238Y-136535714D01*
X133140476Y-136440476D01*
X133188095Y-136345238D01*
%TD*%
M02*
