%TF.GenerationSoftware,KiCad,Pcbnew,(5.1.6)-1*%
%TF.CreationDate,2020-12-06T00:26:17+01:00*%
%TF.ProjectId,04_La_Plaque_LEDS,30345f4c-615f-4506-9c61-7175655f4c45,rev?*%
%TF.SameCoordinates,Original*%
%TF.FileFunction,Paste,Top*%
%TF.FilePolarity,Positive*%
%FSLAX46Y46*%
G04 Gerber Fmt 4.6, Leading zero omitted, Abs format (unit mm)*
G04 Created by KiCad (PCBNEW (5.1.6)-1) date 2020-12-06 00:26:17*
%MOMM*%
%LPD*%
G01*
G04 APERTURE LIST*
%TA.AperFunction,Profile*%
%ADD10C,0.150000*%
%TD*%
%ADD11R,1.000000X1.500000*%
G04 APERTURE END LIST*
D10*
X195000000Y-55000000D02*
G75*
G02*
X200000000Y-60000000I0J-5000000D01*
G01*
X200000000Y-150000000D02*
G75*
G02*
X195000000Y-155000000I-5000000J0D01*
G01*
X105000000Y-155000000D02*
G75*
G02*
X100000000Y-150000000I0J5000000D01*
G01*
X100000000Y-60000000D02*
G75*
G02*
X105000000Y-55000000I5000000J0D01*
G01*
X100000000Y-150000000D02*
X100000000Y-60000000D01*
X195000000Y-155000000D02*
X105000000Y-155000000D01*
X200000000Y-60000000D02*
X200000000Y-150000000D01*
X105000000Y-55000000D02*
X195000000Y-55000000D01*
%TO.C,C20*%
G36*
G01*
X138743750Y-106775000D02*
X139256250Y-106775000D01*
G75*
G02*
X139475000Y-106993750I0J-218750D01*
G01*
X139475000Y-107431250D01*
G75*
G02*
X139256250Y-107650000I-218750J0D01*
G01*
X138743750Y-107650000D01*
G75*
G02*
X138525000Y-107431250I0J218750D01*
G01*
X138525000Y-106993750D01*
G75*
G02*
X138743750Y-106775000I218750J0D01*
G01*
G37*
G36*
G01*
X138743750Y-108350000D02*
X139256250Y-108350000D01*
G75*
G02*
X139475000Y-108568750I0J-218750D01*
G01*
X139475000Y-109006250D01*
G75*
G02*
X139256250Y-109225000I-218750J0D01*
G01*
X138743750Y-109225000D01*
G75*
G02*
X138525000Y-109006250I0J218750D01*
G01*
X138525000Y-108568750D01*
G75*
G02*
X138743750Y-108350000I218750J0D01*
G01*
G37*
%TD*%
%TO.C,C11*%
G36*
G01*
X121256250Y-91650000D02*
X120743750Y-91650000D01*
G75*
G02*
X120525000Y-91431250I0J218750D01*
G01*
X120525000Y-90993750D01*
G75*
G02*
X120743750Y-90775000I218750J0D01*
G01*
X121256250Y-90775000D01*
G75*
G02*
X121475000Y-90993750I0J-218750D01*
G01*
X121475000Y-91431250D01*
G75*
G02*
X121256250Y-91650000I-218750J0D01*
G01*
G37*
G36*
G01*
X121256250Y-93225000D02*
X120743750Y-93225000D01*
G75*
G02*
X120525000Y-93006250I0J218750D01*
G01*
X120525000Y-92568750D01*
G75*
G02*
X120743750Y-92350000I218750J0D01*
G01*
X121256250Y-92350000D01*
G75*
G02*
X121475000Y-92568750I0J-218750D01*
G01*
X121475000Y-93006250D01*
G75*
G02*
X121256250Y-93225000I-218750J0D01*
G01*
G37*
%TD*%
%TO.C,C15*%
G36*
G01*
X121256250Y-131650000D02*
X120743750Y-131650000D01*
G75*
G02*
X120525000Y-131431250I0J218750D01*
G01*
X120525000Y-130993750D01*
G75*
G02*
X120743750Y-130775000I218750J0D01*
G01*
X121256250Y-130775000D01*
G75*
G02*
X121475000Y-130993750I0J-218750D01*
G01*
X121475000Y-131431250D01*
G75*
G02*
X121256250Y-131650000I-218750J0D01*
G01*
G37*
G36*
G01*
X121256250Y-133225000D02*
X120743750Y-133225000D01*
G75*
G02*
X120525000Y-133006250I0J218750D01*
G01*
X120525000Y-132568750D01*
G75*
G02*
X120743750Y-132350000I218750J0D01*
G01*
X121256250Y-132350000D01*
G75*
G02*
X121475000Y-132568750I0J-218750D01*
G01*
X121475000Y-133006250D01*
G75*
G02*
X121256250Y-133225000I-218750J0D01*
G01*
G37*
%TD*%
%TO.C,C25*%
G36*
G01*
X141256250Y-71650000D02*
X140743750Y-71650000D01*
G75*
G02*
X140525000Y-71431250I0J218750D01*
G01*
X140525000Y-70993750D01*
G75*
G02*
X140743750Y-70775000I218750J0D01*
G01*
X141256250Y-70775000D01*
G75*
G02*
X141475000Y-70993750I0J-218750D01*
G01*
X141475000Y-71431250D01*
G75*
G02*
X141256250Y-71650000I-218750J0D01*
G01*
G37*
G36*
G01*
X141256250Y-73225000D02*
X140743750Y-73225000D01*
G75*
G02*
X140525000Y-73006250I0J218750D01*
G01*
X140525000Y-72568750D01*
G75*
G02*
X140743750Y-72350000I218750J0D01*
G01*
X141256250Y-72350000D01*
G75*
G02*
X141475000Y-72568750I0J-218750D01*
G01*
X141475000Y-73006250D01*
G75*
G02*
X141256250Y-73225000I-218750J0D01*
G01*
G37*
%TD*%
%TO.C,C35*%
G36*
G01*
X158743750Y-116775000D02*
X159256250Y-116775000D01*
G75*
G02*
X159475000Y-116993750I0J-218750D01*
G01*
X159475000Y-117431250D01*
G75*
G02*
X159256250Y-117650000I-218750J0D01*
G01*
X158743750Y-117650000D01*
G75*
G02*
X158525000Y-117431250I0J218750D01*
G01*
X158525000Y-116993750D01*
G75*
G02*
X158743750Y-116775000I218750J0D01*
G01*
G37*
G36*
G01*
X158743750Y-118350000D02*
X159256250Y-118350000D01*
G75*
G02*
X159475000Y-118568750I0J-218750D01*
G01*
X159475000Y-119006250D01*
G75*
G02*
X159256250Y-119225000I-218750J0D01*
G01*
X158743750Y-119225000D01*
G75*
G02*
X158525000Y-119006250I0J218750D01*
G01*
X158525000Y-118568750D01*
G75*
G02*
X158743750Y-118350000I218750J0D01*
G01*
G37*
%TD*%
%TO.C,C5*%
G36*
G01*
X118743750Y-98350000D02*
X119256250Y-98350000D01*
G75*
G02*
X119475000Y-98568750I0J-218750D01*
G01*
X119475000Y-99006250D01*
G75*
G02*
X119256250Y-99225000I-218750J0D01*
G01*
X118743750Y-99225000D01*
G75*
G02*
X118525000Y-99006250I0J218750D01*
G01*
X118525000Y-98568750D01*
G75*
G02*
X118743750Y-98350000I218750J0D01*
G01*
G37*
G36*
G01*
X118743750Y-96775000D02*
X119256250Y-96775000D01*
G75*
G02*
X119475000Y-96993750I0J-218750D01*
G01*
X119475000Y-97431250D01*
G75*
G02*
X119256250Y-97650000I-218750J0D01*
G01*
X118743750Y-97650000D01*
G75*
G02*
X118525000Y-97431250I0J218750D01*
G01*
X118525000Y-96993750D01*
G75*
G02*
X118743750Y-96775000I218750J0D01*
G01*
G37*
%TD*%
%TO.C,C12*%
G36*
G01*
X121256250Y-101650000D02*
X120743750Y-101650000D01*
G75*
G02*
X120525000Y-101431250I0J218750D01*
G01*
X120525000Y-100993750D01*
G75*
G02*
X120743750Y-100775000I218750J0D01*
G01*
X121256250Y-100775000D01*
G75*
G02*
X121475000Y-100993750I0J-218750D01*
G01*
X121475000Y-101431250D01*
G75*
G02*
X121256250Y-101650000I-218750J0D01*
G01*
G37*
G36*
G01*
X121256250Y-103225000D02*
X120743750Y-103225000D01*
G75*
G02*
X120525000Y-103006250I0J218750D01*
G01*
X120525000Y-102568750D01*
G75*
G02*
X120743750Y-102350000I218750J0D01*
G01*
X121256250Y-102350000D01*
G75*
G02*
X121475000Y-102568750I0J-218750D01*
G01*
X121475000Y-103006250D01*
G75*
G02*
X121256250Y-103225000I-218750J0D01*
G01*
G37*
%TD*%
%TO.C,C22*%
G36*
G01*
X138743750Y-86775000D02*
X139256250Y-86775000D01*
G75*
G02*
X139475000Y-86993750I0J-218750D01*
G01*
X139475000Y-87431250D01*
G75*
G02*
X139256250Y-87650000I-218750J0D01*
G01*
X138743750Y-87650000D01*
G75*
G02*
X138525000Y-87431250I0J218750D01*
G01*
X138525000Y-86993750D01*
G75*
G02*
X138743750Y-86775000I218750J0D01*
G01*
G37*
G36*
G01*
X138743750Y-88350000D02*
X139256250Y-88350000D01*
G75*
G02*
X139475000Y-88568750I0J-218750D01*
G01*
X139475000Y-89006250D01*
G75*
G02*
X139256250Y-89225000I-218750J0D01*
G01*
X138743750Y-89225000D01*
G75*
G02*
X138525000Y-89006250I0J218750D01*
G01*
X138525000Y-88568750D01*
G75*
G02*
X138743750Y-88350000I218750J0D01*
G01*
G37*
%TD*%
%TO.C,C32*%
G36*
G01*
X141256250Y-141650000D02*
X140743750Y-141650000D01*
G75*
G02*
X140525000Y-141431250I0J218750D01*
G01*
X140525000Y-140993750D01*
G75*
G02*
X140743750Y-140775000I218750J0D01*
G01*
X141256250Y-140775000D01*
G75*
G02*
X141475000Y-140993750I0J-218750D01*
G01*
X141475000Y-141431250D01*
G75*
G02*
X141256250Y-141650000I-218750J0D01*
G01*
G37*
G36*
G01*
X141256250Y-143225000D02*
X140743750Y-143225000D01*
G75*
G02*
X140525000Y-143006250I0J218750D01*
G01*
X140525000Y-142568750D01*
G75*
G02*
X140743750Y-142350000I218750J0D01*
G01*
X141256250Y-142350000D01*
G75*
G02*
X141475000Y-142568750I0J-218750D01*
G01*
X141475000Y-143006250D01*
G75*
G02*
X141256250Y-143225000I-218750J0D01*
G01*
G37*
%TD*%
%TO.C,C2*%
G36*
G01*
X118743750Y-126775000D02*
X119256250Y-126775000D01*
G75*
G02*
X119475000Y-126993750I0J-218750D01*
G01*
X119475000Y-127431250D01*
G75*
G02*
X119256250Y-127650000I-218750J0D01*
G01*
X118743750Y-127650000D01*
G75*
G02*
X118525000Y-127431250I0J218750D01*
G01*
X118525000Y-126993750D01*
G75*
G02*
X118743750Y-126775000I218750J0D01*
G01*
G37*
G36*
G01*
X118743750Y-128350000D02*
X119256250Y-128350000D01*
G75*
G02*
X119475000Y-128568750I0J-218750D01*
G01*
X119475000Y-129006250D01*
G75*
G02*
X119256250Y-129225000I-218750J0D01*
G01*
X118743750Y-129225000D01*
G75*
G02*
X118525000Y-129006250I0J218750D01*
G01*
X118525000Y-128568750D01*
G75*
G02*
X118743750Y-128350000I218750J0D01*
G01*
G37*
%TD*%
%TO.C,C16*%
G36*
G01*
X121256250Y-141650000D02*
X120743750Y-141650000D01*
G75*
G02*
X120525000Y-141431250I0J218750D01*
G01*
X120525000Y-140993750D01*
G75*
G02*
X120743750Y-140775000I218750J0D01*
G01*
X121256250Y-140775000D01*
G75*
G02*
X121475000Y-140993750I0J-218750D01*
G01*
X121475000Y-141431250D01*
G75*
G02*
X121256250Y-141650000I-218750J0D01*
G01*
G37*
G36*
G01*
X121256250Y-143225000D02*
X120743750Y-143225000D01*
G75*
G02*
X120525000Y-143006250I0J218750D01*
G01*
X120525000Y-142568750D01*
G75*
G02*
X120743750Y-142350000I218750J0D01*
G01*
X121256250Y-142350000D01*
G75*
G02*
X121475000Y-142568750I0J-218750D01*
G01*
X121475000Y-143006250D01*
G75*
G02*
X121256250Y-143225000I-218750J0D01*
G01*
G37*
%TD*%
%TO.C,C26*%
G36*
G01*
X141256250Y-81650000D02*
X140743750Y-81650000D01*
G75*
G02*
X140525000Y-81431250I0J218750D01*
G01*
X140525000Y-80993750D01*
G75*
G02*
X140743750Y-80775000I218750J0D01*
G01*
X141256250Y-80775000D01*
G75*
G02*
X141475000Y-80993750I0J-218750D01*
G01*
X141475000Y-81431250D01*
G75*
G02*
X141256250Y-81650000I-218750J0D01*
G01*
G37*
G36*
G01*
X141256250Y-83225000D02*
X140743750Y-83225000D01*
G75*
G02*
X140525000Y-83006250I0J218750D01*
G01*
X140525000Y-82568750D01*
G75*
G02*
X140743750Y-82350000I218750J0D01*
G01*
X141256250Y-82350000D01*
G75*
G02*
X141475000Y-82568750I0J-218750D01*
G01*
X141475000Y-83006250D01*
G75*
G02*
X141256250Y-83225000I-218750J0D01*
G01*
G37*
%TD*%
%TO.C,C36*%
G36*
G01*
X158743750Y-106775000D02*
X159256250Y-106775000D01*
G75*
G02*
X159475000Y-106993750I0J-218750D01*
G01*
X159475000Y-107431250D01*
G75*
G02*
X159256250Y-107650000I-218750J0D01*
G01*
X158743750Y-107650000D01*
G75*
G02*
X158525000Y-107431250I0J218750D01*
G01*
X158525000Y-106993750D01*
G75*
G02*
X158743750Y-106775000I218750J0D01*
G01*
G37*
G36*
G01*
X158743750Y-108350000D02*
X159256250Y-108350000D01*
G75*
G02*
X159475000Y-108568750I0J-218750D01*
G01*
X159475000Y-109006250D01*
G75*
G02*
X159256250Y-109225000I-218750J0D01*
G01*
X158743750Y-109225000D01*
G75*
G02*
X158525000Y-109006250I0J218750D01*
G01*
X158525000Y-108568750D01*
G75*
G02*
X158743750Y-108350000I218750J0D01*
G01*
G37*
%TD*%
%TO.C,C6*%
G36*
G01*
X118743750Y-88350000D02*
X119256250Y-88350000D01*
G75*
G02*
X119475000Y-88568750I0J-218750D01*
G01*
X119475000Y-89006250D01*
G75*
G02*
X119256250Y-89225000I-218750J0D01*
G01*
X118743750Y-89225000D01*
G75*
G02*
X118525000Y-89006250I0J218750D01*
G01*
X118525000Y-88568750D01*
G75*
G02*
X118743750Y-88350000I218750J0D01*
G01*
G37*
G36*
G01*
X118743750Y-86775000D02*
X119256250Y-86775000D01*
G75*
G02*
X119475000Y-86993750I0J-218750D01*
G01*
X119475000Y-87431250D01*
G75*
G02*
X119256250Y-87650000I-218750J0D01*
G01*
X118743750Y-87650000D01*
G75*
G02*
X118525000Y-87431250I0J218750D01*
G01*
X118525000Y-86993750D01*
G75*
G02*
X118743750Y-86775000I218750J0D01*
G01*
G37*
%TD*%
%TO.C,C19*%
G36*
G01*
X138743750Y-116775000D02*
X139256250Y-116775000D01*
G75*
G02*
X139475000Y-116993750I0J-218750D01*
G01*
X139475000Y-117431250D01*
G75*
G02*
X139256250Y-117650000I-218750J0D01*
G01*
X138743750Y-117650000D01*
G75*
G02*
X138525000Y-117431250I0J218750D01*
G01*
X138525000Y-116993750D01*
G75*
G02*
X138743750Y-116775000I218750J0D01*
G01*
G37*
G36*
G01*
X138743750Y-118350000D02*
X139256250Y-118350000D01*
G75*
G02*
X139475000Y-118568750I0J-218750D01*
G01*
X139475000Y-119006250D01*
G75*
G02*
X139256250Y-119225000I-218750J0D01*
G01*
X138743750Y-119225000D01*
G75*
G02*
X138525000Y-119006250I0J218750D01*
G01*
X138525000Y-118568750D01*
G75*
G02*
X138743750Y-118350000I218750J0D01*
G01*
G37*
%TD*%
%TO.C,C29*%
G36*
G01*
X141256250Y-113225000D02*
X140743750Y-113225000D01*
G75*
G02*
X140525000Y-113006250I0J218750D01*
G01*
X140525000Y-112568750D01*
G75*
G02*
X140743750Y-112350000I218750J0D01*
G01*
X141256250Y-112350000D01*
G75*
G02*
X141475000Y-112568750I0J-218750D01*
G01*
X141475000Y-113006250D01*
G75*
G02*
X141256250Y-113225000I-218750J0D01*
G01*
G37*
G36*
G01*
X141256250Y-111650000D02*
X140743750Y-111650000D01*
G75*
G02*
X140525000Y-111431250I0J218750D01*
G01*
X140525000Y-110993750D01*
G75*
G02*
X140743750Y-110775000I218750J0D01*
G01*
X141256250Y-110775000D01*
G75*
G02*
X141475000Y-110993750I0J-218750D01*
G01*
X141475000Y-111431250D01*
G75*
G02*
X141256250Y-111650000I-218750J0D01*
G01*
G37*
%TD*%
%TO.C,C39*%
G36*
G01*
X158743750Y-78350000D02*
X159256250Y-78350000D01*
G75*
G02*
X159475000Y-78568750I0J-218750D01*
G01*
X159475000Y-79006250D01*
G75*
G02*
X159256250Y-79225000I-218750J0D01*
G01*
X158743750Y-79225000D01*
G75*
G02*
X158525000Y-79006250I0J218750D01*
G01*
X158525000Y-78568750D01*
G75*
G02*
X158743750Y-78350000I218750J0D01*
G01*
G37*
G36*
G01*
X158743750Y-76775000D02*
X159256250Y-76775000D01*
G75*
G02*
X159475000Y-76993750I0J-218750D01*
G01*
X159475000Y-77431250D01*
G75*
G02*
X159256250Y-77650000I-218750J0D01*
G01*
X158743750Y-77650000D01*
G75*
G02*
X158525000Y-77431250I0J218750D01*
G01*
X158525000Y-76993750D01*
G75*
G02*
X158743750Y-76775000I218750J0D01*
G01*
G37*
%TD*%
%TO.C,C9*%
G36*
G01*
X121256250Y-73225000D02*
X120743750Y-73225000D01*
G75*
G02*
X120525000Y-73006250I0J218750D01*
G01*
X120525000Y-72568750D01*
G75*
G02*
X120743750Y-72350000I218750J0D01*
G01*
X121256250Y-72350000D01*
G75*
G02*
X121475000Y-72568750I0J-218750D01*
G01*
X121475000Y-73006250D01*
G75*
G02*
X121256250Y-73225000I-218750J0D01*
G01*
G37*
G36*
G01*
X121256250Y-71650000D02*
X120743750Y-71650000D01*
G75*
G02*
X120525000Y-71431250I0J218750D01*
G01*
X120525000Y-70993750D01*
G75*
G02*
X120743750Y-70775000I218750J0D01*
G01*
X121256250Y-70775000D01*
G75*
G02*
X121475000Y-70993750I0J-218750D01*
G01*
X121475000Y-71431250D01*
G75*
G02*
X121256250Y-71650000I-218750J0D01*
G01*
G37*
%TD*%
%TO.C,C17*%
G36*
G01*
X138743750Y-138350000D02*
X139256250Y-138350000D01*
G75*
G02*
X139475000Y-138568750I0J-218750D01*
G01*
X139475000Y-139006250D01*
G75*
G02*
X139256250Y-139225000I-218750J0D01*
G01*
X138743750Y-139225000D01*
G75*
G02*
X138525000Y-139006250I0J218750D01*
G01*
X138525000Y-138568750D01*
G75*
G02*
X138743750Y-138350000I218750J0D01*
G01*
G37*
G36*
G01*
X138743750Y-136775000D02*
X139256250Y-136775000D01*
G75*
G02*
X139475000Y-136993750I0J-218750D01*
G01*
X139475000Y-137431250D01*
G75*
G02*
X139256250Y-137650000I-218750J0D01*
G01*
X138743750Y-137650000D01*
G75*
G02*
X138525000Y-137431250I0J218750D01*
G01*
X138525000Y-136993750D01*
G75*
G02*
X138743750Y-136775000I218750J0D01*
G01*
G37*
%TD*%
%TO.C,C27*%
G36*
G01*
X141256250Y-93225000D02*
X140743750Y-93225000D01*
G75*
G02*
X140525000Y-93006250I0J218750D01*
G01*
X140525000Y-92568750D01*
G75*
G02*
X140743750Y-92350000I218750J0D01*
G01*
X141256250Y-92350000D01*
G75*
G02*
X141475000Y-92568750I0J-218750D01*
G01*
X141475000Y-93006250D01*
G75*
G02*
X141256250Y-93225000I-218750J0D01*
G01*
G37*
G36*
G01*
X141256250Y-91650000D02*
X140743750Y-91650000D01*
G75*
G02*
X140525000Y-91431250I0J218750D01*
G01*
X140525000Y-90993750D01*
G75*
G02*
X140743750Y-90775000I218750J0D01*
G01*
X141256250Y-90775000D01*
G75*
G02*
X141475000Y-90993750I0J-218750D01*
G01*
X141475000Y-91431250D01*
G75*
G02*
X141256250Y-91650000I-218750J0D01*
G01*
G37*
%TD*%
%TO.C,C37*%
G36*
G01*
X158743750Y-96775000D02*
X159256250Y-96775000D01*
G75*
G02*
X159475000Y-96993750I0J-218750D01*
G01*
X159475000Y-97431250D01*
G75*
G02*
X159256250Y-97650000I-218750J0D01*
G01*
X158743750Y-97650000D01*
G75*
G02*
X158525000Y-97431250I0J218750D01*
G01*
X158525000Y-96993750D01*
G75*
G02*
X158743750Y-96775000I218750J0D01*
G01*
G37*
G36*
G01*
X158743750Y-98350000D02*
X159256250Y-98350000D01*
G75*
G02*
X159475000Y-98568750I0J-218750D01*
G01*
X159475000Y-99006250D01*
G75*
G02*
X159256250Y-99225000I-218750J0D01*
G01*
X158743750Y-99225000D01*
G75*
G02*
X158525000Y-99006250I0J218750D01*
G01*
X158525000Y-98568750D01*
G75*
G02*
X158743750Y-98350000I218750J0D01*
G01*
G37*
%TD*%
%TO.C,C7*%
G36*
G01*
X118743750Y-78350000D02*
X119256250Y-78350000D01*
G75*
G02*
X119475000Y-78568750I0J-218750D01*
G01*
X119475000Y-79006250D01*
G75*
G02*
X119256250Y-79225000I-218750J0D01*
G01*
X118743750Y-79225000D01*
G75*
G02*
X118525000Y-79006250I0J218750D01*
G01*
X118525000Y-78568750D01*
G75*
G02*
X118743750Y-78350000I218750J0D01*
G01*
G37*
G36*
G01*
X118743750Y-76775000D02*
X119256250Y-76775000D01*
G75*
G02*
X119475000Y-76993750I0J-218750D01*
G01*
X119475000Y-77431250D01*
G75*
G02*
X119256250Y-77650000I-218750J0D01*
G01*
X118743750Y-77650000D01*
G75*
G02*
X118525000Y-77431250I0J218750D01*
G01*
X118525000Y-76993750D01*
G75*
G02*
X118743750Y-76775000I218750J0D01*
G01*
G37*
%TD*%
%TO.C,C30*%
G36*
G01*
X141256250Y-121650000D02*
X140743750Y-121650000D01*
G75*
G02*
X140525000Y-121431250I0J218750D01*
G01*
X140525000Y-120993750D01*
G75*
G02*
X140743750Y-120775000I218750J0D01*
G01*
X141256250Y-120775000D01*
G75*
G02*
X141475000Y-120993750I0J-218750D01*
G01*
X141475000Y-121431250D01*
G75*
G02*
X141256250Y-121650000I-218750J0D01*
G01*
G37*
G36*
G01*
X141256250Y-123225000D02*
X140743750Y-123225000D01*
G75*
G02*
X140525000Y-123006250I0J218750D01*
G01*
X140525000Y-122568750D01*
G75*
G02*
X140743750Y-122350000I218750J0D01*
G01*
X141256250Y-122350000D01*
G75*
G02*
X141475000Y-122568750I0J-218750D01*
G01*
X141475000Y-123006250D01*
G75*
G02*
X141256250Y-123225000I-218750J0D01*
G01*
G37*
%TD*%
%TO.C,C40*%
G36*
G01*
X158743750Y-68350000D02*
X159256250Y-68350000D01*
G75*
G02*
X159475000Y-68568750I0J-218750D01*
G01*
X159475000Y-69006250D01*
G75*
G02*
X159256250Y-69225000I-218750J0D01*
G01*
X158743750Y-69225000D01*
G75*
G02*
X158525000Y-69006250I0J218750D01*
G01*
X158525000Y-68568750D01*
G75*
G02*
X158743750Y-68350000I218750J0D01*
G01*
G37*
G36*
G01*
X158743750Y-66775000D02*
X159256250Y-66775000D01*
G75*
G02*
X159475000Y-66993750I0J-218750D01*
G01*
X159475000Y-67431250D01*
G75*
G02*
X159256250Y-67650000I-218750J0D01*
G01*
X158743750Y-67650000D01*
G75*
G02*
X158525000Y-67431250I0J218750D01*
G01*
X158525000Y-66993750D01*
G75*
G02*
X158743750Y-66775000I218750J0D01*
G01*
G37*
%TD*%
%TO.C,C10*%
G36*
G01*
X121256250Y-83225000D02*
X120743750Y-83225000D01*
G75*
G02*
X120525000Y-83006250I0J218750D01*
G01*
X120525000Y-82568750D01*
G75*
G02*
X120743750Y-82350000I218750J0D01*
G01*
X121256250Y-82350000D01*
G75*
G02*
X121475000Y-82568750I0J-218750D01*
G01*
X121475000Y-83006250D01*
G75*
G02*
X121256250Y-83225000I-218750J0D01*
G01*
G37*
G36*
G01*
X121256250Y-81650000D02*
X120743750Y-81650000D01*
G75*
G02*
X120525000Y-81431250I0J218750D01*
G01*
X120525000Y-80993750D01*
G75*
G02*
X120743750Y-80775000I218750J0D01*
G01*
X121256250Y-80775000D01*
G75*
G02*
X121475000Y-80993750I0J-218750D01*
G01*
X121475000Y-81431250D01*
G75*
G02*
X121256250Y-81650000I-218750J0D01*
G01*
G37*
%TD*%
%TO.C,C18*%
G36*
G01*
X138743750Y-128350000D02*
X139256250Y-128350000D01*
G75*
G02*
X139475000Y-128568750I0J-218750D01*
G01*
X139475000Y-129006250D01*
G75*
G02*
X139256250Y-129225000I-218750J0D01*
G01*
X138743750Y-129225000D01*
G75*
G02*
X138525000Y-129006250I0J218750D01*
G01*
X138525000Y-128568750D01*
G75*
G02*
X138743750Y-128350000I218750J0D01*
G01*
G37*
G36*
G01*
X138743750Y-126775000D02*
X139256250Y-126775000D01*
G75*
G02*
X139475000Y-126993750I0J-218750D01*
G01*
X139475000Y-127431250D01*
G75*
G02*
X139256250Y-127650000I-218750J0D01*
G01*
X138743750Y-127650000D01*
G75*
G02*
X138525000Y-127431250I0J218750D01*
G01*
X138525000Y-126993750D01*
G75*
G02*
X138743750Y-126775000I218750J0D01*
G01*
G37*
%TD*%
%TO.C,C28*%
G36*
G01*
X141256250Y-103225000D02*
X140743750Y-103225000D01*
G75*
G02*
X140525000Y-103006250I0J218750D01*
G01*
X140525000Y-102568750D01*
G75*
G02*
X140743750Y-102350000I218750J0D01*
G01*
X141256250Y-102350000D01*
G75*
G02*
X141475000Y-102568750I0J-218750D01*
G01*
X141475000Y-103006250D01*
G75*
G02*
X141256250Y-103225000I-218750J0D01*
G01*
G37*
G36*
G01*
X141256250Y-101650000D02*
X140743750Y-101650000D01*
G75*
G02*
X140525000Y-101431250I0J218750D01*
G01*
X140525000Y-100993750D01*
G75*
G02*
X140743750Y-100775000I218750J0D01*
G01*
X141256250Y-100775000D01*
G75*
G02*
X141475000Y-100993750I0J-218750D01*
G01*
X141475000Y-101431250D01*
G75*
G02*
X141256250Y-101650000I-218750J0D01*
G01*
G37*
%TD*%
%TO.C,C38*%
G36*
G01*
X158743750Y-88350000D02*
X159256250Y-88350000D01*
G75*
G02*
X159475000Y-88568750I0J-218750D01*
G01*
X159475000Y-89006250D01*
G75*
G02*
X159256250Y-89225000I-218750J0D01*
G01*
X158743750Y-89225000D01*
G75*
G02*
X158525000Y-89006250I0J218750D01*
G01*
X158525000Y-88568750D01*
G75*
G02*
X158743750Y-88350000I218750J0D01*
G01*
G37*
G36*
G01*
X158743750Y-86775000D02*
X159256250Y-86775000D01*
G75*
G02*
X159475000Y-86993750I0J-218750D01*
G01*
X159475000Y-87431250D01*
G75*
G02*
X159256250Y-87650000I-218750J0D01*
G01*
X158743750Y-87650000D01*
G75*
G02*
X158525000Y-87431250I0J218750D01*
G01*
X158525000Y-86993750D01*
G75*
G02*
X158743750Y-86775000I218750J0D01*
G01*
G37*
%TD*%
%TO.C,C8*%
G36*
G01*
X118743750Y-68350000D02*
X119256250Y-68350000D01*
G75*
G02*
X119475000Y-68568750I0J-218750D01*
G01*
X119475000Y-69006250D01*
G75*
G02*
X119256250Y-69225000I-218750J0D01*
G01*
X118743750Y-69225000D01*
G75*
G02*
X118525000Y-69006250I0J218750D01*
G01*
X118525000Y-68568750D01*
G75*
G02*
X118743750Y-68350000I218750J0D01*
G01*
G37*
G36*
G01*
X118743750Y-66775000D02*
X119256250Y-66775000D01*
G75*
G02*
X119475000Y-66993750I0J-218750D01*
G01*
X119475000Y-67431250D01*
G75*
G02*
X119256250Y-67650000I-218750J0D01*
G01*
X118743750Y-67650000D01*
G75*
G02*
X118525000Y-67431250I0J218750D01*
G01*
X118525000Y-66993750D01*
G75*
G02*
X118743750Y-66775000I218750J0D01*
G01*
G37*
%TD*%
%TO.C,C13*%
G36*
G01*
X121256250Y-113225000D02*
X120743750Y-113225000D01*
G75*
G02*
X120525000Y-113006250I0J218750D01*
G01*
X120525000Y-112568750D01*
G75*
G02*
X120743750Y-112350000I218750J0D01*
G01*
X121256250Y-112350000D01*
G75*
G02*
X121475000Y-112568750I0J-218750D01*
G01*
X121475000Y-113006250D01*
G75*
G02*
X121256250Y-113225000I-218750J0D01*
G01*
G37*
G36*
G01*
X121256250Y-111650000D02*
X120743750Y-111650000D01*
G75*
G02*
X120525000Y-111431250I0J218750D01*
G01*
X120525000Y-110993750D01*
G75*
G02*
X120743750Y-110775000I218750J0D01*
G01*
X121256250Y-110775000D01*
G75*
G02*
X121475000Y-110993750I0J-218750D01*
G01*
X121475000Y-111431250D01*
G75*
G02*
X121256250Y-111650000I-218750J0D01*
G01*
G37*
%TD*%
%TO.C,C23*%
G36*
G01*
X138743750Y-78350000D02*
X139256250Y-78350000D01*
G75*
G02*
X139475000Y-78568750I0J-218750D01*
G01*
X139475000Y-79006250D01*
G75*
G02*
X139256250Y-79225000I-218750J0D01*
G01*
X138743750Y-79225000D01*
G75*
G02*
X138525000Y-79006250I0J218750D01*
G01*
X138525000Y-78568750D01*
G75*
G02*
X138743750Y-78350000I218750J0D01*
G01*
G37*
G36*
G01*
X138743750Y-76775000D02*
X139256250Y-76775000D01*
G75*
G02*
X139475000Y-76993750I0J-218750D01*
G01*
X139475000Y-77431250D01*
G75*
G02*
X139256250Y-77650000I-218750J0D01*
G01*
X138743750Y-77650000D01*
G75*
G02*
X138525000Y-77431250I0J218750D01*
G01*
X138525000Y-76993750D01*
G75*
G02*
X138743750Y-76775000I218750J0D01*
G01*
G37*
%TD*%
%TO.C,C33*%
G36*
G01*
X158743750Y-138350000D02*
X159256250Y-138350000D01*
G75*
G02*
X159475000Y-138568750I0J-218750D01*
G01*
X159475000Y-139006250D01*
G75*
G02*
X159256250Y-139225000I-218750J0D01*
G01*
X158743750Y-139225000D01*
G75*
G02*
X158525000Y-139006250I0J218750D01*
G01*
X158525000Y-138568750D01*
G75*
G02*
X158743750Y-138350000I218750J0D01*
G01*
G37*
G36*
G01*
X158743750Y-136775000D02*
X159256250Y-136775000D01*
G75*
G02*
X159475000Y-136993750I0J-218750D01*
G01*
X159475000Y-137431250D01*
G75*
G02*
X159256250Y-137650000I-218750J0D01*
G01*
X158743750Y-137650000D01*
G75*
G02*
X158525000Y-137431250I0J218750D01*
G01*
X158525000Y-136993750D01*
G75*
G02*
X158743750Y-136775000I218750J0D01*
G01*
G37*
%TD*%
%TO.C,C3*%
G36*
G01*
X118743750Y-116775000D02*
X119256250Y-116775000D01*
G75*
G02*
X119475000Y-116993750I0J-218750D01*
G01*
X119475000Y-117431250D01*
G75*
G02*
X119256250Y-117650000I-218750J0D01*
G01*
X118743750Y-117650000D01*
G75*
G02*
X118525000Y-117431250I0J218750D01*
G01*
X118525000Y-116993750D01*
G75*
G02*
X118743750Y-116775000I218750J0D01*
G01*
G37*
G36*
G01*
X118743750Y-118350000D02*
X119256250Y-118350000D01*
G75*
G02*
X119475000Y-118568750I0J-218750D01*
G01*
X119475000Y-119006250D01*
G75*
G02*
X119256250Y-119225000I-218750J0D01*
G01*
X118743750Y-119225000D01*
G75*
G02*
X118525000Y-119006250I0J218750D01*
G01*
X118525000Y-118568750D01*
G75*
G02*
X118743750Y-118350000I218750J0D01*
G01*
G37*
%TD*%
%TO.C,C21*%
G36*
G01*
X138743750Y-96775000D02*
X139256250Y-96775000D01*
G75*
G02*
X139475000Y-96993750I0J-218750D01*
G01*
X139475000Y-97431250D01*
G75*
G02*
X139256250Y-97650000I-218750J0D01*
G01*
X138743750Y-97650000D01*
G75*
G02*
X138525000Y-97431250I0J218750D01*
G01*
X138525000Y-96993750D01*
G75*
G02*
X138743750Y-96775000I218750J0D01*
G01*
G37*
G36*
G01*
X138743750Y-98350000D02*
X139256250Y-98350000D01*
G75*
G02*
X139475000Y-98568750I0J-218750D01*
G01*
X139475000Y-99006250D01*
G75*
G02*
X139256250Y-99225000I-218750J0D01*
G01*
X138743750Y-99225000D01*
G75*
G02*
X138525000Y-99006250I0J218750D01*
G01*
X138525000Y-98568750D01*
G75*
G02*
X138743750Y-98350000I218750J0D01*
G01*
G37*
%TD*%
%TO.C,C31*%
G36*
G01*
X141256250Y-133225000D02*
X140743750Y-133225000D01*
G75*
G02*
X140525000Y-133006250I0J218750D01*
G01*
X140525000Y-132568750D01*
G75*
G02*
X140743750Y-132350000I218750J0D01*
G01*
X141256250Y-132350000D01*
G75*
G02*
X141475000Y-132568750I0J-218750D01*
G01*
X141475000Y-133006250D01*
G75*
G02*
X141256250Y-133225000I-218750J0D01*
G01*
G37*
G36*
G01*
X141256250Y-131650000D02*
X140743750Y-131650000D01*
G75*
G02*
X140525000Y-131431250I0J218750D01*
G01*
X140525000Y-130993750D01*
G75*
G02*
X140743750Y-130775000I218750J0D01*
G01*
X141256250Y-130775000D01*
G75*
G02*
X141475000Y-130993750I0J-218750D01*
G01*
X141475000Y-131431250D01*
G75*
G02*
X141256250Y-131650000I-218750J0D01*
G01*
G37*
%TD*%
%TO.C,C1*%
G36*
G01*
X118743750Y-138350000D02*
X119256250Y-138350000D01*
G75*
G02*
X119475000Y-138568750I0J-218750D01*
G01*
X119475000Y-139006250D01*
G75*
G02*
X119256250Y-139225000I-218750J0D01*
G01*
X118743750Y-139225000D01*
G75*
G02*
X118525000Y-139006250I0J218750D01*
G01*
X118525000Y-138568750D01*
G75*
G02*
X118743750Y-138350000I218750J0D01*
G01*
G37*
G36*
G01*
X118743750Y-136775000D02*
X119256250Y-136775000D01*
G75*
G02*
X119475000Y-136993750I0J-218750D01*
G01*
X119475000Y-137431250D01*
G75*
G02*
X119256250Y-137650000I-218750J0D01*
G01*
X118743750Y-137650000D01*
G75*
G02*
X118525000Y-137431250I0J218750D01*
G01*
X118525000Y-136993750D01*
G75*
G02*
X118743750Y-136775000I218750J0D01*
G01*
G37*
%TD*%
%TO.C,C14*%
G36*
G01*
X121256250Y-123225000D02*
X120743750Y-123225000D01*
G75*
G02*
X120525000Y-123006250I0J218750D01*
G01*
X120525000Y-122568750D01*
G75*
G02*
X120743750Y-122350000I218750J0D01*
G01*
X121256250Y-122350000D01*
G75*
G02*
X121475000Y-122568750I0J-218750D01*
G01*
X121475000Y-123006250D01*
G75*
G02*
X121256250Y-123225000I-218750J0D01*
G01*
G37*
G36*
G01*
X121256250Y-121650000D02*
X120743750Y-121650000D01*
G75*
G02*
X120525000Y-121431250I0J218750D01*
G01*
X120525000Y-120993750D01*
G75*
G02*
X120743750Y-120775000I218750J0D01*
G01*
X121256250Y-120775000D01*
G75*
G02*
X121475000Y-120993750I0J-218750D01*
G01*
X121475000Y-121431250D01*
G75*
G02*
X121256250Y-121650000I-218750J0D01*
G01*
G37*
%TD*%
%TO.C,C24*%
G36*
G01*
X138743750Y-68350000D02*
X139256250Y-68350000D01*
G75*
G02*
X139475000Y-68568750I0J-218750D01*
G01*
X139475000Y-69006250D01*
G75*
G02*
X139256250Y-69225000I-218750J0D01*
G01*
X138743750Y-69225000D01*
G75*
G02*
X138525000Y-69006250I0J218750D01*
G01*
X138525000Y-68568750D01*
G75*
G02*
X138743750Y-68350000I218750J0D01*
G01*
G37*
G36*
G01*
X138743750Y-66775000D02*
X139256250Y-66775000D01*
G75*
G02*
X139475000Y-66993750I0J-218750D01*
G01*
X139475000Y-67431250D01*
G75*
G02*
X139256250Y-67650000I-218750J0D01*
G01*
X138743750Y-67650000D01*
G75*
G02*
X138525000Y-67431250I0J218750D01*
G01*
X138525000Y-66993750D01*
G75*
G02*
X138743750Y-66775000I218750J0D01*
G01*
G37*
%TD*%
%TO.C,C34*%
G36*
G01*
X158743750Y-128350000D02*
X159256250Y-128350000D01*
G75*
G02*
X159475000Y-128568750I0J-218750D01*
G01*
X159475000Y-129006250D01*
G75*
G02*
X159256250Y-129225000I-218750J0D01*
G01*
X158743750Y-129225000D01*
G75*
G02*
X158525000Y-129006250I0J218750D01*
G01*
X158525000Y-128568750D01*
G75*
G02*
X158743750Y-128350000I218750J0D01*
G01*
G37*
G36*
G01*
X158743750Y-126775000D02*
X159256250Y-126775000D01*
G75*
G02*
X159475000Y-126993750I0J-218750D01*
G01*
X159475000Y-127431250D01*
G75*
G02*
X159256250Y-127650000I-218750J0D01*
G01*
X158743750Y-127650000D01*
G75*
G02*
X158525000Y-127431250I0J218750D01*
G01*
X158525000Y-126993750D01*
G75*
G02*
X158743750Y-126775000I218750J0D01*
G01*
G37*
%TD*%
%TO.C,C4*%
G36*
G01*
X118743750Y-106775000D02*
X119256250Y-106775000D01*
G75*
G02*
X119475000Y-106993750I0J-218750D01*
G01*
X119475000Y-107431250D01*
G75*
G02*
X119256250Y-107650000I-218750J0D01*
G01*
X118743750Y-107650000D01*
G75*
G02*
X118525000Y-107431250I0J218750D01*
G01*
X118525000Y-106993750D01*
G75*
G02*
X118743750Y-106775000I218750J0D01*
G01*
G37*
G36*
G01*
X118743750Y-108350000D02*
X119256250Y-108350000D01*
G75*
G02*
X119475000Y-108568750I0J-218750D01*
G01*
X119475000Y-109006250D01*
G75*
G02*
X119256250Y-109225000I-218750J0D01*
G01*
X118743750Y-109225000D01*
G75*
G02*
X118525000Y-109006250I0J218750D01*
G01*
X118525000Y-108568750D01*
G75*
G02*
X118743750Y-108350000I218750J0D01*
G01*
G37*
%TD*%
%TO.C,C55*%
G36*
G01*
X178743750Y-76775000D02*
X179256250Y-76775000D01*
G75*
G02*
X179475000Y-76993750I0J-218750D01*
G01*
X179475000Y-77431250D01*
G75*
G02*
X179256250Y-77650000I-218750J0D01*
G01*
X178743750Y-77650000D01*
G75*
G02*
X178525000Y-77431250I0J218750D01*
G01*
X178525000Y-76993750D01*
G75*
G02*
X178743750Y-76775000I218750J0D01*
G01*
G37*
G36*
G01*
X178743750Y-78350000D02*
X179256250Y-78350000D01*
G75*
G02*
X179475000Y-78568750I0J-218750D01*
G01*
X179475000Y-79006250D01*
G75*
G02*
X179256250Y-79225000I-218750J0D01*
G01*
X178743750Y-79225000D01*
G75*
G02*
X178525000Y-79006250I0J218750D01*
G01*
X178525000Y-78568750D01*
G75*
G02*
X178743750Y-78350000I218750J0D01*
G01*
G37*
%TD*%
%TO.C,C62*%
G36*
G01*
X181256250Y-121650000D02*
X180743750Y-121650000D01*
G75*
G02*
X180525000Y-121431250I0J218750D01*
G01*
X180525000Y-120993750D01*
G75*
G02*
X180743750Y-120775000I218750J0D01*
G01*
X181256250Y-120775000D01*
G75*
G02*
X181475000Y-120993750I0J-218750D01*
G01*
X181475000Y-121431250D01*
G75*
G02*
X181256250Y-121650000I-218750J0D01*
G01*
G37*
G36*
G01*
X181256250Y-123225000D02*
X180743750Y-123225000D01*
G75*
G02*
X180525000Y-123006250I0J218750D01*
G01*
X180525000Y-122568750D01*
G75*
G02*
X180743750Y-122350000I218750J0D01*
G01*
X181256250Y-122350000D01*
G75*
G02*
X181475000Y-122568750I0J-218750D01*
G01*
X181475000Y-123006250D01*
G75*
G02*
X181256250Y-123225000I-218750J0D01*
G01*
G37*
%TD*%
%TO.C,C45*%
G36*
G01*
X161256250Y-113225000D02*
X160743750Y-113225000D01*
G75*
G02*
X160525000Y-113006250I0J218750D01*
G01*
X160525000Y-112568750D01*
G75*
G02*
X160743750Y-112350000I218750J0D01*
G01*
X161256250Y-112350000D01*
G75*
G02*
X161475000Y-112568750I0J-218750D01*
G01*
X161475000Y-113006250D01*
G75*
G02*
X161256250Y-113225000I-218750J0D01*
G01*
G37*
G36*
G01*
X161256250Y-111650000D02*
X160743750Y-111650000D01*
G75*
G02*
X160525000Y-111431250I0J218750D01*
G01*
X160525000Y-110993750D01*
G75*
G02*
X160743750Y-110775000I218750J0D01*
G01*
X161256250Y-110775000D01*
G75*
G02*
X161475000Y-110993750I0J-218750D01*
G01*
X161475000Y-111431250D01*
G75*
G02*
X161256250Y-111650000I-218750J0D01*
G01*
G37*
%TD*%
%TO.C,C52*%
G36*
G01*
X178743750Y-108350000D02*
X179256250Y-108350000D01*
G75*
G02*
X179475000Y-108568750I0J-218750D01*
G01*
X179475000Y-109006250D01*
G75*
G02*
X179256250Y-109225000I-218750J0D01*
G01*
X178743750Y-109225000D01*
G75*
G02*
X178525000Y-109006250I0J218750D01*
G01*
X178525000Y-108568750D01*
G75*
G02*
X178743750Y-108350000I218750J0D01*
G01*
G37*
G36*
G01*
X178743750Y-106775000D02*
X179256250Y-106775000D01*
G75*
G02*
X179475000Y-106993750I0J-218750D01*
G01*
X179475000Y-107431250D01*
G75*
G02*
X179256250Y-107650000I-218750J0D01*
G01*
X178743750Y-107650000D01*
G75*
G02*
X178525000Y-107431250I0J218750D01*
G01*
X178525000Y-106993750D01*
G75*
G02*
X178743750Y-106775000I218750J0D01*
G01*
G37*
%TD*%
%TO.C,C61*%
G36*
G01*
X181256250Y-113225000D02*
X180743750Y-113225000D01*
G75*
G02*
X180525000Y-113006250I0J218750D01*
G01*
X180525000Y-112568750D01*
G75*
G02*
X180743750Y-112350000I218750J0D01*
G01*
X181256250Y-112350000D01*
G75*
G02*
X181475000Y-112568750I0J-218750D01*
G01*
X181475000Y-113006250D01*
G75*
G02*
X181256250Y-113225000I-218750J0D01*
G01*
G37*
G36*
G01*
X181256250Y-111650000D02*
X180743750Y-111650000D01*
G75*
G02*
X180525000Y-111431250I0J218750D01*
G01*
X180525000Y-110993750D01*
G75*
G02*
X180743750Y-110775000I218750J0D01*
G01*
X181256250Y-110775000D01*
G75*
G02*
X181475000Y-110993750I0J-218750D01*
G01*
X181475000Y-111431250D01*
G75*
G02*
X181256250Y-111650000I-218750J0D01*
G01*
G37*
%TD*%
%TO.C,C41*%
G36*
G01*
X161256250Y-71650000D02*
X160743750Y-71650000D01*
G75*
G02*
X160525000Y-71431250I0J218750D01*
G01*
X160525000Y-70993750D01*
G75*
G02*
X160743750Y-70775000I218750J0D01*
G01*
X161256250Y-70775000D01*
G75*
G02*
X161475000Y-70993750I0J-218750D01*
G01*
X161475000Y-71431250D01*
G75*
G02*
X161256250Y-71650000I-218750J0D01*
G01*
G37*
G36*
G01*
X161256250Y-73225000D02*
X160743750Y-73225000D01*
G75*
G02*
X160525000Y-73006250I0J218750D01*
G01*
X160525000Y-72568750D01*
G75*
G02*
X160743750Y-72350000I218750J0D01*
G01*
X161256250Y-72350000D01*
G75*
G02*
X161475000Y-72568750I0J-218750D01*
G01*
X161475000Y-73006250D01*
G75*
G02*
X161256250Y-73225000I-218750J0D01*
G01*
G37*
%TD*%
%TO.C,C56*%
G36*
G01*
X178743750Y-66775000D02*
X179256250Y-66775000D01*
G75*
G02*
X179475000Y-66993750I0J-218750D01*
G01*
X179475000Y-67431250D01*
G75*
G02*
X179256250Y-67650000I-218750J0D01*
G01*
X178743750Y-67650000D01*
G75*
G02*
X178525000Y-67431250I0J218750D01*
G01*
X178525000Y-66993750D01*
G75*
G02*
X178743750Y-66775000I218750J0D01*
G01*
G37*
G36*
G01*
X178743750Y-68350000D02*
X179256250Y-68350000D01*
G75*
G02*
X179475000Y-68568750I0J-218750D01*
G01*
X179475000Y-69006250D01*
G75*
G02*
X179256250Y-69225000I-218750J0D01*
G01*
X178743750Y-69225000D01*
G75*
G02*
X178525000Y-69006250I0J218750D01*
G01*
X178525000Y-68568750D01*
G75*
G02*
X178743750Y-68350000I218750J0D01*
G01*
G37*
%TD*%
%TO.C,C63*%
G36*
G01*
X181256250Y-131650000D02*
X180743750Y-131650000D01*
G75*
G02*
X180525000Y-131431250I0J218750D01*
G01*
X180525000Y-130993750D01*
G75*
G02*
X180743750Y-130775000I218750J0D01*
G01*
X181256250Y-130775000D01*
G75*
G02*
X181475000Y-130993750I0J-218750D01*
G01*
X181475000Y-131431250D01*
G75*
G02*
X181256250Y-131650000I-218750J0D01*
G01*
G37*
G36*
G01*
X181256250Y-133225000D02*
X180743750Y-133225000D01*
G75*
G02*
X180525000Y-133006250I0J218750D01*
G01*
X180525000Y-132568750D01*
G75*
G02*
X180743750Y-132350000I218750J0D01*
G01*
X181256250Y-132350000D01*
G75*
G02*
X181475000Y-132568750I0J-218750D01*
G01*
X181475000Y-133006250D01*
G75*
G02*
X181256250Y-133225000I-218750J0D01*
G01*
G37*
%TD*%
%TO.C,C46*%
G36*
G01*
X161256250Y-123225000D02*
X160743750Y-123225000D01*
G75*
G02*
X160525000Y-123006250I0J218750D01*
G01*
X160525000Y-122568750D01*
G75*
G02*
X160743750Y-122350000I218750J0D01*
G01*
X161256250Y-122350000D01*
G75*
G02*
X161475000Y-122568750I0J-218750D01*
G01*
X161475000Y-123006250D01*
G75*
G02*
X161256250Y-123225000I-218750J0D01*
G01*
G37*
G36*
G01*
X161256250Y-121650000D02*
X160743750Y-121650000D01*
G75*
G02*
X160525000Y-121431250I0J218750D01*
G01*
X160525000Y-120993750D01*
G75*
G02*
X160743750Y-120775000I218750J0D01*
G01*
X161256250Y-120775000D01*
G75*
G02*
X161475000Y-120993750I0J-218750D01*
G01*
X161475000Y-121431250D01*
G75*
G02*
X161256250Y-121650000I-218750J0D01*
G01*
G37*
%TD*%
%TO.C,C64*%
G36*
G01*
X181256250Y-143225000D02*
X180743750Y-143225000D01*
G75*
G02*
X180525000Y-143006250I0J218750D01*
G01*
X180525000Y-142568750D01*
G75*
G02*
X180743750Y-142350000I218750J0D01*
G01*
X181256250Y-142350000D01*
G75*
G02*
X181475000Y-142568750I0J-218750D01*
G01*
X181475000Y-143006250D01*
G75*
G02*
X181256250Y-143225000I-218750J0D01*
G01*
G37*
G36*
G01*
X181256250Y-141650000D02*
X180743750Y-141650000D01*
G75*
G02*
X180525000Y-141431250I0J218750D01*
G01*
X180525000Y-140993750D01*
G75*
G02*
X180743750Y-140775000I218750J0D01*
G01*
X181256250Y-140775000D01*
G75*
G02*
X181475000Y-140993750I0J-218750D01*
G01*
X181475000Y-141431250D01*
G75*
G02*
X181256250Y-141650000I-218750J0D01*
G01*
G37*
%TD*%
%TO.C,C49*%
G36*
G01*
X178743750Y-138350000D02*
X179256250Y-138350000D01*
G75*
G02*
X179475000Y-138568750I0J-218750D01*
G01*
X179475000Y-139006250D01*
G75*
G02*
X179256250Y-139225000I-218750J0D01*
G01*
X178743750Y-139225000D01*
G75*
G02*
X178525000Y-139006250I0J218750D01*
G01*
X178525000Y-138568750D01*
G75*
G02*
X178743750Y-138350000I218750J0D01*
G01*
G37*
G36*
G01*
X178743750Y-136775000D02*
X179256250Y-136775000D01*
G75*
G02*
X179475000Y-136993750I0J-218750D01*
G01*
X179475000Y-137431250D01*
G75*
G02*
X179256250Y-137650000I-218750J0D01*
G01*
X178743750Y-137650000D01*
G75*
G02*
X178525000Y-137431250I0J218750D01*
G01*
X178525000Y-136993750D01*
G75*
G02*
X178743750Y-136775000I218750J0D01*
G01*
G37*
%TD*%
%TO.C,C57*%
G36*
G01*
X181256250Y-73225000D02*
X180743750Y-73225000D01*
G75*
G02*
X180525000Y-73006250I0J218750D01*
G01*
X180525000Y-72568750D01*
G75*
G02*
X180743750Y-72350000I218750J0D01*
G01*
X181256250Y-72350000D01*
G75*
G02*
X181475000Y-72568750I0J-218750D01*
G01*
X181475000Y-73006250D01*
G75*
G02*
X181256250Y-73225000I-218750J0D01*
G01*
G37*
G36*
G01*
X181256250Y-71650000D02*
X180743750Y-71650000D01*
G75*
G02*
X180525000Y-71431250I0J218750D01*
G01*
X180525000Y-70993750D01*
G75*
G02*
X180743750Y-70775000I218750J0D01*
G01*
X181256250Y-70775000D01*
G75*
G02*
X181475000Y-70993750I0J-218750D01*
G01*
X181475000Y-71431250D01*
G75*
G02*
X181256250Y-71650000I-218750J0D01*
G01*
G37*
%TD*%
%TO.C,C47*%
G36*
G01*
X161256250Y-133225000D02*
X160743750Y-133225000D01*
G75*
G02*
X160525000Y-133006250I0J218750D01*
G01*
X160525000Y-132568750D01*
G75*
G02*
X160743750Y-132350000I218750J0D01*
G01*
X161256250Y-132350000D01*
G75*
G02*
X161475000Y-132568750I0J-218750D01*
G01*
X161475000Y-133006250D01*
G75*
G02*
X161256250Y-133225000I-218750J0D01*
G01*
G37*
G36*
G01*
X161256250Y-131650000D02*
X160743750Y-131650000D01*
G75*
G02*
X160525000Y-131431250I0J218750D01*
G01*
X160525000Y-130993750D01*
G75*
G02*
X160743750Y-130775000I218750J0D01*
G01*
X161256250Y-130775000D01*
G75*
G02*
X161475000Y-130993750I0J-218750D01*
G01*
X161475000Y-131431250D01*
G75*
G02*
X161256250Y-131650000I-218750J0D01*
G01*
G37*
%TD*%
%TO.C,C50*%
G36*
G01*
X178743750Y-128350000D02*
X179256250Y-128350000D01*
G75*
G02*
X179475000Y-128568750I0J-218750D01*
G01*
X179475000Y-129006250D01*
G75*
G02*
X179256250Y-129225000I-218750J0D01*
G01*
X178743750Y-129225000D01*
G75*
G02*
X178525000Y-129006250I0J218750D01*
G01*
X178525000Y-128568750D01*
G75*
G02*
X178743750Y-128350000I218750J0D01*
G01*
G37*
G36*
G01*
X178743750Y-126775000D02*
X179256250Y-126775000D01*
G75*
G02*
X179475000Y-126993750I0J-218750D01*
G01*
X179475000Y-127431250D01*
G75*
G02*
X179256250Y-127650000I-218750J0D01*
G01*
X178743750Y-127650000D01*
G75*
G02*
X178525000Y-127431250I0J218750D01*
G01*
X178525000Y-126993750D01*
G75*
G02*
X178743750Y-126775000I218750J0D01*
G01*
G37*
%TD*%
%TO.C,C58*%
G36*
G01*
X181256250Y-83225000D02*
X180743750Y-83225000D01*
G75*
G02*
X180525000Y-83006250I0J218750D01*
G01*
X180525000Y-82568750D01*
G75*
G02*
X180743750Y-82350000I218750J0D01*
G01*
X181256250Y-82350000D01*
G75*
G02*
X181475000Y-82568750I0J-218750D01*
G01*
X181475000Y-83006250D01*
G75*
G02*
X181256250Y-83225000I-218750J0D01*
G01*
G37*
G36*
G01*
X181256250Y-81650000D02*
X180743750Y-81650000D01*
G75*
G02*
X180525000Y-81431250I0J218750D01*
G01*
X180525000Y-80993750D01*
G75*
G02*
X180743750Y-80775000I218750J0D01*
G01*
X181256250Y-80775000D01*
G75*
G02*
X181475000Y-80993750I0J-218750D01*
G01*
X181475000Y-81431250D01*
G75*
G02*
X181256250Y-81650000I-218750J0D01*
G01*
G37*
%TD*%
%TO.C,C48*%
G36*
G01*
X161256250Y-143225000D02*
X160743750Y-143225000D01*
G75*
G02*
X160525000Y-143006250I0J218750D01*
G01*
X160525000Y-142568750D01*
G75*
G02*
X160743750Y-142350000I218750J0D01*
G01*
X161256250Y-142350000D01*
G75*
G02*
X161475000Y-142568750I0J-218750D01*
G01*
X161475000Y-143006250D01*
G75*
G02*
X161256250Y-143225000I-218750J0D01*
G01*
G37*
G36*
G01*
X161256250Y-141650000D02*
X160743750Y-141650000D01*
G75*
G02*
X160525000Y-141431250I0J218750D01*
G01*
X160525000Y-140993750D01*
G75*
G02*
X160743750Y-140775000I218750J0D01*
G01*
X161256250Y-140775000D01*
G75*
G02*
X161475000Y-140993750I0J-218750D01*
G01*
X161475000Y-141431250D01*
G75*
G02*
X161256250Y-141650000I-218750J0D01*
G01*
G37*
%TD*%
%TO.C,C53*%
G36*
G01*
X178743750Y-98350000D02*
X179256250Y-98350000D01*
G75*
G02*
X179475000Y-98568750I0J-218750D01*
G01*
X179475000Y-99006250D01*
G75*
G02*
X179256250Y-99225000I-218750J0D01*
G01*
X178743750Y-99225000D01*
G75*
G02*
X178525000Y-99006250I0J218750D01*
G01*
X178525000Y-98568750D01*
G75*
G02*
X178743750Y-98350000I218750J0D01*
G01*
G37*
G36*
G01*
X178743750Y-96775000D02*
X179256250Y-96775000D01*
G75*
G02*
X179475000Y-96993750I0J-218750D01*
G01*
X179475000Y-97431250D01*
G75*
G02*
X179256250Y-97650000I-218750J0D01*
G01*
X178743750Y-97650000D01*
G75*
G02*
X178525000Y-97431250I0J218750D01*
G01*
X178525000Y-96993750D01*
G75*
G02*
X178743750Y-96775000I218750J0D01*
G01*
G37*
%TD*%
%TO.C,C42*%
G36*
G01*
X161256250Y-81650000D02*
X160743750Y-81650000D01*
G75*
G02*
X160525000Y-81431250I0J218750D01*
G01*
X160525000Y-80993750D01*
G75*
G02*
X160743750Y-80775000I218750J0D01*
G01*
X161256250Y-80775000D01*
G75*
G02*
X161475000Y-80993750I0J-218750D01*
G01*
X161475000Y-81431250D01*
G75*
G02*
X161256250Y-81650000I-218750J0D01*
G01*
G37*
G36*
G01*
X161256250Y-83225000D02*
X160743750Y-83225000D01*
G75*
G02*
X160525000Y-83006250I0J218750D01*
G01*
X160525000Y-82568750D01*
G75*
G02*
X160743750Y-82350000I218750J0D01*
G01*
X161256250Y-82350000D01*
G75*
G02*
X161475000Y-82568750I0J-218750D01*
G01*
X161475000Y-83006250D01*
G75*
G02*
X161256250Y-83225000I-218750J0D01*
G01*
G37*
%TD*%
%TO.C,C51*%
G36*
G01*
X178743750Y-116775000D02*
X179256250Y-116775000D01*
G75*
G02*
X179475000Y-116993750I0J-218750D01*
G01*
X179475000Y-117431250D01*
G75*
G02*
X179256250Y-117650000I-218750J0D01*
G01*
X178743750Y-117650000D01*
G75*
G02*
X178525000Y-117431250I0J218750D01*
G01*
X178525000Y-116993750D01*
G75*
G02*
X178743750Y-116775000I218750J0D01*
G01*
G37*
G36*
G01*
X178743750Y-118350000D02*
X179256250Y-118350000D01*
G75*
G02*
X179475000Y-118568750I0J-218750D01*
G01*
X179475000Y-119006250D01*
G75*
G02*
X179256250Y-119225000I-218750J0D01*
G01*
X178743750Y-119225000D01*
G75*
G02*
X178525000Y-119006250I0J218750D01*
G01*
X178525000Y-118568750D01*
G75*
G02*
X178743750Y-118350000I218750J0D01*
G01*
G37*
%TD*%
%TO.C,C54*%
G36*
G01*
X178743750Y-86775000D02*
X179256250Y-86775000D01*
G75*
G02*
X179475000Y-86993750I0J-218750D01*
G01*
X179475000Y-87431250D01*
G75*
G02*
X179256250Y-87650000I-218750J0D01*
G01*
X178743750Y-87650000D01*
G75*
G02*
X178525000Y-87431250I0J218750D01*
G01*
X178525000Y-86993750D01*
G75*
G02*
X178743750Y-86775000I218750J0D01*
G01*
G37*
G36*
G01*
X178743750Y-88350000D02*
X179256250Y-88350000D01*
G75*
G02*
X179475000Y-88568750I0J-218750D01*
G01*
X179475000Y-89006250D01*
G75*
G02*
X179256250Y-89225000I-218750J0D01*
G01*
X178743750Y-89225000D01*
G75*
G02*
X178525000Y-89006250I0J218750D01*
G01*
X178525000Y-88568750D01*
G75*
G02*
X178743750Y-88350000I218750J0D01*
G01*
G37*
%TD*%
%TO.C,C44*%
G36*
G01*
X161256250Y-103225000D02*
X160743750Y-103225000D01*
G75*
G02*
X160525000Y-103006250I0J218750D01*
G01*
X160525000Y-102568750D01*
G75*
G02*
X160743750Y-102350000I218750J0D01*
G01*
X161256250Y-102350000D01*
G75*
G02*
X161475000Y-102568750I0J-218750D01*
G01*
X161475000Y-103006250D01*
G75*
G02*
X161256250Y-103225000I-218750J0D01*
G01*
G37*
G36*
G01*
X161256250Y-101650000D02*
X160743750Y-101650000D01*
G75*
G02*
X160525000Y-101431250I0J218750D01*
G01*
X160525000Y-100993750D01*
G75*
G02*
X160743750Y-100775000I218750J0D01*
G01*
X161256250Y-100775000D01*
G75*
G02*
X161475000Y-100993750I0J-218750D01*
G01*
X161475000Y-101431250D01*
G75*
G02*
X161256250Y-101650000I-218750J0D01*
G01*
G37*
%TD*%
D11*
%TO.C,D11*%
X123400000Y-92450000D03*
X126600000Y-92450000D03*
X123400000Y-87550000D03*
X126600000Y-87550000D03*
%TD*%
%TO.C,D21*%
X136600000Y-97550000D03*
X133400000Y-97550000D03*
X136600000Y-102450000D03*
X133400000Y-102450000D03*
%TD*%
%TO.C,D31*%
X143400000Y-132450000D03*
X146600000Y-132450000D03*
X143400000Y-127550000D03*
X146600000Y-127550000D03*
%TD*%
%TO.C,D1*%
X113400000Y-142450000D03*
X116600000Y-142450000D03*
X113400000Y-137550000D03*
X116600000Y-137550000D03*
%TD*%
%TO.C,D12*%
X126600000Y-97550000D03*
X123400000Y-97550000D03*
X126600000Y-102450000D03*
X123400000Y-102450000D03*
%TD*%
%TO.C,D22*%
X133400000Y-92450000D03*
X136600000Y-92450000D03*
X133400000Y-87550000D03*
X136600000Y-87550000D03*
%TD*%
%TO.C,D32*%
X146600000Y-137550000D03*
X143400000Y-137550000D03*
X146600000Y-142450000D03*
X143400000Y-142450000D03*
%TD*%
%TO.C,D2*%
X116600000Y-127550000D03*
X113400000Y-127550000D03*
X116600000Y-132450000D03*
X113400000Y-132450000D03*
%TD*%
%TO.C,D13*%
X123400000Y-112450000D03*
X126600000Y-112450000D03*
X123400000Y-107550000D03*
X126600000Y-107550000D03*
%TD*%
%TO.C,D23*%
X133400000Y-82450000D03*
X136600000Y-82450000D03*
X133400000Y-77550000D03*
X136600000Y-77550000D03*
%TD*%
%TO.C,D33*%
X156600000Y-137550000D03*
X153400000Y-137550000D03*
X156600000Y-142450000D03*
X153400000Y-142450000D03*
%TD*%
%TO.C,D3*%
X113400000Y-122450000D03*
X116600000Y-122450000D03*
X113400000Y-117550000D03*
X116600000Y-117550000D03*
%TD*%
%TO.C,D14*%
X126600000Y-117550000D03*
X123400000Y-117550000D03*
X126600000Y-122450000D03*
X123400000Y-122450000D03*
%TD*%
%TO.C,D24*%
X133400000Y-72450000D03*
X136600000Y-72450000D03*
X133400000Y-67550000D03*
X136600000Y-67550000D03*
%TD*%
%TO.C,D34*%
X153400000Y-132450000D03*
X156600000Y-132450000D03*
X153400000Y-127550000D03*
X156600000Y-127550000D03*
%TD*%
%TO.C,D4*%
X116600000Y-107550000D03*
X113400000Y-107550000D03*
X116600000Y-112450000D03*
X113400000Y-112450000D03*
%TD*%
%TO.C,D15*%
X123400000Y-132450000D03*
X126600000Y-132450000D03*
X123400000Y-127550000D03*
X126600000Y-127550000D03*
%TD*%
%TO.C,D25*%
X146600000Y-67550000D03*
X143400000Y-67550000D03*
X146600000Y-72450000D03*
X143400000Y-72450000D03*
%TD*%
%TO.C,D35*%
X156600000Y-117550000D03*
X153400000Y-117550000D03*
X156600000Y-122450000D03*
X153400000Y-122450000D03*
%TD*%
%TO.C,D5*%
X113400000Y-102450000D03*
X116600000Y-102450000D03*
X113400000Y-97550000D03*
X116600000Y-97550000D03*
%TD*%
%TO.C,D16*%
X126600000Y-137550000D03*
X123400000Y-137550000D03*
X126600000Y-142450000D03*
X123400000Y-142450000D03*
%TD*%
%TO.C,D26*%
X143400000Y-82450000D03*
X146600000Y-82450000D03*
X143400000Y-77550000D03*
X146600000Y-77550000D03*
%TD*%
%TO.C,D36*%
X153400000Y-112450000D03*
X156600000Y-112450000D03*
X153400000Y-107550000D03*
X156600000Y-107550000D03*
%TD*%
%TO.C,D6*%
X116600000Y-87550000D03*
X113400000Y-87550000D03*
X116600000Y-92450000D03*
X113400000Y-92450000D03*
%TD*%
%TO.C,D17*%
X136600000Y-137550000D03*
X133400000Y-137550000D03*
X136600000Y-142450000D03*
X133400000Y-142450000D03*
%TD*%
%TO.C,D27*%
X146600000Y-87550000D03*
X143400000Y-87550000D03*
X146600000Y-92450000D03*
X143400000Y-92450000D03*
%TD*%
%TO.C,D37*%
X156600000Y-97550000D03*
X153400000Y-97550000D03*
X156600000Y-102450000D03*
X153400000Y-102450000D03*
%TD*%
%TO.C,D7*%
X113400000Y-82450000D03*
X116600000Y-82450000D03*
X113400000Y-77550000D03*
X116600000Y-77550000D03*
%TD*%
%TO.C,D18*%
X133400000Y-132450000D03*
X136600000Y-132450000D03*
X133400000Y-127550000D03*
X136600000Y-127550000D03*
%TD*%
%TO.C,D28*%
X143400000Y-102450000D03*
X146600000Y-102450000D03*
X143400000Y-97550000D03*
X146600000Y-97550000D03*
%TD*%
%TO.C,D38*%
X153400000Y-92450000D03*
X156600000Y-92450000D03*
X153400000Y-87550000D03*
X156600000Y-87550000D03*
%TD*%
%TO.C,D8*%
X116600000Y-67550000D03*
X113400000Y-67550000D03*
X116600000Y-72450000D03*
X113400000Y-72450000D03*
%TD*%
%TO.C,D19*%
X136600000Y-117550000D03*
X133400000Y-117550000D03*
X136600000Y-122450000D03*
X133400000Y-122450000D03*
%TD*%
%TO.C,D29*%
X146600000Y-107550000D03*
X143400000Y-107550000D03*
X146600000Y-112450000D03*
X143400000Y-112450000D03*
%TD*%
%TO.C,D39*%
X156600000Y-77550000D03*
X153400000Y-77550000D03*
X156600000Y-82450000D03*
X153400000Y-82450000D03*
%TD*%
%TO.C,D9*%
X126600000Y-67550000D03*
X123400000Y-67550000D03*
X126600000Y-72450000D03*
X123400000Y-72450000D03*
%TD*%
%TO.C,D20*%
X133400000Y-112450000D03*
X136600000Y-112450000D03*
X133400000Y-107550000D03*
X136600000Y-107550000D03*
%TD*%
%TO.C,D30*%
X143400000Y-122450000D03*
X146600000Y-122450000D03*
X143400000Y-117550000D03*
X146600000Y-117550000D03*
%TD*%
%TO.C,D40*%
X153400000Y-72450000D03*
X156600000Y-72450000D03*
X153400000Y-67550000D03*
X156600000Y-67550000D03*
%TD*%
%TO.C,D10*%
X123400000Y-82450000D03*
X126600000Y-82450000D03*
X123400000Y-77550000D03*
X126600000Y-77550000D03*
%TD*%
%TO.C,D51*%
X176600000Y-117550000D03*
X173400000Y-117550000D03*
X176600000Y-122450000D03*
X173400000Y-122450000D03*
%TD*%
%TO.C,D61*%
X183400000Y-112450000D03*
X186600000Y-112450000D03*
X183400000Y-107550000D03*
X186600000Y-107550000D03*
%TD*%
%TO.C,D41*%
X166600000Y-67550000D03*
X163400000Y-67550000D03*
X166600000Y-72450000D03*
X163400000Y-72450000D03*
%TD*%
%TO.C,D52*%
X173400000Y-112450000D03*
X176600000Y-112450000D03*
X173400000Y-107550000D03*
X176600000Y-107550000D03*
%TD*%
%TO.C,D62*%
X186600000Y-117550000D03*
X183400000Y-117550000D03*
X186600000Y-122450000D03*
X183400000Y-122450000D03*
%TD*%
%TO.C,D42*%
X163400000Y-82450000D03*
X166600000Y-82450000D03*
X163400000Y-77550000D03*
X166600000Y-77550000D03*
%TD*%
%TO.C,D53*%
X176600000Y-97550000D03*
X173400000Y-97550000D03*
X176600000Y-102450000D03*
X173400000Y-102450000D03*
%TD*%
%TO.C,D63*%
X186600000Y-127550000D03*
X183400000Y-127550000D03*
X186600000Y-132450000D03*
X183400000Y-132450000D03*
%TD*%
%TO.C,D43*%
X166600000Y-87550000D03*
X163400000Y-87550000D03*
X166600000Y-92450000D03*
X163400000Y-92450000D03*
%TD*%
%TO.C,D54*%
X173400000Y-92450000D03*
X176600000Y-92450000D03*
X173400000Y-87550000D03*
X176600000Y-87550000D03*
%TD*%
%TO.C,D64*%
X186600000Y-137550000D03*
X183400000Y-137550000D03*
X186600000Y-142450000D03*
X183400000Y-142450000D03*
%TD*%
%TO.C,D44*%
X163400000Y-102450000D03*
X166600000Y-102450000D03*
X163400000Y-97550000D03*
X166600000Y-97550000D03*
%TD*%
%TO.C,D55*%
X176600000Y-77550000D03*
X173400000Y-77550000D03*
X176600000Y-82450000D03*
X173400000Y-82450000D03*
%TD*%
%TO.C,D45*%
X166600000Y-107550000D03*
X163400000Y-107550000D03*
X166600000Y-112450000D03*
X163400000Y-112450000D03*
%TD*%
%TO.C,D56*%
X173400000Y-72450000D03*
X176600000Y-72450000D03*
X173400000Y-67550000D03*
X176600000Y-67550000D03*
%TD*%
%TO.C,D46*%
X163400000Y-122450000D03*
X166600000Y-122450000D03*
X163400000Y-117550000D03*
X166600000Y-117550000D03*
%TD*%
%TO.C,D57*%
X183400000Y-72450000D03*
X186600000Y-72450000D03*
X183400000Y-67550000D03*
X186600000Y-67550000D03*
%TD*%
%TO.C,D47*%
X166600000Y-127550000D03*
X163400000Y-127550000D03*
X166600000Y-132450000D03*
X163400000Y-132450000D03*
%TD*%
%TO.C,D58*%
X186600000Y-77550000D03*
X183400000Y-77550000D03*
X186600000Y-82450000D03*
X183400000Y-82450000D03*
%TD*%
%TO.C,D48*%
X163400000Y-142450000D03*
X166600000Y-142450000D03*
X163400000Y-137550000D03*
X166600000Y-137550000D03*
%TD*%
%TO.C,D59*%
X183400000Y-92450000D03*
X186600000Y-92450000D03*
X183400000Y-87550000D03*
X186600000Y-87550000D03*
%TD*%
%TO.C,D49*%
X173400000Y-142450000D03*
X176600000Y-142450000D03*
X173400000Y-137550000D03*
X176600000Y-137550000D03*
%TD*%
%TO.C,D60*%
X186600000Y-97550000D03*
X183400000Y-97550000D03*
X186600000Y-102450000D03*
X183400000Y-102450000D03*
%TD*%
%TO.C,D50*%
X176600000Y-127550000D03*
X173400000Y-127550000D03*
X176600000Y-132450000D03*
X173400000Y-132450000D03*
%TD*%
%TO.C,C59*%
G36*
G01*
X181256250Y-93225000D02*
X180743750Y-93225000D01*
G75*
G02*
X180525000Y-93006250I0J218750D01*
G01*
X180525000Y-92568750D01*
G75*
G02*
X180743750Y-92350000I218750J0D01*
G01*
X181256250Y-92350000D01*
G75*
G02*
X181475000Y-92568750I0J-218750D01*
G01*
X181475000Y-93006250D01*
G75*
G02*
X181256250Y-93225000I-218750J0D01*
G01*
G37*
G36*
G01*
X181256250Y-91650000D02*
X180743750Y-91650000D01*
G75*
G02*
X180525000Y-91431250I0J218750D01*
G01*
X180525000Y-90993750D01*
G75*
G02*
X180743750Y-90775000I218750J0D01*
G01*
X181256250Y-90775000D01*
G75*
G02*
X181475000Y-90993750I0J-218750D01*
G01*
X181475000Y-91431250D01*
G75*
G02*
X181256250Y-91650000I-218750J0D01*
G01*
G37*
%TD*%
%TO.C,C60*%
G36*
G01*
X181256250Y-101650000D02*
X180743750Y-101650000D01*
G75*
G02*
X180525000Y-101431250I0J218750D01*
G01*
X180525000Y-100993750D01*
G75*
G02*
X180743750Y-100775000I218750J0D01*
G01*
X181256250Y-100775000D01*
G75*
G02*
X181475000Y-100993750I0J-218750D01*
G01*
X181475000Y-101431250D01*
G75*
G02*
X181256250Y-101650000I-218750J0D01*
G01*
G37*
G36*
G01*
X181256250Y-103225000D02*
X180743750Y-103225000D01*
G75*
G02*
X180525000Y-103006250I0J218750D01*
G01*
X180525000Y-102568750D01*
G75*
G02*
X180743750Y-102350000I218750J0D01*
G01*
X181256250Y-102350000D01*
G75*
G02*
X181475000Y-102568750I0J-218750D01*
G01*
X181475000Y-103006250D01*
G75*
G02*
X181256250Y-103225000I-218750J0D01*
G01*
G37*
%TD*%
%TO.C,C43*%
G36*
G01*
X161256250Y-93225000D02*
X160743750Y-93225000D01*
G75*
G02*
X160525000Y-93006250I0J218750D01*
G01*
X160525000Y-92568750D01*
G75*
G02*
X160743750Y-92350000I218750J0D01*
G01*
X161256250Y-92350000D01*
G75*
G02*
X161475000Y-92568750I0J-218750D01*
G01*
X161475000Y-93006250D01*
G75*
G02*
X161256250Y-93225000I-218750J0D01*
G01*
G37*
G36*
G01*
X161256250Y-91650000D02*
X160743750Y-91650000D01*
G75*
G02*
X160525000Y-91431250I0J218750D01*
G01*
X160525000Y-90993750D01*
G75*
G02*
X160743750Y-90775000I218750J0D01*
G01*
X161256250Y-90775000D01*
G75*
G02*
X161475000Y-90993750I0J-218750D01*
G01*
X161475000Y-91431250D01*
G75*
G02*
X161256250Y-91650000I-218750J0D01*
G01*
G37*
%TD*%
M02*
