%TF.GenerationSoftware,KiCad,Pcbnew,(5.1.6)-1*%
%TF.CreationDate,2020-12-06T17:28:13+01:00*%
%TF.ProjectId,04_La_Plaque_LEDS,30345f4c-615f-4506-9c61-7175655f4c45,rev?*%
%TF.SameCoordinates,Original*%
%TF.FileFunction,Legend,Top*%
%TF.FilePolarity,Positive*%
%FSLAX46Y46*%
G04 Gerber Fmt 4.6, Leading zero omitted, Abs format (unit mm)*
G04 Created by KiCad (PCBNEW (5.1.6)-1) date 2020-12-06 17:28:13*
%MOMM*%
%LPD*%
G01*
G04 APERTURE LIST*
%ADD10C,0.120000*%
%TA.AperFunction,Profile*%
%ADD11C,0.150000*%
%TD*%
%ADD12C,0.150000*%
G04 APERTURE END LIST*
D10*
X110000000Y-65000000D02*
X110000000Y-145000000D01*
X190000000Y-65000000D02*
X110000000Y-65000000D01*
X190000000Y-145000000D02*
X190000000Y-65000000D01*
X110000000Y-145000000D02*
X190000000Y-145000000D01*
D11*
X195000000Y-55000000D02*
G75*
G02*
X200000000Y-60000000I0J-5000000D01*
G01*
X200000000Y-150000000D02*
G75*
G02*
X195000000Y-155000000I-5000000J0D01*
G01*
X105000000Y-155000000D02*
G75*
G02*
X100000000Y-150000000I0J5000000D01*
G01*
X100000000Y-60000000D02*
G75*
G02*
X105000000Y-55000000I5000000J0D01*
G01*
X100000000Y-150000000D02*
X100000000Y-60000000D01*
X195000000Y-155000000D02*
X105000000Y-155000000D01*
X200000000Y-60000000D02*
X200000000Y-150000000D01*
X105000000Y-55000000D02*
X195000000Y-55000000D01*
D10*
%TO.C,C20*%
X138490000Y-107837221D02*
X138490000Y-108162779D01*
X139510000Y-107837221D02*
X139510000Y-108162779D01*
%TO.C,C11*%
X120490000Y-92162779D02*
X120490000Y-91837221D01*
X121510000Y-92162779D02*
X121510000Y-91837221D01*
%TO.C,C15*%
X120490000Y-132162779D02*
X120490000Y-131837221D01*
X121510000Y-132162779D02*
X121510000Y-131837221D01*
%TO.C,C25*%
X140490000Y-72162779D02*
X140490000Y-71837221D01*
X141510000Y-72162779D02*
X141510000Y-71837221D01*
%TO.C,C35*%
X158490000Y-117837221D02*
X158490000Y-118162779D01*
X159510000Y-117837221D02*
X159510000Y-118162779D01*
%TO.C,C5*%
X119510000Y-97837221D02*
X119510000Y-98162779D01*
X118490000Y-97837221D02*
X118490000Y-98162779D01*
%TO.C,C12*%
X120490000Y-102162779D02*
X120490000Y-101837221D01*
X121510000Y-102162779D02*
X121510000Y-101837221D01*
%TO.C,C22*%
X138490000Y-87837221D02*
X138490000Y-88162779D01*
X139510000Y-87837221D02*
X139510000Y-88162779D01*
%TO.C,C32*%
X140490000Y-142162779D02*
X140490000Y-141837221D01*
X141510000Y-142162779D02*
X141510000Y-141837221D01*
%TO.C,C2*%
X118490000Y-127837221D02*
X118490000Y-128162779D01*
X119510000Y-127837221D02*
X119510000Y-128162779D01*
%TO.C,C16*%
X120490000Y-142162779D02*
X120490000Y-141837221D01*
X121510000Y-142162779D02*
X121510000Y-141837221D01*
%TO.C,C26*%
X140490000Y-82162779D02*
X140490000Y-81837221D01*
X141510000Y-82162779D02*
X141510000Y-81837221D01*
%TO.C,C36*%
X158490000Y-107837221D02*
X158490000Y-108162779D01*
X159510000Y-107837221D02*
X159510000Y-108162779D01*
%TO.C,C6*%
X119510000Y-87837221D02*
X119510000Y-88162779D01*
X118490000Y-87837221D02*
X118490000Y-88162779D01*
%TO.C,C19*%
X138490000Y-117837221D02*
X138490000Y-118162779D01*
X139510000Y-117837221D02*
X139510000Y-118162779D01*
%TO.C,C29*%
X141510000Y-112162779D02*
X141510000Y-111837221D01*
X140490000Y-112162779D02*
X140490000Y-111837221D01*
%TO.C,C39*%
X159510000Y-77837221D02*
X159510000Y-78162779D01*
X158490000Y-77837221D02*
X158490000Y-78162779D01*
%TO.C,C9*%
X121510000Y-72162779D02*
X121510000Y-71837221D01*
X120490000Y-72162779D02*
X120490000Y-71837221D01*
%TO.C,C17*%
X139510000Y-137837221D02*
X139510000Y-138162779D01*
X138490000Y-137837221D02*
X138490000Y-138162779D01*
%TO.C,C27*%
X141510000Y-92162779D02*
X141510000Y-91837221D01*
X140490000Y-92162779D02*
X140490000Y-91837221D01*
%TO.C,C37*%
X158490000Y-97837221D02*
X158490000Y-98162779D01*
X159510000Y-97837221D02*
X159510000Y-98162779D01*
%TO.C,C7*%
X119510000Y-77837221D02*
X119510000Y-78162779D01*
X118490000Y-77837221D02*
X118490000Y-78162779D01*
%TO.C,C30*%
X140490000Y-122162779D02*
X140490000Y-121837221D01*
X141510000Y-122162779D02*
X141510000Y-121837221D01*
%TO.C,C40*%
X159510000Y-67837221D02*
X159510000Y-68162779D01*
X158490000Y-67837221D02*
X158490000Y-68162779D01*
%TO.C,C10*%
X121510000Y-82162779D02*
X121510000Y-81837221D01*
X120490000Y-82162779D02*
X120490000Y-81837221D01*
%TO.C,C18*%
X139510000Y-127837221D02*
X139510000Y-128162779D01*
X138490000Y-127837221D02*
X138490000Y-128162779D01*
%TO.C,C28*%
X141510000Y-102162779D02*
X141510000Y-101837221D01*
X140490000Y-102162779D02*
X140490000Y-101837221D01*
%TO.C,C38*%
X159510000Y-87837221D02*
X159510000Y-88162779D01*
X158490000Y-87837221D02*
X158490000Y-88162779D01*
%TO.C,C8*%
X119510000Y-67837221D02*
X119510000Y-68162779D01*
X118490000Y-67837221D02*
X118490000Y-68162779D01*
%TO.C,C13*%
X121510000Y-112162779D02*
X121510000Y-111837221D01*
X120490000Y-112162779D02*
X120490000Y-111837221D01*
%TO.C,C23*%
X139510000Y-77837221D02*
X139510000Y-78162779D01*
X138490000Y-77837221D02*
X138490000Y-78162779D01*
%TO.C,C33*%
X159510000Y-137837221D02*
X159510000Y-138162779D01*
X158490000Y-137837221D02*
X158490000Y-138162779D01*
%TO.C,C3*%
X118490000Y-117837221D02*
X118490000Y-118162779D01*
X119510000Y-117837221D02*
X119510000Y-118162779D01*
%TO.C,C21*%
X138490000Y-97837221D02*
X138490000Y-98162779D01*
X139510000Y-97837221D02*
X139510000Y-98162779D01*
%TO.C,C31*%
X141510000Y-132162779D02*
X141510000Y-131837221D01*
X140490000Y-132162779D02*
X140490000Y-131837221D01*
%TO.C,C1*%
X119510000Y-137837221D02*
X119510000Y-138162779D01*
X118490000Y-137837221D02*
X118490000Y-138162779D01*
%TO.C,C14*%
X121510000Y-122162779D02*
X121510000Y-121837221D01*
X120490000Y-122162779D02*
X120490000Y-121837221D01*
%TO.C,C24*%
X139510000Y-67837221D02*
X139510000Y-68162779D01*
X138490000Y-67837221D02*
X138490000Y-68162779D01*
%TO.C,C34*%
X159510000Y-127837221D02*
X159510000Y-128162779D01*
X158490000Y-127837221D02*
X158490000Y-128162779D01*
%TO.C,C4*%
X118490000Y-107837221D02*
X118490000Y-108162779D01*
X119510000Y-107837221D02*
X119510000Y-108162779D01*
%TO.C,C55*%
X178490000Y-77837221D02*
X178490000Y-78162779D01*
X179510000Y-77837221D02*
X179510000Y-78162779D01*
%TO.C,C62*%
X180490000Y-122162779D02*
X180490000Y-121837221D01*
X181510000Y-122162779D02*
X181510000Y-121837221D01*
%TO.C,C45*%
X161510000Y-112162779D02*
X161510000Y-111837221D01*
X160490000Y-112162779D02*
X160490000Y-111837221D01*
%TO.C,C52*%
X179510000Y-107837221D02*
X179510000Y-108162779D01*
X178490000Y-107837221D02*
X178490000Y-108162779D01*
%TO.C,C61*%
X181510000Y-112162779D02*
X181510000Y-111837221D01*
X180490000Y-112162779D02*
X180490000Y-111837221D01*
%TO.C,C41*%
X160490000Y-72162779D02*
X160490000Y-71837221D01*
X161510000Y-72162779D02*
X161510000Y-71837221D01*
%TO.C,C56*%
X178490000Y-67837221D02*
X178490000Y-68162779D01*
X179510000Y-67837221D02*
X179510000Y-68162779D01*
%TO.C,C63*%
X180490000Y-132162779D02*
X180490000Y-131837221D01*
X181510000Y-132162779D02*
X181510000Y-131837221D01*
%TO.C,C46*%
X161510000Y-122162779D02*
X161510000Y-121837221D01*
X160490000Y-122162779D02*
X160490000Y-121837221D01*
%TO.C,C64*%
X181510000Y-142162779D02*
X181510000Y-141837221D01*
X180490000Y-142162779D02*
X180490000Y-141837221D01*
%TO.C,C49*%
X179510000Y-137837221D02*
X179510000Y-138162779D01*
X178490000Y-137837221D02*
X178490000Y-138162779D01*
%TO.C,C57*%
X181510000Y-72162779D02*
X181510000Y-71837221D01*
X180490000Y-72162779D02*
X180490000Y-71837221D01*
%TO.C,C47*%
X161510000Y-132162779D02*
X161510000Y-131837221D01*
X160490000Y-132162779D02*
X160490000Y-131837221D01*
%TO.C,C50*%
X179510000Y-127837221D02*
X179510000Y-128162779D01*
X178490000Y-127837221D02*
X178490000Y-128162779D01*
%TO.C,C58*%
X181510000Y-82162779D02*
X181510000Y-81837221D01*
X180490000Y-82162779D02*
X180490000Y-81837221D01*
%TO.C,C48*%
X161510000Y-142162779D02*
X161510000Y-141837221D01*
X160490000Y-142162779D02*
X160490000Y-141837221D01*
%TO.C,C53*%
X179510000Y-97837221D02*
X179510000Y-98162779D01*
X178490000Y-97837221D02*
X178490000Y-98162779D01*
%TO.C,C42*%
X160490000Y-82162779D02*
X160490000Y-81837221D01*
X161510000Y-82162779D02*
X161510000Y-81837221D01*
%TO.C,C51*%
X178490000Y-117837221D02*
X178490000Y-118162779D01*
X179510000Y-117837221D02*
X179510000Y-118162779D01*
%TO.C,C54*%
X178490000Y-87837221D02*
X178490000Y-88162779D01*
X179510000Y-87837221D02*
X179510000Y-88162779D01*
%TO.C,C44*%
X161510000Y-102162779D02*
X161510000Y-101837221D01*
X160490000Y-102162779D02*
X160490000Y-101837221D01*
%TO.C,D11*%
X122250000Y-93650000D02*
X122250000Y-86350000D01*
X127750000Y-93650000D02*
X127750000Y-86350000D01*
X127750000Y-86350000D02*
X126600000Y-86350000D01*
%TO.C,D21*%
X137750000Y-96350000D02*
X137750000Y-103650000D01*
X132250000Y-96350000D02*
X132250000Y-103650000D01*
X132250000Y-103650000D02*
X133400000Y-103650000D01*
%TO.C,D31*%
X142250000Y-133650000D02*
X142250000Y-126350000D01*
X147750000Y-133650000D02*
X147750000Y-126350000D01*
X147750000Y-126350000D02*
X146600000Y-126350000D01*
%TO.C,D1*%
X112250000Y-143650000D02*
X113400000Y-143650000D01*
X112250000Y-136350000D02*
X112250000Y-143650000D01*
X117750000Y-136350000D02*
X117750000Y-143650000D01*
%TO.C,D12*%
X127750000Y-96350000D02*
X126600000Y-96350000D01*
X127750000Y-103650000D02*
X127750000Y-96350000D01*
X122250000Y-103650000D02*
X122250000Y-96350000D01*
%TO.C,D22*%
X132250000Y-93650000D02*
X133400000Y-93650000D01*
X132250000Y-86350000D02*
X132250000Y-93650000D01*
X137750000Y-86350000D02*
X137750000Y-93650000D01*
%TO.C,D32*%
X147750000Y-136350000D02*
X146600000Y-136350000D01*
X147750000Y-143650000D02*
X147750000Y-136350000D01*
X142250000Y-143650000D02*
X142250000Y-136350000D01*
%TO.C,D2*%
X117750000Y-126350000D02*
X117750000Y-133650000D01*
X112250000Y-126350000D02*
X112250000Y-133650000D01*
X112250000Y-133650000D02*
X113400000Y-133650000D01*
%TO.C,D13*%
X122250000Y-113650000D02*
X122250000Y-106350000D01*
X127750000Y-113650000D02*
X127750000Y-106350000D01*
X127750000Y-106350000D02*
X126600000Y-106350000D01*
%TO.C,D23*%
X132250000Y-83650000D02*
X133400000Y-83650000D01*
X132250000Y-76350000D02*
X132250000Y-83650000D01*
X137750000Y-76350000D02*
X137750000Y-83650000D01*
%TO.C,D33*%
X157750000Y-136350000D02*
X157750000Y-143650000D01*
X152250000Y-136350000D02*
X152250000Y-143650000D01*
X152250000Y-143650000D02*
X153400000Y-143650000D01*
%TO.C,D3*%
X112250000Y-123650000D02*
X113400000Y-123650000D01*
X112250000Y-116350000D02*
X112250000Y-123650000D01*
X117750000Y-116350000D02*
X117750000Y-123650000D01*
%TO.C,D14*%
X127750000Y-116350000D02*
X126600000Y-116350000D01*
X127750000Y-123650000D02*
X127750000Y-116350000D01*
X122250000Y-123650000D02*
X122250000Y-116350000D01*
%TO.C,D24*%
X132250000Y-73650000D02*
X133400000Y-73650000D01*
X132250000Y-66350000D02*
X132250000Y-73650000D01*
X137750000Y-66350000D02*
X137750000Y-73650000D01*
%TO.C,D34*%
X152250000Y-133650000D02*
X153400000Y-133650000D01*
X152250000Y-126350000D02*
X152250000Y-133650000D01*
X157750000Y-126350000D02*
X157750000Y-133650000D01*
%TO.C,D4*%
X117750000Y-106350000D02*
X117750000Y-113650000D01*
X112250000Y-106350000D02*
X112250000Y-113650000D01*
X112250000Y-113650000D02*
X113400000Y-113650000D01*
%TO.C,D15*%
X122250000Y-133650000D02*
X122250000Y-126350000D01*
X127750000Y-133650000D02*
X127750000Y-126350000D01*
X127750000Y-126350000D02*
X126600000Y-126350000D01*
%TO.C,D25*%
X147750000Y-66350000D02*
X146600000Y-66350000D01*
X147750000Y-73650000D02*
X147750000Y-66350000D01*
X142250000Y-73650000D02*
X142250000Y-66350000D01*
%TO.C,D35*%
X157750000Y-116350000D02*
X157750000Y-123650000D01*
X152250000Y-116350000D02*
X152250000Y-123650000D01*
X152250000Y-123650000D02*
X153400000Y-123650000D01*
%TO.C,D5*%
X112250000Y-103650000D02*
X113400000Y-103650000D01*
X112250000Y-96350000D02*
X112250000Y-103650000D01*
X117750000Y-96350000D02*
X117750000Y-103650000D01*
%TO.C,D16*%
X127750000Y-136350000D02*
X126600000Y-136350000D01*
X127750000Y-143650000D02*
X127750000Y-136350000D01*
X122250000Y-143650000D02*
X122250000Y-136350000D01*
%TO.C,D26*%
X142250000Y-83650000D02*
X142250000Y-76350000D01*
X147750000Y-83650000D02*
X147750000Y-76350000D01*
X147750000Y-76350000D02*
X146600000Y-76350000D01*
%TO.C,D36*%
X152250000Y-113650000D02*
X153400000Y-113650000D01*
X152250000Y-106350000D02*
X152250000Y-113650000D01*
X157750000Y-106350000D02*
X157750000Y-113650000D01*
%TO.C,D6*%
X117750000Y-86350000D02*
X117750000Y-93650000D01*
X112250000Y-86350000D02*
X112250000Y-93650000D01*
X112250000Y-93650000D02*
X113400000Y-93650000D01*
%TO.C,D17*%
X137750000Y-136350000D02*
X137750000Y-143650000D01*
X132250000Y-136350000D02*
X132250000Y-143650000D01*
X132250000Y-143650000D02*
X133400000Y-143650000D01*
%TO.C,D27*%
X147750000Y-86350000D02*
X146600000Y-86350000D01*
X147750000Y-93650000D02*
X147750000Y-86350000D01*
X142250000Y-93650000D02*
X142250000Y-86350000D01*
%TO.C,D37*%
X157750000Y-96350000D02*
X157750000Y-103650000D01*
X152250000Y-96350000D02*
X152250000Y-103650000D01*
X152250000Y-103650000D02*
X153400000Y-103650000D01*
%TO.C,D7*%
X112250000Y-83650000D02*
X113400000Y-83650000D01*
X112250000Y-76350000D02*
X112250000Y-83650000D01*
X117750000Y-76350000D02*
X117750000Y-83650000D01*
%TO.C,D18*%
X132250000Y-133650000D02*
X133400000Y-133650000D01*
X132250000Y-126350000D02*
X132250000Y-133650000D01*
X137750000Y-126350000D02*
X137750000Y-133650000D01*
%TO.C,D28*%
X142250000Y-103650000D02*
X142250000Y-96350000D01*
X147750000Y-103650000D02*
X147750000Y-96350000D01*
X147750000Y-96350000D02*
X146600000Y-96350000D01*
%TO.C,D38*%
X152250000Y-93650000D02*
X153400000Y-93650000D01*
X152250000Y-86350000D02*
X152250000Y-93650000D01*
X157750000Y-86350000D02*
X157750000Y-93650000D01*
%TO.C,D8*%
X117750000Y-66350000D02*
X117750000Y-73650000D01*
X112250000Y-66350000D02*
X112250000Y-73650000D01*
X112250000Y-73650000D02*
X113400000Y-73650000D01*
%TO.C,D19*%
X137750000Y-116350000D02*
X137750000Y-123650000D01*
X132250000Y-116350000D02*
X132250000Y-123650000D01*
X132250000Y-123650000D02*
X133400000Y-123650000D01*
%TO.C,D29*%
X147750000Y-106350000D02*
X146600000Y-106350000D01*
X147750000Y-113650000D02*
X147750000Y-106350000D01*
X142250000Y-113650000D02*
X142250000Y-106350000D01*
%TO.C,D39*%
X157750000Y-76350000D02*
X157750000Y-83650000D01*
X152250000Y-76350000D02*
X152250000Y-83650000D01*
X152250000Y-83650000D02*
X153400000Y-83650000D01*
%TO.C,D9*%
X127750000Y-66350000D02*
X126600000Y-66350000D01*
X127750000Y-73650000D02*
X127750000Y-66350000D01*
X122250000Y-73650000D02*
X122250000Y-66350000D01*
%TO.C,D20*%
X132250000Y-113650000D02*
X133400000Y-113650000D01*
X132250000Y-106350000D02*
X132250000Y-113650000D01*
X137750000Y-106350000D02*
X137750000Y-113650000D01*
%TO.C,D30*%
X142250000Y-123650000D02*
X142250000Y-116350000D01*
X147750000Y-123650000D02*
X147750000Y-116350000D01*
X147750000Y-116350000D02*
X146600000Y-116350000D01*
%TO.C,D40*%
X152250000Y-73650000D02*
X153400000Y-73650000D01*
X152250000Y-66350000D02*
X152250000Y-73650000D01*
X157750000Y-66350000D02*
X157750000Y-73650000D01*
%TO.C,D10*%
X122250000Y-83650000D02*
X122250000Y-76350000D01*
X127750000Y-83650000D02*
X127750000Y-76350000D01*
X127750000Y-76350000D02*
X126600000Y-76350000D01*
%TO.C,D51*%
X177750000Y-116350000D02*
X177750000Y-123650000D01*
X172250000Y-116350000D02*
X172250000Y-123650000D01*
X172250000Y-123650000D02*
X173400000Y-123650000D01*
%TO.C,D61*%
X182250000Y-113650000D02*
X182250000Y-106350000D01*
X187750000Y-113650000D02*
X187750000Y-106350000D01*
X187750000Y-106350000D02*
X186600000Y-106350000D01*
%TO.C,D41*%
X167750000Y-66350000D02*
X166600000Y-66350000D01*
X167750000Y-73650000D02*
X167750000Y-66350000D01*
X162250000Y-73650000D02*
X162250000Y-66350000D01*
%TO.C,D52*%
X172250000Y-113650000D02*
X173400000Y-113650000D01*
X172250000Y-106350000D02*
X172250000Y-113650000D01*
X177750000Y-106350000D02*
X177750000Y-113650000D01*
%TO.C,D62*%
X187750000Y-116350000D02*
X186600000Y-116350000D01*
X187750000Y-123650000D02*
X187750000Y-116350000D01*
X182250000Y-123650000D02*
X182250000Y-116350000D01*
%TO.C,D42*%
X162250000Y-83650000D02*
X162250000Y-76350000D01*
X167750000Y-83650000D02*
X167750000Y-76350000D01*
X167750000Y-76350000D02*
X166600000Y-76350000D01*
%TO.C,D53*%
X177750000Y-96350000D02*
X177750000Y-103650000D01*
X172250000Y-96350000D02*
X172250000Y-103650000D01*
X172250000Y-103650000D02*
X173400000Y-103650000D01*
%TO.C,D63*%
X187750000Y-126350000D02*
X186600000Y-126350000D01*
X187750000Y-133650000D02*
X187750000Y-126350000D01*
X182250000Y-133650000D02*
X182250000Y-126350000D01*
%TO.C,D43*%
X167750000Y-86350000D02*
X166600000Y-86350000D01*
X167750000Y-93650000D02*
X167750000Y-86350000D01*
X162250000Y-93650000D02*
X162250000Y-86350000D01*
%TO.C,D54*%
X172250000Y-93650000D02*
X173400000Y-93650000D01*
X172250000Y-86350000D02*
X172250000Y-93650000D01*
X177750000Y-86350000D02*
X177750000Y-93650000D01*
%TO.C,D64*%
X187750000Y-136350000D02*
X186600000Y-136350000D01*
X187750000Y-143650000D02*
X187750000Y-136350000D01*
X182250000Y-143650000D02*
X182250000Y-136350000D01*
%TO.C,D44*%
X162250000Y-103650000D02*
X162250000Y-96350000D01*
X167750000Y-103650000D02*
X167750000Y-96350000D01*
X167750000Y-96350000D02*
X166600000Y-96350000D01*
%TO.C,D55*%
X177750000Y-76350000D02*
X177750000Y-83650000D01*
X172250000Y-76350000D02*
X172250000Y-83650000D01*
X172250000Y-83650000D02*
X173400000Y-83650000D01*
%TO.C,D45*%
X167750000Y-106350000D02*
X166600000Y-106350000D01*
X167750000Y-113650000D02*
X167750000Y-106350000D01*
X162250000Y-113650000D02*
X162250000Y-106350000D01*
%TO.C,D56*%
X172250000Y-73650000D02*
X173400000Y-73650000D01*
X172250000Y-66350000D02*
X172250000Y-73650000D01*
X177750000Y-66350000D02*
X177750000Y-73650000D01*
%TO.C,D46*%
X162250000Y-123650000D02*
X162250000Y-116350000D01*
X167750000Y-123650000D02*
X167750000Y-116350000D01*
X167750000Y-116350000D02*
X166600000Y-116350000D01*
%TO.C,D57*%
X182250000Y-73650000D02*
X182250000Y-66350000D01*
X187750000Y-73650000D02*
X187750000Y-66350000D01*
X187750000Y-66350000D02*
X186600000Y-66350000D01*
%TO.C,D47*%
X167750000Y-126350000D02*
X166600000Y-126350000D01*
X167750000Y-133650000D02*
X167750000Y-126350000D01*
X162250000Y-133650000D02*
X162250000Y-126350000D01*
%TO.C,D58*%
X187750000Y-76350000D02*
X186600000Y-76350000D01*
X187750000Y-83650000D02*
X187750000Y-76350000D01*
X182250000Y-83650000D02*
X182250000Y-76350000D01*
%TO.C,D48*%
X162250000Y-143650000D02*
X162250000Y-136350000D01*
X167750000Y-143650000D02*
X167750000Y-136350000D01*
X167750000Y-136350000D02*
X166600000Y-136350000D01*
%TO.C,D59*%
X182250000Y-93650000D02*
X182250000Y-86350000D01*
X187750000Y-93650000D02*
X187750000Y-86350000D01*
X187750000Y-86350000D02*
X186600000Y-86350000D01*
%TO.C,D49*%
X172250000Y-143650000D02*
X173400000Y-143650000D01*
X172250000Y-136350000D02*
X172250000Y-143650000D01*
X177750000Y-136350000D02*
X177750000Y-143650000D01*
%TO.C,D60*%
X187750000Y-96350000D02*
X186600000Y-96350000D01*
X187750000Y-103650000D02*
X187750000Y-96350000D01*
X182250000Y-103650000D02*
X182250000Y-96350000D01*
%TO.C,D50*%
X177750000Y-126350000D02*
X177750000Y-133650000D01*
X172250000Y-126350000D02*
X172250000Y-133650000D01*
X172250000Y-133650000D02*
X173400000Y-133650000D01*
%TO.C,C59*%
X180490000Y-92162779D02*
X180490000Y-91837221D01*
X181510000Y-92162779D02*
X181510000Y-91837221D01*
%TO.C,C60*%
X181510000Y-102162779D02*
X181510000Y-101837221D01*
X180490000Y-102162779D02*
X180490000Y-101837221D01*
%TO.C,C43*%
X161510000Y-92162779D02*
X161510000Y-91837221D01*
X160490000Y-92162779D02*
X160490000Y-91837221D01*
%TD*%
%TO.C,H3*%
D12*
X194238095Y-146252380D02*
X194238095Y-145252380D01*
X194238095Y-145728571D02*
X194809523Y-145728571D01*
X194809523Y-146252380D02*
X194809523Y-145252380D01*
X195190476Y-145252380D02*
X195809523Y-145252380D01*
X195476190Y-145633333D01*
X195619047Y-145633333D01*
X195714285Y-145680952D01*
X195761904Y-145728571D01*
X195809523Y-145823809D01*
X195809523Y-146061904D01*
X195761904Y-146157142D01*
X195714285Y-146204761D01*
X195619047Y-146252380D01*
X195333333Y-146252380D01*
X195238095Y-146204761D01*
X195190476Y-146157142D01*
%TO.C,D11*%
X123952380Y-91214285D02*
X122952380Y-91214285D01*
X122952380Y-90976190D01*
X123000000Y-90833333D01*
X123095238Y-90738095D01*
X123190476Y-90690476D01*
X123380952Y-90642857D01*
X123523809Y-90642857D01*
X123714285Y-90690476D01*
X123809523Y-90738095D01*
X123904761Y-90833333D01*
X123952380Y-90976190D01*
X123952380Y-91214285D01*
X123952380Y-89690476D02*
X123952380Y-90261904D01*
X123952380Y-89976190D02*
X122952380Y-89976190D01*
X123095238Y-90071428D01*
X123190476Y-90166666D01*
X123238095Y-90261904D01*
X123952380Y-88738095D02*
X123952380Y-89309523D01*
X123952380Y-89023809D02*
X122952380Y-89023809D01*
X123095238Y-89119047D01*
X123190476Y-89214285D01*
X123238095Y-89309523D01*
X123852380Y-93864285D02*
X123852380Y-94435714D01*
X123852380Y-94150000D02*
X122852380Y-94150000D01*
X122995238Y-94245238D01*
X123090476Y-94340476D01*
X123138095Y-94435714D01*
%TO.C,D21*%
X136952380Y-101214285D02*
X135952380Y-101214285D01*
X135952380Y-100976190D01*
X136000000Y-100833333D01*
X136095238Y-100738095D01*
X136190476Y-100690476D01*
X136380952Y-100642857D01*
X136523809Y-100642857D01*
X136714285Y-100690476D01*
X136809523Y-100738095D01*
X136904761Y-100833333D01*
X136952380Y-100976190D01*
X136952380Y-101214285D01*
X136047619Y-100261904D02*
X136000000Y-100214285D01*
X135952380Y-100119047D01*
X135952380Y-99880952D01*
X136000000Y-99785714D01*
X136047619Y-99738095D01*
X136142857Y-99690476D01*
X136238095Y-99690476D01*
X136380952Y-99738095D01*
X136952380Y-100309523D01*
X136952380Y-99690476D01*
X136952380Y-98738095D02*
X136952380Y-99309523D01*
X136952380Y-99023809D02*
X135952380Y-99023809D01*
X136095238Y-99119047D01*
X136190476Y-99214285D01*
X136238095Y-99309523D01*
X137052380Y-95564285D02*
X137052380Y-96135714D01*
X137052380Y-95850000D02*
X136052380Y-95850000D01*
X136195238Y-95945238D01*
X136290476Y-96040476D01*
X136338095Y-96135714D01*
%TO.C,D31*%
X143702380Y-131214285D02*
X142702380Y-131214285D01*
X142702380Y-130976190D01*
X142750000Y-130833333D01*
X142845238Y-130738095D01*
X142940476Y-130690476D01*
X143130952Y-130642857D01*
X143273809Y-130642857D01*
X143464285Y-130690476D01*
X143559523Y-130738095D01*
X143654761Y-130833333D01*
X143702380Y-130976190D01*
X143702380Y-131214285D01*
X142702380Y-130309523D02*
X142702380Y-129690476D01*
X143083333Y-130023809D01*
X143083333Y-129880952D01*
X143130952Y-129785714D01*
X143178571Y-129738095D01*
X143273809Y-129690476D01*
X143511904Y-129690476D01*
X143607142Y-129738095D01*
X143654761Y-129785714D01*
X143702380Y-129880952D01*
X143702380Y-130166666D01*
X143654761Y-130261904D01*
X143607142Y-130309523D01*
X143702380Y-128738095D02*
X143702380Y-129309523D01*
X143702380Y-129023809D02*
X142702380Y-129023809D01*
X142845238Y-129119047D01*
X142940476Y-129214285D01*
X142988095Y-129309523D01*
X143852380Y-133864285D02*
X143852380Y-134435714D01*
X143852380Y-134150000D02*
X142852380Y-134150000D01*
X142995238Y-134245238D01*
X143090476Y-134340476D01*
X143138095Y-134435714D01*
%TO.C,D1*%
X117202380Y-140738095D02*
X116202380Y-140738095D01*
X116202380Y-140500000D01*
X116250000Y-140357142D01*
X116345238Y-140261904D01*
X116440476Y-140214285D01*
X116630952Y-140166666D01*
X116773809Y-140166666D01*
X116964285Y-140214285D01*
X117059523Y-140261904D01*
X117154761Y-140357142D01*
X117202380Y-140500000D01*
X117202380Y-140738095D01*
X117202380Y-139214285D02*
X117202380Y-139785714D01*
X117202380Y-139500000D02*
X116202380Y-139500000D01*
X116345238Y-139595238D01*
X116440476Y-139690476D01*
X116488095Y-139785714D01*
X117052380Y-135564285D02*
X117052380Y-136135714D01*
X117052380Y-135850000D02*
X116052380Y-135850000D01*
X116195238Y-135945238D01*
X116290476Y-136040476D01*
X116338095Y-136135714D01*
%TO.C,D12*%
X123702380Y-101214285D02*
X122702380Y-101214285D01*
X122702380Y-100976190D01*
X122750000Y-100833333D01*
X122845238Y-100738095D01*
X122940476Y-100690476D01*
X123130952Y-100642857D01*
X123273809Y-100642857D01*
X123464285Y-100690476D01*
X123559523Y-100738095D01*
X123654761Y-100833333D01*
X123702380Y-100976190D01*
X123702380Y-101214285D01*
X123702380Y-99690476D02*
X123702380Y-100261904D01*
X123702380Y-99976190D02*
X122702380Y-99976190D01*
X122845238Y-100071428D01*
X122940476Y-100166666D01*
X122988095Y-100261904D01*
X122797619Y-99309523D02*
X122750000Y-99261904D01*
X122702380Y-99166666D01*
X122702380Y-98928571D01*
X122750000Y-98833333D01*
X122797619Y-98785714D01*
X122892857Y-98738095D01*
X122988095Y-98738095D01*
X123130952Y-98785714D01*
X123702380Y-99357142D01*
X123702380Y-98738095D01*
X123852380Y-103864285D02*
X123852380Y-104435714D01*
X123852380Y-104150000D02*
X122852380Y-104150000D01*
X122995238Y-104245238D01*
X123090476Y-104340476D01*
X123138095Y-104435714D01*
%TO.C,D22*%
X136952380Y-91214285D02*
X135952380Y-91214285D01*
X135952380Y-90976190D01*
X136000000Y-90833333D01*
X136095238Y-90738095D01*
X136190476Y-90690476D01*
X136380952Y-90642857D01*
X136523809Y-90642857D01*
X136714285Y-90690476D01*
X136809523Y-90738095D01*
X136904761Y-90833333D01*
X136952380Y-90976190D01*
X136952380Y-91214285D01*
X136047619Y-90261904D02*
X136000000Y-90214285D01*
X135952380Y-90119047D01*
X135952380Y-89880952D01*
X136000000Y-89785714D01*
X136047619Y-89738095D01*
X136142857Y-89690476D01*
X136238095Y-89690476D01*
X136380952Y-89738095D01*
X136952380Y-90309523D01*
X136952380Y-89690476D01*
X136047619Y-89309523D02*
X136000000Y-89261904D01*
X135952380Y-89166666D01*
X135952380Y-88928571D01*
X136000000Y-88833333D01*
X136047619Y-88785714D01*
X136142857Y-88738095D01*
X136238095Y-88738095D01*
X136380952Y-88785714D01*
X136952380Y-89357142D01*
X136952380Y-88738095D01*
X137052380Y-85564285D02*
X137052380Y-86135714D01*
X137052380Y-85850000D02*
X136052380Y-85850000D01*
X136195238Y-85945238D01*
X136290476Y-86040476D01*
X136338095Y-86135714D01*
%TO.C,D32*%
X143702380Y-141214285D02*
X142702380Y-141214285D01*
X142702380Y-140976190D01*
X142750000Y-140833333D01*
X142845238Y-140738095D01*
X142940476Y-140690476D01*
X143130952Y-140642857D01*
X143273809Y-140642857D01*
X143464285Y-140690476D01*
X143559523Y-140738095D01*
X143654761Y-140833333D01*
X143702380Y-140976190D01*
X143702380Y-141214285D01*
X142702380Y-140309523D02*
X142702380Y-139690476D01*
X143083333Y-140023809D01*
X143083333Y-139880952D01*
X143130952Y-139785714D01*
X143178571Y-139738095D01*
X143273809Y-139690476D01*
X143511904Y-139690476D01*
X143607142Y-139738095D01*
X143654761Y-139785714D01*
X143702380Y-139880952D01*
X143702380Y-140166666D01*
X143654761Y-140261904D01*
X143607142Y-140309523D01*
X142797619Y-139309523D02*
X142750000Y-139261904D01*
X142702380Y-139166666D01*
X142702380Y-138928571D01*
X142750000Y-138833333D01*
X142797619Y-138785714D01*
X142892857Y-138738095D01*
X142988095Y-138738095D01*
X143130952Y-138785714D01*
X143702380Y-139357142D01*
X143702380Y-138738095D01*
X143852380Y-143864285D02*
X143852380Y-144435714D01*
X143852380Y-144150000D02*
X142852380Y-144150000D01*
X142995238Y-144245238D01*
X143090476Y-144340476D01*
X143138095Y-144435714D01*
%TO.C,D2*%
X117202380Y-130738095D02*
X116202380Y-130738095D01*
X116202380Y-130500000D01*
X116250000Y-130357142D01*
X116345238Y-130261904D01*
X116440476Y-130214285D01*
X116630952Y-130166666D01*
X116773809Y-130166666D01*
X116964285Y-130214285D01*
X117059523Y-130261904D01*
X117154761Y-130357142D01*
X117202380Y-130500000D01*
X117202380Y-130738095D01*
X116297619Y-129785714D02*
X116250000Y-129738095D01*
X116202380Y-129642857D01*
X116202380Y-129404761D01*
X116250000Y-129309523D01*
X116297619Y-129261904D01*
X116392857Y-129214285D01*
X116488095Y-129214285D01*
X116630952Y-129261904D01*
X117202380Y-129833333D01*
X117202380Y-129214285D01*
X117052380Y-125564285D02*
X117052380Y-126135714D01*
X117052380Y-125850000D02*
X116052380Y-125850000D01*
X116195238Y-125945238D01*
X116290476Y-126040476D01*
X116338095Y-126135714D01*
%TO.C,D13*%
X123702380Y-111214285D02*
X122702380Y-111214285D01*
X122702380Y-110976190D01*
X122750000Y-110833333D01*
X122845238Y-110738095D01*
X122940476Y-110690476D01*
X123130952Y-110642857D01*
X123273809Y-110642857D01*
X123464285Y-110690476D01*
X123559523Y-110738095D01*
X123654761Y-110833333D01*
X123702380Y-110976190D01*
X123702380Y-111214285D01*
X123702380Y-109690476D02*
X123702380Y-110261904D01*
X123702380Y-109976190D02*
X122702380Y-109976190D01*
X122845238Y-110071428D01*
X122940476Y-110166666D01*
X122988095Y-110261904D01*
X122702380Y-109357142D02*
X122702380Y-108738095D01*
X123083333Y-109071428D01*
X123083333Y-108928571D01*
X123130952Y-108833333D01*
X123178571Y-108785714D01*
X123273809Y-108738095D01*
X123511904Y-108738095D01*
X123607142Y-108785714D01*
X123654761Y-108833333D01*
X123702380Y-108928571D01*
X123702380Y-109214285D01*
X123654761Y-109309523D01*
X123607142Y-109357142D01*
X123852380Y-113864285D02*
X123852380Y-114435714D01*
X123852380Y-114150000D02*
X122852380Y-114150000D01*
X122995238Y-114245238D01*
X123090476Y-114340476D01*
X123138095Y-114435714D01*
%TO.C,D23*%
X136952380Y-81214285D02*
X135952380Y-81214285D01*
X135952380Y-80976190D01*
X136000000Y-80833333D01*
X136095238Y-80738095D01*
X136190476Y-80690476D01*
X136380952Y-80642857D01*
X136523809Y-80642857D01*
X136714285Y-80690476D01*
X136809523Y-80738095D01*
X136904761Y-80833333D01*
X136952380Y-80976190D01*
X136952380Y-81214285D01*
X136047619Y-80261904D02*
X136000000Y-80214285D01*
X135952380Y-80119047D01*
X135952380Y-79880952D01*
X136000000Y-79785714D01*
X136047619Y-79738095D01*
X136142857Y-79690476D01*
X136238095Y-79690476D01*
X136380952Y-79738095D01*
X136952380Y-80309523D01*
X136952380Y-79690476D01*
X135952380Y-79357142D02*
X135952380Y-78738095D01*
X136333333Y-79071428D01*
X136333333Y-78928571D01*
X136380952Y-78833333D01*
X136428571Y-78785714D01*
X136523809Y-78738095D01*
X136761904Y-78738095D01*
X136857142Y-78785714D01*
X136904761Y-78833333D01*
X136952380Y-78928571D01*
X136952380Y-79214285D01*
X136904761Y-79309523D01*
X136857142Y-79357142D01*
X137052380Y-75564285D02*
X137052380Y-76135714D01*
X137052380Y-75850000D02*
X136052380Y-75850000D01*
X136195238Y-75945238D01*
X136290476Y-76040476D01*
X136338095Y-76135714D01*
%TO.C,D33*%
X156952380Y-141214285D02*
X155952380Y-141214285D01*
X155952380Y-140976190D01*
X156000000Y-140833333D01*
X156095238Y-140738095D01*
X156190476Y-140690476D01*
X156380952Y-140642857D01*
X156523809Y-140642857D01*
X156714285Y-140690476D01*
X156809523Y-140738095D01*
X156904761Y-140833333D01*
X156952380Y-140976190D01*
X156952380Y-141214285D01*
X155952380Y-140309523D02*
X155952380Y-139690476D01*
X156333333Y-140023809D01*
X156333333Y-139880952D01*
X156380952Y-139785714D01*
X156428571Y-139738095D01*
X156523809Y-139690476D01*
X156761904Y-139690476D01*
X156857142Y-139738095D01*
X156904761Y-139785714D01*
X156952380Y-139880952D01*
X156952380Y-140166666D01*
X156904761Y-140261904D01*
X156857142Y-140309523D01*
X155952380Y-139357142D02*
X155952380Y-138738095D01*
X156333333Y-139071428D01*
X156333333Y-138928571D01*
X156380952Y-138833333D01*
X156428571Y-138785714D01*
X156523809Y-138738095D01*
X156761904Y-138738095D01*
X156857142Y-138785714D01*
X156904761Y-138833333D01*
X156952380Y-138928571D01*
X156952380Y-139214285D01*
X156904761Y-139309523D01*
X156857142Y-139357142D01*
X157052380Y-135564285D02*
X157052380Y-136135714D01*
X157052380Y-135850000D02*
X156052380Y-135850000D01*
X156195238Y-135945238D01*
X156290476Y-136040476D01*
X156338095Y-136135714D01*
%TO.C,D3*%
X116952380Y-120738095D02*
X115952380Y-120738095D01*
X115952380Y-120500000D01*
X116000000Y-120357142D01*
X116095238Y-120261904D01*
X116190476Y-120214285D01*
X116380952Y-120166666D01*
X116523809Y-120166666D01*
X116714285Y-120214285D01*
X116809523Y-120261904D01*
X116904761Y-120357142D01*
X116952380Y-120500000D01*
X116952380Y-120738095D01*
X115952380Y-119833333D02*
X115952380Y-119214285D01*
X116333333Y-119547619D01*
X116333333Y-119404761D01*
X116380952Y-119309523D01*
X116428571Y-119261904D01*
X116523809Y-119214285D01*
X116761904Y-119214285D01*
X116857142Y-119261904D01*
X116904761Y-119309523D01*
X116952380Y-119404761D01*
X116952380Y-119690476D01*
X116904761Y-119785714D01*
X116857142Y-119833333D01*
X117052380Y-115564285D02*
X117052380Y-116135714D01*
X117052380Y-115850000D02*
X116052380Y-115850000D01*
X116195238Y-115945238D01*
X116290476Y-116040476D01*
X116338095Y-116135714D01*
%TO.C,D14*%
X123952380Y-121214285D02*
X122952380Y-121214285D01*
X122952380Y-120976190D01*
X123000000Y-120833333D01*
X123095238Y-120738095D01*
X123190476Y-120690476D01*
X123380952Y-120642857D01*
X123523809Y-120642857D01*
X123714285Y-120690476D01*
X123809523Y-120738095D01*
X123904761Y-120833333D01*
X123952380Y-120976190D01*
X123952380Y-121214285D01*
X123952380Y-119690476D02*
X123952380Y-120261904D01*
X123952380Y-119976190D02*
X122952380Y-119976190D01*
X123095238Y-120071428D01*
X123190476Y-120166666D01*
X123238095Y-120261904D01*
X123285714Y-118833333D02*
X123952380Y-118833333D01*
X122904761Y-119071428D02*
X123619047Y-119309523D01*
X123619047Y-118690476D01*
X123852380Y-123864285D02*
X123852380Y-124435714D01*
X123852380Y-124150000D02*
X122852380Y-124150000D01*
X122995238Y-124245238D01*
X123090476Y-124340476D01*
X123138095Y-124435714D01*
%TO.C,D24*%
X136952380Y-71214285D02*
X135952380Y-71214285D01*
X135952380Y-70976190D01*
X136000000Y-70833333D01*
X136095238Y-70738095D01*
X136190476Y-70690476D01*
X136380952Y-70642857D01*
X136523809Y-70642857D01*
X136714285Y-70690476D01*
X136809523Y-70738095D01*
X136904761Y-70833333D01*
X136952380Y-70976190D01*
X136952380Y-71214285D01*
X136047619Y-70261904D02*
X136000000Y-70214285D01*
X135952380Y-70119047D01*
X135952380Y-69880952D01*
X136000000Y-69785714D01*
X136047619Y-69738095D01*
X136142857Y-69690476D01*
X136238095Y-69690476D01*
X136380952Y-69738095D01*
X136952380Y-70309523D01*
X136952380Y-69690476D01*
X136285714Y-68833333D02*
X136952380Y-68833333D01*
X135904761Y-69071428D02*
X136619047Y-69309523D01*
X136619047Y-68690476D01*
X137052380Y-65564285D02*
X137052380Y-66135714D01*
X137052380Y-65850000D02*
X136052380Y-65850000D01*
X136195238Y-65945238D01*
X136290476Y-66040476D01*
X136338095Y-66135714D01*
%TO.C,D34*%
X156952380Y-131214285D02*
X155952380Y-131214285D01*
X155952380Y-130976190D01*
X156000000Y-130833333D01*
X156095238Y-130738095D01*
X156190476Y-130690476D01*
X156380952Y-130642857D01*
X156523809Y-130642857D01*
X156714285Y-130690476D01*
X156809523Y-130738095D01*
X156904761Y-130833333D01*
X156952380Y-130976190D01*
X156952380Y-131214285D01*
X155952380Y-130309523D02*
X155952380Y-129690476D01*
X156333333Y-130023809D01*
X156333333Y-129880952D01*
X156380952Y-129785714D01*
X156428571Y-129738095D01*
X156523809Y-129690476D01*
X156761904Y-129690476D01*
X156857142Y-129738095D01*
X156904761Y-129785714D01*
X156952380Y-129880952D01*
X156952380Y-130166666D01*
X156904761Y-130261904D01*
X156857142Y-130309523D01*
X156285714Y-128833333D02*
X156952380Y-128833333D01*
X155904761Y-129071428D02*
X156619047Y-129309523D01*
X156619047Y-128690476D01*
X157052380Y-125564285D02*
X157052380Y-126135714D01*
X157052380Y-125850000D02*
X156052380Y-125850000D01*
X156195238Y-125945238D01*
X156290476Y-126040476D01*
X156338095Y-126135714D01*
%TO.C,D4*%
X116952380Y-110595237D02*
X115952380Y-110595237D01*
X115952380Y-110357142D01*
X116000000Y-110214284D01*
X116095238Y-110119046D01*
X116190476Y-110071427D01*
X116380952Y-110023808D01*
X116523809Y-110023808D01*
X116714285Y-110071427D01*
X116809523Y-110119046D01*
X116904761Y-110214284D01*
X116952380Y-110357142D01*
X116952380Y-110595237D01*
X116285714Y-109166665D02*
X116952380Y-109166665D01*
X115904761Y-109404761D02*
X116619047Y-109642856D01*
X116619047Y-109023808D01*
X117052380Y-105564285D02*
X117052380Y-106135714D01*
X117052380Y-105850000D02*
X116052380Y-105850000D01*
X116195238Y-105945238D01*
X116290476Y-106040476D01*
X116338095Y-106135714D01*
%TO.C,D15*%
X123952380Y-131214285D02*
X122952380Y-131214285D01*
X122952380Y-130976190D01*
X123000000Y-130833333D01*
X123095238Y-130738095D01*
X123190476Y-130690476D01*
X123380952Y-130642857D01*
X123523809Y-130642857D01*
X123714285Y-130690476D01*
X123809523Y-130738095D01*
X123904761Y-130833333D01*
X123952380Y-130976190D01*
X123952380Y-131214285D01*
X123952380Y-129690476D02*
X123952380Y-130261904D01*
X123952380Y-129976190D02*
X122952380Y-129976190D01*
X123095238Y-130071428D01*
X123190476Y-130166666D01*
X123238095Y-130261904D01*
X122952380Y-128785714D02*
X122952380Y-129261904D01*
X123428571Y-129309523D01*
X123380952Y-129261904D01*
X123333333Y-129166666D01*
X123333333Y-128928571D01*
X123380952Y-128833333D01*
X123428571Y-128785714D01*
X123523809Y-128738095D01*
X123761904Y-128738095D01*
X123857142Y-128785714D01*
X123904761Y-128833333D01*
X123952380Y-128928571D01*
X123952380Y-129166666D01*
X123904761Y-129261904D01*
X123857142Y-129309523D01*
X123852380Y-133864285D02*
X123852380Y-134435714D01*
X123852380Y-134150000D02*
X122852380Y-134150000D01*
X122995238Y-134245238D01*
X123090476Y-134340476D01*
X123138095Y-134435714D01*
%TO.C,D25*%
X143702380Y-71214285D02*
X142702380Y-71214285D01*
X142702380Y-70976190D01*
X142750000Y-70833333D01*
X142845238Y-70738095D01*
X142940476Y-70690476D01*
X143130952Y-70642857D01*
X143273809Y-70642857D01*
X143464285Y-70690476D01*
X143559523Y-70738095D01*
X143654761Y-70833333D01*
X143702380Y-70976190D01*
X143702380Y-71214285D01*
X142797619Y-70261904D02*
X142750000Y-70214285D01*
X142702380Y-70119047D01*
X142702380Y-69880952D01*
X142750000Y-69785714D01*
X142797619Y-69738095D01*
X142892857Y-69690476D01*
X142988095Y-69690476D01*
X143130952Y-69738095D01*
X143702380Y-70309523D01*
X143702380Y-69690476D01*
X142702380Y-68785714D02*
X142702380Y-69261904D01*
X143178571Y-69309523D01*
X143130952Y-69261904D01*
X143083333Y-69166666D01*
X143083333Y-68928571D01*
X143130952Y-68833333D01*
X143178571Y-68785714D01*
X143273809Y-68738095D01*
X143511904Y-68738095D01*
X143607142Y-68785714D01*
X143654761Y-68833333D01*
X143702380Y-68928571D01*
X143702380Y-69166666D01*
X143654761Y-69261904D01*
X143607142Y-69309523D01*
X143852380Y-73864285D02*
X143852380Y-74435714D01*
X143852380Y-74150000D02*
X142852380Y-74150000D01*
X142995238Y-74245238D01*
X143090476Y-74340476D01*
X143138095Y-74435714D01*
%TO.C,D35*%
X156952380Y-121214285D02*
X155952380Y-121214285D01*
X155952380Y-120976190D01*
X156000000Y-120833333D01*
X156095238Y-120738095D01*
X156190476Y-120690476D01*
X156380952Y-120642857D01*
X156523809Y-120642857D01*
X156714285Y-120690476D01*
X156809523Y-120738095D01*
X156904761Y-120833333D01*
X156952380Y-120976190D01*
X156952380Y-121214285D01*
X155952380Y-120309523D02*
X155952380Y-119690476D01*
X156333333Y-120023809D01*
X156333333Y-119880952D01*
X156380952Y-119785714D01*
X156428571Y-119738095D01*
X156523809Y-119690476D01*
X156761904Y-119690476D01*
X156857142Y-119738095D01*
X156904761Y-119785714D01*
X156952380Y-119880952D01*
X156952380Y-120166666D01*
X156904761Y-120261904D01*
X156857142Y-120309523D01*
X155952380Y-118785714D02*
X155952380Y-119261904D01*
X156428571Y-119309523D01*
X156380952Y-119261904D01*
X156333333Y-119166666D01*
X156333333Y-118928571D01*
X156380952Y-118833333D01*
X156428571Y-118785714D01*
X156523809Y-118738095D01*
X156761904Y-118738095D01*
X156857142Y-118785714D01*
X156904761Y-118833333D01*
X156952380Y-118928571D01*
X156952380Y-119166666D01*
X156904761Y-119261904D01*
X156857142Y-119309523D01*
X157052380Y-115564285D02*
X157052380Y-116135714D01*
X157052380Y-115850000D02*
X156052380Y-115850000D01*
X156195238Y-115945238D01*
X156290476Y-116040476D01*
X156338095Y-116135714D01*
%TO.C,D5*%
X117202380Y-100738095D02*
X116202380Y-100738095D01*
X116202380Y-100500000D01*
X116250000Y-100357142D01*
X116345238Y-100261904D01*
X116440476Y-100214285D01*
X116630952Y-100166666D01*
X116773809Y-100166666D01*
X116964285Y-100214285D01*
X117059523Y-100261904D01*
X117154761Y-100357142D01*
X117202380Y-100500000D01*
X117202380Y-100738095D01*
X116202380Y-99261904D02*
X116202380Y-99738095D01*
X116678571Y-99785714D01*
X116630952Y-99738095D01*
X116583333Y-99642857D01*
X116583333Y-99404761D01*
X116630952Y-99309523D01*
X116678571Y-99261904D01*
X116773809Y-99214285D01*
X117011904Y-99214285D01*
X117107142Y-99261904D01*
X117154761Y-99309523D01*
X117202380Y-99404761D01*
X117202380Y-99642857D01*
X117154761Y-99738095D01*
X117107142Y-99785714D01*
X117052380Y-95564285D02*
X117052380Y-96135714D01*
X117052380Y-95850000D02*
X116052380Y-95850000D01*
X116195238Y-95945238D01*
X116290476Y-96040476D01*
X116338095Y-96135714D01*
%TO.C,D16*%
X123952380Y-141214285D02*
X122952380Y-141214285D01*
X122952380Y-140976190D01*
X123000000Y-140833333D01*
X123095238Y-140738095D01*
X123190476Y-140690476D01*
X123380952Y-140642857D01*
X123523809Y-140642857D01*
X123714285Y-140690476D01*
X123809523Y-140738095D01*
X123904761Y-140833333D01*
X123952380Y-140976190D01*
X123952380Y-141214285D01*
X123952380Y-139690476D02*
X123952380Y-140261904D01*
X123952380Y-139976190D02*
X122952380Y-139976190D01*
X123095238Y-140071428D01*
X123190476Y-140166666D01*
X123238095Y-140261904D01*
X122952380Y-138833333D02*
X122952380Y-139023809D01*
X123000000Y-139119047D01*
X123047619Y-139166666D01*
X123190476Y-139261904D01*
X123380952Y-139309523D01*
X123761904Y-139309523D01*
X123857142Y-139261904D01*
X123904761Y-139214285D01*
X123952380Y-139119047D01*
X123952380Y-138928571D01*
X123904761Y-138833333D01*
X123857142Y-138785714D01*
X123761904Y-138738095D01*
X123523809Y-138738095D01*
X123428571Y-138785714D01*
X123380952Y-138833333D01*
X123333333Y-138928571D01*
X123333333Y-139119047D01*
X123380952Y-139214285D01*
X123428571Y-139261904D01*
X123523809Y-139309523D01*
X123852380Y-143864285D02*
X123852380Y-144435714D01*
X123852380Y-144150000D02*
X122852380Y-144150000D01*
X122995238Y-144245238D01*
X123090476Y-144340476D01*
X123138095Y-144435714D01*
%TO.C,D26*%
X143702380Y-81214285D02*
X142702380Y-81214285D01*
X142702380Y-80976190D01*
X142750000Y-80833333D01*
X142845238Y-80738095D01*
X142940476Y-80690476D01*
X143130952Y-80642857D01*
X143273809Y-80642857D01*
X143464285Y-80690476D01*
X143559523Y-80738095D01*
X143654761Y-80833333D01*
X143702380Y-80976190D01*
X143702380Y-81214285D01*
X142797619Y-80261904D02*
X142750000Y-80214285D01*
X142702380Y-80119047D01*
X142702380Y-79880952D01*
X142750000Y-79785714D01*
X142797619Y-79738095D01*
X142892857Y-79690476D01*
X142988095Y-79690476D01*
X143130952Y-79738095D01*
X143702380Y-80309523D01*
X143702380Y-79690476D01*
X142702380Y-78833333D02*
X142702380Y-79023809D01*
X142750000Y-79119047D01*
X142797619Y-79166666D01*
X142940476Y-79261904D01*
X143130952Y-79309523D01*
X143511904Y-79309523D01*
X143607142Y-79261904D01*
X143654761Y-79214285D01*
X143702380Y-79119047D01*
X143702380Y-78928571D01*
X143654761Y-78833333D01*
X143607142Y-78785714D01*
X143511904Y-78738095D01*
X143273809Y-78738095D01*
X143178571Y-78785714D01*
X143130952Y-78833333D01*
X143083333Y-78928571D01*
X143083333Y-79119047D01*
X143130952Y-79214285D01*
X143178571Y-79261904D01*
X143273809Y-79309523D01*
X143852380Y-83864285D02*
X143852380Y-84435714D01*
X143852380Y-84150000D02*
X142852380Y-84150000D01*
X142995238Y-84245238D01*
X143090476Y-84340476D01*
X143138095Y-84435714D01*
%TO.C,D36*%
X156952380Y-111214285D02*
X155952380Y-111214285D01*
X155952380Y-110976190D01*
X156000000Y-110833333D01*
X156095238Y-110738095D01*
X156190476Y-110690476D01*
X156380952Y-110642857D01*
X156523809Y-110642857D01*
X156714285Y-110690476D01*
X156809523Y-110738095D01*
X156904761Y-110833333D01*
X156952380Y-110976190D01*
X156952380Y-111214285D01*
X155952380Y-110309523D02*
X155952380Y-109690476D01*
X156333333Y-110023809D01*
X156333333Y-109880952D01*
X156380952Y-109785714D01*
X156428571Y-109738095D01*
X156523809Y-109690476D01*
X156761904Y-109690476D01*
X156857142Y-109738095D01*
X156904761Y-109785714D01*
X156952380Y-109880952D01*
X156952380Y-110166666D01*
X156904761Y-110261904D01*
X156857142Y-110309523D01*
X155952380Y-108833333D02*
X155952380Y-109023809D01*
X156000000Y-109119047D01*
X156047619Y-109166666D01*
X156190476Y-109261904D01*
X156380952Y-109309523D01*
X156761904Y-109309523D01*
X156857142Y-109261904D01*
X156904761Y-109214285D01*
X156952380Y-109119047D01*
X156952380Y-108928571D01*
X156904761Y-108833333D01*
X156857142Y-108785714D01*
X156761904Y-108738095D01*
X156523809Y-108738095D01*
X156428571Y-108785714D01*
X156380952Y-108833333D01*
X156333333Y-108928571D01*
X156333333Y-109119047D01*
X156380952Y-109214285D01*
X156428571Y-109261904D01*
X156523809Y-109309523D01*
X157052380Y-105564285D02*
X157052380Y-106135714D01*
X157052380Y-105850000D02*
X156052380Y-105850000D01*
X156195238Y-105945238D01*
X156290476Y-106040476D01*
X156338095Y-106135714D01*
%TO.C,D6*%
X116952380Y-90738095D02*
X115952380Y-90738095D01*
X115952380Y-90500000D01*
X116000000Y-90357142D01*
X116095238Y-90261904D01*
X116190476Y-90214285D01*
X116380952Y-90166666D01*
X116523809Y-90166666D01*
X116714285Y-90214285D01*
X116809523Y-90261904D01*
X116904761Y-90357142D01*
X116952380Y-90500000D01*
X116952380Y-90738095D01*
X115952380Y-89309523D02*
X115952380Y-89500000D01*
X116000000Y-89595238D01*
X116047619Y-89642857D01*
X116190476Y-89738095D01*
X116380952Y-89785714D01*
X116761904Y-89785714D01*
X116857142Y-89738095D01*
X116904761Y-89690476D01*
X116952380Y-89595238D01*
X116952380Y-89404761D01*
X116904761Y-89309523D01*
X116857142Y-89261904D01*
X116761904Y-89214285D01*
X116523809Y-89214285D01*
X116428571Y-89261904D01*
X116380952Y-89309523D01*
X116333333Y-89404761D01*
X116333333Y-89595238D01*
X116380952Y-89690476D01*
X116428571Y-89738095D01*
X116523809Y-89785714D01*
X117052380Y-85564285D02*
X117052380Y-86135714D01*
X117052380Y-85850000D02*
X116052380Y-85850000D01*
X116195238Y-85945238D01*
X116290476Y-86040476D01*
X116338095Y-86135714D01*
%TO.C,D17*%
X136952380Y-141214285D02*
X135952380Y-141214285D01*
X135952380Y-140976190D01*
X136000000Y-140833333D01*
X136095238Y-140738095D01*
X136190476Y-140690476D01*
X136380952Y-140642857D01*
X136523809Y-140642857D01*
X136714285Y-140690476D01*
X136809523Y-140738095D01*
X136904761Y-140833333D01*
X136952380Y-140976190D01*
X136952380Y-141214285D01*
X136952380Y-139690476D02*
X136952380Y-140261904D01*
X136952380Y-139976190D02*
X135952380Y-139976190D01*
X136095238Y-140071428D01*
X136190476Y-140166666D01*
X136238095Y-140261904D01*
X135952380Y-139357142D02*
X135952380Y-138690476D01*
X136952380Y-139119047D01*
X137052380Y-135564285D02*
X137052380Y-136135714D01*
X137052380Y-135850000D02*
X136052380Y-135850000D01*
X136195238Y-135945238D01*
X136290476Y-136040476D01*
X136338095Y-136135714D01*
%TO.C,D27*%
X143702380Y-91214285D02*
X142702380Y-91214285D01*
X142702380Y-90976190D01*
X142750000Y-90833333D01*
X142845238Y-90738095D01*
X142940476Y-90690476D01*
X143130952Y-90642857D01*
X143273809Y-90642857D01*
X143464285Y-90690476D01*
X143559523Y-90738095D01*
X143654761Y-90833333D01*
X143702380Y-90976190D01*
X143702380Y-91214285D01*
X142797619Y-90261904D02*
X142750000Y-90214285D01*
X142702380Y-90119047D01*
X142702380Y-89880952D01*
X142750000Y-89785714D01*
X142797619Y-89738095D01*
X142892857Y-89690476D01*
X142988095Y-89690476D01*
X143130952Y-89738095D01*
X143702380Y-90309523D01*
X143702380Y-89690476D01*
X142702380Y-89357142D02*
X142702380Y-88690476D01*
X143702380Y-89119047D01*
X143852380Y-93864285D02*
X143852380Y-94435714D01*
X143852380Y-94150000D02*
X142852380Y-94150000D01*
X142995238Y-94245238D01*
X143090476Y-94340476D01*
X143138095Y-94435714D01*
%TO.C,D37*%
X156952380Y-101214285D02*
X155952380Y-101214285D01*
X155952380Y-100976190D01*
X156000000Y-100833333D01*
X156095238Y-100738095D01*
X156190476Y-100690476D01*
X156380952Y-100642857D01*
X156523809Y-100642857D01*
X156714285Y-100690476D01*
X156809523Y-100738095D01*
X156904761Y-100833333D01*
X156952380Y-100976190D01*
X156952380Y-101214285D01*
X155952380Y-100309523D02*
X155952380Y-99690476D01*
X156333333Y-100023809D01*
X156333333Y-99880952D01*
X156380952Y-99785714D01*
X156428571Y-99738095D01*
X156523809Y-99690476D01*
X156761904Y-99690476D01*
X156857142Y-99738095D01*
X156904761Y-99785714D01*
X156952380Y-99880952D01*
X156952380Y-100166666D01*
X156904761Y-100261904D01*
X156857142Y-100309523D01*
X155952380Y-99357142D02*
X155952380Y-98690476D01*
X156952380Y-99119047D01*
X157052380Y-95564285D02*
X157052380Y-96135714D01*
X157052380Y-95850000D02*
X156052380Y-95850000D01*
X156195238Y-95945238D01*
X156290476Y-96040476D01*
X156338095Y-96135714D01*
%TO.C,D7*%
X116952380Y-80738095D02*
X115952380Y-80738095D01*
X115952380Y-80500000D01*
X116000000Y-80357142D01*
X116095238Y-80261904D01*
X116190476Y-80214285D01*
X116380952Y-80166666D01*
X116523809Y-80166666D01*
X116714285Y-80214285D01*
X116809523Y-80261904D01*
X116904761Y-80357142D01*
X116952380Y-80500000D01*
X116952380Y-80738095D01*
X115952380Y-79833333D02*
X115952380Y-79166666D01*
X116952380Y-79595238D01*
X117052380Y-75564285D02*
X117052380Y-76135714D01*
X117052380Y-75850000D02*
X116052380Y-75850000D01*
X116195238Y-75945238D01*
X116290476Y-76040476D01*
X116338095Y-76135714D01*
%TO.C,D18*%
X136952380Y-131214285D02*
X135952380Y-131214285D01*
X135952380Y-130976190D01*
X136000000Y-130833333D01*
X136095238Y-130738095D01*
X136190476Y-130690476D01*
X136380952Y-130642857D01*
X136523809Y-130642857D01*
X136714285Y-130690476D01*
X136809523Y-130738095D01*
X136904761Y-130833333D01*
X136952380Y-130976190D01*
X136952380Y-131214285D01*
X136952380Y-129690476D02*
X136952380Y-130261904D01*
X136952380Y-129976190D02*
X135952380Y-129976190D01*
X136095238Y-130071428D01*
X136190476Y-130166666D01*
X136238095Y-130261904D01*
X136380952Y-129119047D02*
X136333333Y-129214285D01*
X136285714Y-129261904D01*
X136190476Y-129309523D01*
X136142857Y-129309523D01*
X136047619Y-129261904D01*
X136000000Y-129214285D01*
X135952380Y-129119047D01*
X135952380Y-128928571D01*
X136000000Y-128833333D01*
X136047619Y-128785714D01*
X136142857Y-128738095D01*
X136190476Y-128738095D01*
X136285714Y-128785714D01*
X136333333Y-128833333D01*
X136380952Y-128928571D01*
X136380952Y-129119047D01*
X136428571Y-129214285D01*
X136476190Y-129261904D01*
X136571428Y-129309523D01*
X136761904Y-129309523D01*
X136857142Y-129261904D01*
X136904761Y-129214285D01*
X136952380Y-129119047D01*
X136952380Y-128928571D01*
X136904761Y-128833333D01*
X136857142Y-128785714D01*
X136761904Y-128738095D01*
X136571428Y-128738095D01*
X136476190Y-128785714D01*
X136428571Y-128833333D01*
X136380952Y-128928571D01*
X137052380Y-125564285D02*
X137052380Y-126135714D01*
X137052380Y-125850000D02*
X136052380Y-125850000D01*
X136195238Y-125945238D01*
X136290476Y-126040476D01*
X136338095Y-126135714D01*
%TO.C,D28*%
X143952380Y-101214285D02*
X142952380Y-101214285D01*
X142952380Y-100976190D01*
X143000000Y-100833333D01*
X143095238Y-100738095D01*
X143190476Y-100690476D01*
X143380952Y-100642857D01*
X143523809Y-100642857D01*
X143714285Y-100690476D01*
X143809523Y-100738095D01*
X143904761Y-100833333D01*
X143952380Y-100976190D01*
X143952380Y-101214285D01*
X143047619Y-100261904D02*
X143000000Y-100214285D01*
X142952380Y-100119047D01*
X142952380Y-99880952D01*
X143000000Y-99785714D01*
X143047619Y-99738095D01*
X143142857Y-99690476D01*
X143238095Y-99690476D01*
X143380952Y-99738095D01*
X143952380Y-100309523D01*
X143952380Y-99690476D01*
X143380952Y-99119047D02*
X143333333Y-99214285D01*
X143285714Y-99261904D01*
X143190476Y-99309523D01*
X143142857Y-99309523D01*
X143047619Y-99261904D01*
X143000000Y-99214285D01*
X142952380Y-99119047D01*
X142952380Y-98928571D01*
X143000000Y-98833333D01*
X143047619Y-98785714D01*
X143142857Y-98738095D01*
X143190476Y-98738095D01*
X143285714Y-98785714D01*
X143333333Y-98833333D01*
X143380952Y-98928571D01*
X143380952Y-99119047D01*
X143428571Y-99214285D01*
X143476190Y-99261904D01*
X143571428Y-99309523D01*
X143761904Y-99309523D01*
X143857142Y-99261904D01*
X143904761Y-99214285D01*
X143952380Y-99119047D01*
X143952380Y-98928571D01*
X143904761Y-98833333D01*
X143857142Y-98785714D01*
X143761904Y-98738095D01*
X143571428Y-98738095D01*
X143476190Y-98785714D01*
X143428571Y-98833333D01*
X143380952Y-98928571D01*
X143852380Y-103864285D02*
X143852380Y-104435714D01*
X143852380Y-104150000D02*
X142852380Y-104150000D01*
X142995238Y-104245238D01*
X143090476Y-104340476D01*
X143138095Y-104435714D01*
%TO.C,D38*%
X156952380Y-91214285D02*
X155952380Y-91214285D01*
X155952380Y-90976190D01*
X156000000Y-90833333D01*
X156095238Y-90738095D01*
X156190476Y-90690476D01*
X156380952Y-90642857D01*
X156523809Y-90642857D01*
X156714285Y-90690476D01*
X156809523Y-90738095D01*
X156904761Y-90833333D01*
X156952380Y-90976190D01*
X156952380Y-91214285D01*
X155952380Y-90309523D02*
X155952380Y-89690476D01*
X156333333Y-90023809D01*
X156333333Y-89880952D01*
X156380952Y-89785714D01*
X156428571Y-89738095D01*
X156523809Y-89690476D01*
X156761904Y-89690476D01*
X156857142Y-89738095D01*
X156904761Y-89785714D01*
X156952380Y-89880952D01*
X156952380Y-90166666D01*
X156904761Y-90261904D01*
X156857142Y-90309523D01*
X156380952Y-89119047D02*
X156333333Y-89214285D01*
X156285714Y-89261904D01*
X156190476Y-89309523D01*
X156142857Y-89309523D01*
X156047619Y-89261904D01*
X156000000Y-89214285D01*
X155952380Y-89119047D01*
X155952380Y-88928571D01*
X156000000Y-88833333D01*
X156047619Y-88785714D01*
X156142857Y-88738095D01*
X156190476Y-88738095D01*
X156285714Y-88785714D01*
X156333333Y-88833333D01*
X156380952Y-88928571D01*
X156380952Y-89119047D01*
X156428571Y-89214285D01*
X156476190Y-89261904D01*
X156571428Y-89309523D01*
X156761904Y-89309523D01*
X156857142Y-89261904D01*
X156904761Y-89214285D01*
X156952380Y-89119047D01*
X156952380Y-88928571D01*
X156904761Y-88833333D01*
X156857142Y-88785714D01*
X156761904Y-88738095D01*
X156571428Y-88738095D01*
X156476190Y-88785714D01*
X156428571Y-88833333D01*
X156380952Y-88928571D01*
X157052380Y-85564285D02*
X157052380Y-86135714D01*
X157052380Y-85850000D02*
X156052380Y-85850000D01*
X156195238Y-85945238D01*
X156290476Y-86040476D01*
X156338095Y-86135714D01*
%TO.C,D8*%
X117202380Y-70738095D02*
X116202380Y-70738095D01*
X116202380Y-70500000D01*
X116250000Y-70357142D01*
X116345238Y-70261904D01*
X116440476Y-70214285D01*
X116630952Y-70166666D01*
X116773809Y-70166666D01*
X116964285Y-70214285D01*
X117059523Y-70261904D01*
X117154761Y-70357142D01*
X117202380Y-70500000D01*
X117202380Y-70738095D01*
X116630952Y-69595238D02*
X116583333Y-69690476D01*
X116535714Y-69738095D01*
X116440476Y-69785714D01*
X116392857Y-69785714D01*
X116297619Y-69738095D01*
X116250000Y-69690476D01*
X116202380Y-69595238D01*
X116202380Y-69404761D01*
X116250000Y-69309523D01*
X116297619Y-69261904D01*
X116392857Y-69214285D01*
X116440476Y-69214285D01*
X116535714Y-69261904D01*
X116583333Y-69309523D01*
X116630952Y-69404761D01*
X116630952Y-69595238D01*
X116678571Y-69690476D01*
X116726190Y-69738095D01*
X116821428Y-69785714D01*
X117011904Y-69785714D01*
X117107142Y-69738095D01*
X117154761Y-69690476D01*
X117202380Y-69595238D01*
X117202380Y-69404761D01*
X117154761Y-69309523D01*
X117107142Y-69261904D01*
X117011904Y-69214285D01*
X116821428Y-69214285D01*
X116726190Y-69261904D01*
X116678571Y-69309523D01*
X116630952Y-69404761D01*
X117052380Y-65564285D02*
X117052380Y-66135714D01*
X117052380Y-65850000D02*
X116052380Y-65850000D01*
X116195238Y-65945238D01*
X116290476Y-66040476D01*
X116338095Y-66135714D01*
%TO.C,D19*%
X136952380Y-121214285D02*
X135952380Y-121214285D01*
X135952380Y-120976190D01*
X136000000Y-120833333D01*
X136095238Y-120738095D01*
X136190476Y-120690476D01*
X136380952Y-120642857D01*
X136523809Y-120642857D01*
X136714285Y-120690476D01*
X136809523Y-120738095D01*
X136904761Y-120833333D01*
X136952380Y-120976190D01*
X136952380Y-121214285D01*
X136952380Y-119690476D02*
X136952380Y-120261904D01*
X136952380Y-119976190D02*
X135952380Y-119976190D01*
X136095238Y-120071428D01*
X136190476Y-120166666D01*
X136238095Y-120261904D01*
X136952380Y-119214285D02*
X136952380Y-119023809D01*
X136904761Y-118928571D01*
X136857142Y-118880952D01*
X136714285Y-118785714D01*
X136523809Y-118738095D01*
X136142857Y-118738095D01*
X136047619Y-118785714D01*
X136000000Y-118833333D01*
X135952380Y-118928571D01*
X135952380Y-119119047D01*
X136000000Y-119214285D01*
X136047619Y-119261904D01*
X136142857Y-119309523D01*
X136380952Y-119309523D01*
X136476190Y-119261904D01*
X136523809Y-119214285D01*
X136571428Y-119119047D01*
X136571428Y-118928571D01*
X136523809Y-118833333D01*
X136476190Y-118785714D01*
X136380952Y-118738095D01*
X137052380Y-115564285D02*
X137052380Y-116135714D01*
X137052380Y-115850000D02*
X136052380Y-115850000D01*
X136195238Y-115945238D01*
X136290476Y-116040476D01*
X136338095Y-116135714D01*
%TO.C,D29*%
X143702380Y-111214285D02*
X142702380Y-111214285D01*
X142702380Y-110976190D01*
X142750000Y-110833333D01*
X142845238Y-110738095D01*
X142940476Y-110690476D01*
X143130952Y-110642857D01*
X143273809Y-110642857D01*
X143464285Y-110690476D01*
X143559523Y-110738095D01*
X143654761Y-110833333D01*
X143702380Y-110976190D01*
X143702380Y-111214285D01*
X142797619Y-110261904D02*
X142750000Y-110214285D01*
X142702380Y-110119047D01*
X142702380Y-109880952D01*
X142750000Y-109785714D01*
X142797619Y-109738095D01*
X142892857Y-109690476D01*
X142988095Y-109690476D01*
X143130952Y-109738095D01*
X143702380Y-110309523D01*
X143702380Y-109690476D01*
X143702380Y-109214285D02*
X143702380Y-109023809D01*
X143654761Y-108928571D01*
X143607142Y-108880952D01*
X143464285Y-108785714D01*
X143273809Y-108738095D01*
X142892857Y-108738095D01*
X142797619Y-108785714D01*
X142750000Y-108833333D01*
X142702380Y-108928571D01*
X142702380Y-109119047D01*
X142750000Y-109214285D01*
X142797619Y-109261904D01*
X142892857Y-109309523D01*
X143130952Y-109309523D01*
X143226190Y-109261904D01*
X143273809Y-109214285D01*
X143321428Y-109119047D01*
X143321428Y-108928571D01*
X143273809Y-108833333D01*
X143226190Y-108785714D01*
X143130952Y-108738095D01*
X143852380Y-113864285D02*
X143852380Y-114435714D01*
X143852380Y-114150000D02*
X142852380Y-114150000D01*
X142995238Y-114245238D01*
X143090476Y-114340476D01*
X143138095Y-114435714D01*
%TO.C,D39*%
X156952380Y-81214285D02*
X155952380Y-81214285D01*
X155952380Y-80976190D01*
X156000000Y-80833333D01*
X156095238Y-80738095D01*
X156190476Y-80690476D01*
X156380952Y-80642857D01*
X156523809Y-80642857D01*
X156714285Y-80690476D01*
X156809523Y-80738095D01*
X156904761Y-80833333D01*
X156952380Y-80976190D01*
X156952380Y-81214285D01*
X155952380Y-80309523D02*
X155952380Y-79690476D01*
X156333333Y-80023809D01*
X156333333Y-79880952D01*
X156380952Y-79785714D01*
X156428571Y-79738095D01*
X156523809Y-79690476D01*
X156761904Y-79690476D01*
X156857142Y-79738095D01*
X156904761Y-79785714D01*
X156952380Y-79880952D01*
X156952380Y-80166666D01*
X156904761Y-80261904D01*
X156857142Y-80309523D01*
X156952380Y-79214285D02*
X156952380Y-79023809D01*
X156904761Y-78928571D01*
X156857142Y-78880952D01*
X156714285Y-78785714D01*
X156523809Y-78738095D01*
X156142857Y-78738095D01*
X156047619Y-78785714D01*
X156000000Y-78833333D01*
X155952380Y-78928571D01*
X155952380Y-79119047D01*
X156000000Y-79214285D01*
X156047619Y-79261904D01*
X156142857Y-79309523D01*
X156380952Y-79309523D01*
X156476190Y-79261904D01*
X156523809Y-79214285D01*
X156571428Y-79119047D01*
X156571428Y-78928571D01*
X156523809Y-78833333D01*
X156476190Y-78785714D01*
X156380952Y-78738095D01*
X157052380Y-75564285D02*
X157052380Y-76135714D01*
X157052380Y-75850000D02*
X156052380Y-75850000D01*
X156195238Y-75945238D01*
X156290476Y-76040476D01*
X156338095Y-76135714D01*
%TO.C,D9*%
X123702380Y-70738095D02*
X122702380Y-70738095D01*
X122702380Y-70500000D01*
X122750000Y-70357142D01*
X122845238Y-70261904D01*
X122940476Y-70214285D01*
X123130952Y-70166666D01*
X123273809Y-70166666D01*
X123464285Y-70214285D01*
X123559523Y-70261904D01*
X123654761Y-70357142D01*
X123702380Y-70500000D01*
X123702380Y-70738095D01*
X123702380Y-69690476D02*
X123702380Y-69500000D01*
X123654761Y-69404761D01*
X123607142Y-69357142D01*
X123464285Y-69261904D01*
X123273809Y-69214285D01*
X122892857Y-69214285D01*
X122797619Y-69261904D01*
X122750000Y-69309523D01*
X122702380Y-69404761D01*
X122702380Y-69595238D01*
X122750000Y-69690476D01*
X122797619Y-69738095D01*
X122892857Y-69785714D01*
X123130952Y-69785714D01*
X123226190Y-69738095D01*
X123273809Y-69690476D01*
X123321428Y-69595238D01*
X123321428Y-69404761D01*
X123273809Y-69309523D01*
X123226190Y-69261904D01*
X123130952Y-69214285D01*
X123852380Y-73864285D02*
X123852380Y-74435714D01*
X123852380Y-74150000D02*
X122852380Y-74150000D01*
X122995238Y-74245238D01*
X123090476Y-74340476D01*
X123138095Y-74435714D01*
%TO.C,D20*%
X136952380Y-111214285D02*
X135952380Y-111214285D01*
X135952380Y-110976190D01*
X136000000Y-110833333D01*
X136095238Y-110738095D01*
X136190476Y-110690476D01*
X136380952Y-110642857D01*
X136523809Y-110642857D01*
X136714285Y-110690476D01*
X136809523Y-110738095D01*
X136904761Y-110833333D01*
X136952380Y-110976190D01*
X136952380Y-111214285D01*
X136047619Y-110261904D02*
X136000000Y-110214285D01*
X135952380Y-110119047D01*
X135952380Y-109880952D01*
X136000000Y-109785714D01*
X136047619Y-109738095D01*
X136142857Y-109690476D01*
X136238095Y-109690476D01*
X136380952Y-109738095D01*
X136952380Y-110309523D01*
X136952380Y-109690476D01*
X135952380Y-109071428D02*
X135952380Y-108976190D01*
X136000000Y-108880952D01*
X136047619Y-108833333D01*
X136142857Y-108785714D01*
X136333333Y-108738095D01*
X136571428Y-108738095D01*
X136761904Y-108785714D01*
X136857142Y-108833333D01*
X136904761Y-108880952D01*
X136952380Y-108976190D01*
X136952380Y-109071428D01*
X136904761Y-109166666D01*
X136857142Y-109214285D01*
X136761904Y-109261904D01*
X136571428Y-109309523D01*
X136333333Y-109309523D01*
X136142857Y-109261904D01*
X136047619Y-109214285D01*
X136000000Y-109166666D01*
X135952380Y-109071428D01*
X137052380Y-105564285D02*
X137052380Y-106135714D01*
X137052380Y-105850000D02*
X136052380Y-105850000D01*
X136195238Y-105945238D01*
X136290476Y-106040476D01*
X136338095Y-106135714D01*
%TO.C,D30*%
X143702380Y-121214285D02*
X142702380Y-121214285D01*
X142702380Y-120976190D01*
X142750000Y-120833333D01*
X142845238Y-120738095D01*
X142940476Y-120690476D01*
X143130952Y-120642857D01*
X143273809Y-120642857D01*
X143464285Y-120690476D01*
X143559523Y-120738095D01*
X143654761Y-120833333D01*
X143702380Y-120976190D01*
X143702380Y-121214285D01*
X142702380Y-120309523D02*
X142702380Y-119690476D01*
X143083333Y-120023809D01*
X143083333Y-119880952D01*
X143130952Y-119785714D01*
X143178571Y-119738095D01*
X143273809Y-119690476D01*
X143511904Y-119690476D01*
X143607142Y-119738095D01*
X143654761Y-119785714D01*
X143702380Y-119880952D01*
X143702380Y-120166666D01*
X143654761Y-120261904D01*
X143607142Y-120309523D01*
X142702380Y-119071428D02*
X142702380Y-118976190D01*
X142750000Y-118880952D01*
X142797619Y-118833333D01*
X142892857Y-118785714D01*
X143083333Y-118738095D01*
X143321428Y-118738095D01*
X143511904Y-118785714D01*
X143607142Y-118833333D01*
X143654761Y-118880952D01*
X143702380Y-118976190D01*
X143702380Y-119071428D01*
X143654761Y-119166666D01*
X143607142Y-119214285D01*
X143511904Y-119261904D01*
X143321428Y-119309523D01*
X143083333Y-119309523D01*
X142892857Y-119261904D01*
X142797619Y-119214285D01*
X142750000Y-119166666D01*
X142702380Y-119071428D01*
X143852380Y-123864285D02*
X143852380Y-124435714D01*
X143852380Y-124150000D02*
X142852380Y-124150000D01*
X142995238Y-124245238D01*
X143090476Y-124340476D01*
X143138095Y-124435714D01*
%TO.C,D40*%
X156952380Y-71214285D02*
X155952380Y-71214285D01*
X155952380Y-70976190D01*
X156000000Y-70833333D01*
X156095238Y-70738095D01*
X156190476Y-70690476D01*
X156380952Y-70642857D01*
X156523809Y-70642857D01*
X156714285Y-70690476D01*
X156809523Y-70738095D01*
X156904761Y-70833333D01*
X156952380Y-70976190D01*
X156952380Y-71214285D01*
X156285714Y-69785714D02*
X156952380Y-69785714D01*
X155904761Y-70023809D02*
X156619047Y-70261904D01*
X156619047Y-69642857D01*
X155952380Y-69071428D02*
X155952380Y-68976190D01*
X156000000Y-68880952D01*
X156047619Y-68833333D01*
X156142857Y-68785714D01*
X156333333Y-68738095D01*
X156571428Y-68738095D01*
X156761904Y-68785714D01*
X156857142Y-68833333D01*
X156904761Y-68880952D01*
X156952380Y-68976190D01*
X156952380Y-69071428D01*
X156904761Y-69166666D01*
X156857142Y-69214285D01*
X156761904Y-69261904D01*
X156571428Y-69309523D01*
X156333333Y-69309523D01*
X156142857Y-69261904D01*
X156047619Y-69214285D01*
X156000000Y-69166666D01*
X155952380Y-69071428D01*
X157052380Y-65564285D02*
X157052380Y-66135714D01*
X157052380Y-65850000D02*
X156052380Y-65850000D01*
X156195238Y-65945238D01*
X156290476Y-66040476D01*
X156338095Y-66135714D01*
%TO.C,D10*%
X123952380Y-81214285D02*
X122952380Y-81214285D01*
X122952380Y-80976190D01*
X123000000Y-80833333D01*
X123095238Y-80738095D01*
X123190476Y-80690476D01*
X123380952Y-80642857D01*
X123523809Y-80642857D01*
X123714285Y-80690476D01*
X123809523Y-80738095D01*
X123904761Y-80833333D01*
X123952380Y-80976190D01*
X123952380Y-81214285D01*
X123952380Y-79690476D02*
X123952380Y-80261904D01*
X123952380Y-79976190D02*
X122952380Y-79976190D01*
X123095238Y-80071428D01*
X123190476Y-80166666D01*
X123238095Y-80261904D01*
X122952380Y-79071428D02*
X122952380Y-78976190D01*
X123000000Y-78880952D01*
X123047619Y-78833333D01*
X123142857Y-78785714D01*
X123333333Y-78738095D01*
X123571428Y-78738095D01*
X123761904Y-78785714D01*
X123857142Y-78833333D01*
X123904761Y-78880952D01*
X123952380Y-78976190D01*
X123952380Y-79071428D01*
X123904761Y-79166666D01*
X123857142Y-79214285D01*
X123761904Y-79261904D01*
X123571428Y-79309523D01*
X123333333Y-79309523D01*
X123142857Y-79261904D01*
X123047619Y-79214285D01*
X123000000Y-79166666D01*
X122952380Y-79071428D01*
X123852380Y-83864285D02*
X123852380Y-84435714D01*
X123852380Y-84150000D02*
X122852380Y-84150000D01*
X122995238Y-84245238D01*
X123090476Y-84340476D01*
X123138095Y-84435714D01*
%TO.C,D51*%
X176952380Y-121214285D02*
X175952380Y-121214285D01*
X175952380Y-120976190D01*
X176000000Y-120833333D01*
X176095238Y-120738095D01*
X176190476Y-120690476D01*
X176380952Y-120642857D01*
X176523809Y-120642857D01*
X176714285Y-120690476D01*
X176809523Y-120738095D01*
X176904761Y-120833333D01*
X176952380Y-120976190D01*
X176952380Y-121214285D01*
X175952380Y-119738095D02*
X175952380Y-120214285D01*
X176428571Y-120261904D01*
X176380952Y-120214285D01*
X176333333Y-120119047D01*
X176333333Y-119880952D01*
X176380952Y-119785714D01*
X176428571Y-119738095D01*
X176523809Y-119690476D01*
X176761904Y-119690476D01*
X176857142Y-119738095D01*
X176904761Y-119785714D01*
X176952380Y-119880952D01*
X176952380Y-120119047D01*
X176904761Y-120214285D01*
X176857142Y-120261904D01*
X176952380Y-118738095D02*
X176952380Y-119309523D01*
X176952380Y-119023809D02*
X175952380Y-119023809D01*
X176095238Y-119119047D01*
X176190476Y-119214285D01*
X176238095Y-119309523D01*
X177052380Y-115564285D02*
X177052380Y-116135714D01*
X177052380Y-115850000D02*
X176052380Y-115850000D01*
X176195238Y-115945238D01*
X176290476Y-116040476D01*
X176338095Y-116135714D01*
%TO.C,D61*%
X183702380Y-111214285D02*
X182702380Y-111214285D01*
X182702380Y-110976190D01*
X182750000Y-110833333D01*
X182845238Y-110738095D01*
X182940476Y-110690476D01*
X183130952Y-110642857D01*
X183273809Y-110642857D01*
X183464285Y-110690476D01*
X183559523Y-110738095D01*
X183654761Y-110833333D01*
X183702380Y-110976190D01*
X183702380Y-111214285D01*
X182702380Y-109785714D02*
X182702380Y-109976190D01*
X182750000Y-110071428D01*
X182797619Y-110119047D01*
X182940476Y-110214285D01*
X183130952Y-110261904D01*
X183511904Y-110261904D01*
X183607142Y-110214285D01*
X183654761Y-110166666D01*
X183702380Y-110071428D01*
X183702380Y-109880952D01*
X183654761Y-109785714D01*
X183607142Y-109738095D01*
X183511904Y-109690476D01*
X183273809Y-109690476D01*
X183178571Y-109738095D01*
X183130952Y-109785714D01*
X183083333Y-109880952D01*
X183083333Y-110071428D01*
X183130952Y-110166666D01*
X183178571Y-110214285D01*
X183273809Y-110261904D01*
X183702380Y-108738095D02*
X183702380Y-109309523D01*
X183702380Y-109023809D02*
X182702380Y-109023809D01*
X182845238Y-109119047D01*
X182940476Y-109214285D01*
X182988095Y-109309523D01*
X183852380Y-113864285D02*
X183852380Y-114435714D01*
X183852380Y-114150000D02*
X182852380Y-114150000D01*
X182995238Y-114245238D01*
X183090476Y-114340476D01*
X183138095Y-114435714D01*
%TO.C,D41*%
X163952380Y-71214285D02*
X162952380Y-71214285D01*
X162952380Y-70976190D01*
X163000000Y-70833333D01*
X163095238Y-70738095D01*
X163190476Y-70690476D01*
X163380952Y-70642857D01*
X163523809Y-70642857D01*
X163714285Y-70690476D01*
X163809523Y-70738095D01*
X163904761Y-70833333D01*
X163952380Y-70976190D01*
X163952380Y-71214285D01*
X163285714Y-69785714D02*
X163952380Y-69785714D01*
X162904761Y-70023809D02*
X163619047Y-70261904D01*
X163619047Y-69642857D01*
X163952380Y-68738095D02*
X163952380Y-69309523D01*
X163952380Y-69023809D02*
X162952380Y-69023809D01*
X163095238Y-69119047D01*
X163190476Y-69214285D01*
X163238095Y-69309523D01*
X163852380Y-73864285D02*
X163852380Y-74435714D01*
X163852380Y-74150000D02*
X162852380Y-74150000D01*
X162995238Y-74245238D01*
X163090476Y-74340476D01*
X163138095Y-74435714D01*
%TO.C,D52*%
X177202380Y-111214285D02*
X176202380Y-111214285D01*
X176202380Y-110976190D01*
X176250000Y-110833333D01*
X176345238Y-110738095D01*
X176440476Y-110690476D01*
X176630952Y-110642857D01*
X176773809Y-110642857D01*
X176964285Y-110690476D01*
X177059523Y-110738095D01*
X177154761Y-110833333D01*
X177202380Y-110976190D01*
X177202380Y-111214285D01*
X176202380Y-109738095D02*
X176202380Y-110214285D01*
X176678571Y-110261904D01*
X176630952Y-110214285D01*
X176583333Y-110119047D01*
X176583333Y-109880952D01*
X176630952Y-109785714D01*
X176678571Y-109738095D01*
X176773809Y-109690476D01*
X177011904Y-109690476D01*
X177107142Y-109738095D01*
X177154761Y-109785714D01*
X177202380Y-109880952D01*
X177202380Y-110119047D01*
X177154761Y-110214285D01*
X177107142Y-110261904D01*
X176297619Y-109309523D02*
X176250000Y-109261904D01*
X176202380Y-109166666D01*
X176202380Y-108928571D01*
X176250000Y-108833333D01*
X176297619Y-108785714D01*
X176392857Y-108738095D01*
X176488095Y-108738095D01*
X176630952Y-108785714D01*
X177202380Y-109357142D01*
X177202380Y-108738095D01*
X177052380Y-105564285D02*
X177052380Y-106135714D01*
X177052380Y-105850000D02*
X176052380Y-105850000D01*
X176195238Y-105945238D01*
X176290476Y-106040476D01*
X176338095Y-106135714D01*
%TO.C,D62*%
X183952380Y-121214285D02*
X182952380Y-121214285D01*
X182952380Y-120976190D01*
X183000000Y-120833333D01*
X183095238Y-120738095D01*
X183190476Y-120690476D01*
X183380952Y-120642857D01*
X183523809Y-120642857D01*
X183714285Y-120690476D01*
X183809523Y-120738095D01*
X183904761Y-120833333D01*
X183952380Y-120976190D01*
X183952380Y-121214285D01*
X182952380Y-119785714D02*
X182952380Y-119976190D01*
X183000000Y-120071428D01*
X183047619Y-120119047D01*
X183190476Y-120214285D01*
X183380952Y-120261904D01*
X183761904Y-120261904D01*
X183857142Y-120214285D01*
X183904761Y-120166666D01*
X183952380Y-120071428D01*
X183952380Y-119880952D01*
X183904761Y-119785714D01*
X183857142Y-119738095D01*
X183761904Y-119690476D01*
X183523809Y-119690476D01*
X183428571Y-119738095D01*
X183380952Y-119785714D01*
X183333333Y-119880952D01*
X183333333Y-120071428D01*
X183380952Y-120166666D01*
X183428571Y-120214285D01*
X183523809Y-120261904D01*
X183047619Y-119309523D02*
X183000000Y-119261904D01*
X182952380Y-119166666D01*
X182952380Y-118928571D01*
X183000000Y-118833333D01*
X183047619Y-118785714D01*
X183142857Y-118738095D01*
X183238095Y-118738095D01*
X183380952Y-118785714D01*
X183952380Y-119357142D01*
X183952380Y-118738095D01*
X183852380Y-123864285D02*
X183852380Y-124435714D01*
X183852380Y-124150000D02*
X182852380Y-124150000D01*
X182995238Y-124245238D01*
X183090476Y-124340476D01*
X183138095Y-124435714D01*
%TO.C,D42*%
X163702380Y-81214285D02*
X162702380Y-81214285D01*
X162702380Y-80976190D01*
X162750000Y-80833333D01*
X162845238Y-80738095D01*
X162940476Y-80690476D01*
X163130952Y-80642857D01*
X163273809Y-80642857D01*
X163464285Y-80690476D01*
X163559523Y-80738095D01*
X163654761Y-80833333D01*
X163702380Y-80976190D01*
X163702380Y-81214285D01*
X163035714Y-79785714D02*
X163702380Y-79785714D01*
X162654761Y-80023809D02*
X163369047Y-80261904D01*
X163369047Y-79642857D01*
X162797619Y-79309523D02*
X162750000Y-79261904D01*
X162702380Y-79166666D01*
X162702380Y-78928571D01*
X162750000Y-78833333D01*
X162797619Y-78785714D01*
X162892857Y-78738095D01*
X162988095Y-78738095D01*
X163130952Y-78785714D01*
X163702380Y-79357142D01*
X163702380Y-78738095D01*
X163852380Y-83864285D02*
X163852380Y-84435714D01*
X163852380Y-84150000D02*
X162852380Y-84150000D01*
X162995238Y-84245238D01*
X163090476Y-84340476D01*
X163138095Y-84435714D01*
%TO.C,D53*%
X176952380Y-101214285D02*
X175952380Y-101214285D01*
X175952380Y-100976190D01*
X176000000Y-100833333D01*
X176095238Y-100738095D01*
X176190476Y-100690476D01*
X176380952Y-100642857D01*
X176523809Y-100642857D01*
X176714285Y-100690476D01*
X176809523Y-100738095D01*
X176904761Y-100833333D01*
X176952380Y-100976190D01*
X176952380Y-101214285D01*
X175952380Y-99738095D02*
X175952380Y-100214285D01*
X176428571Y-100261904D01*
X176380952Y-100214285D01*
X176333333Y-100119047D01*
X176333333Y-99880952D01*
X176380952Y-99785714D01*
X176428571Y-99738095D01*
X176523809Y-99690476D01*
X176761904Y-99690476D01*
X176857142Y-99738095D01*
X176904761Y-99785714D01*
X176952380Y-99880952D01*
X176952380Y-100119047D01*
X176904761Y-100214285D01*
X176857142Y-100261904D01*
X175952380Y-99357142D02*
X175952380Y-98738095D01*
X176333333Y-99071428D01*
X176333333Y-98928571D01*
X176380952Y-98833333D01*
X176428571Y-98785714D01*
X176523809Y-98738095D01*
X176761904Y-98738095D01*
X176857142Y-98785714D01*
X176904761Y-98833333D01*
X176952380Y-98928571D01*
X176952380Y-99214285D01*
X176904761Y-99309523D01*
X176857142Y-99357142D01*
X177052380Y-95564285D02*
X177052380Y-96135714D01*
X177052380Y-95850000D02*
X176052380Y-95850000D01*
X176195238Y-95945238D01*
X176290476Y-96040476D01*
X176338095Y-96135714D01*
%TO.C,D63*%
X183952380Y-131214285D02*
X182952380Y-131214285D01*
X182952380Y-130976190D01*
X183000000Y-130833333D01*
X183095238Y-130738095D01*
X183190476Y-130690476D01*
X183380952Y-130642857D01*
X183523809Y-130642857D01*
X183714285Y-130690476D01*
X183809523Y-130738095D01*
X183904761Y-130833333D01*
X183952380Y-130976190D01*
X183952380Y-131214285D01*
X182952380Y-129785714D02*
X182952380Y-129976190D01*
X183000000Y-130071428D01*
X183047619Y-130119047D01*
X183190476Y-130214285D01*
X183380952Y-130261904D01*
X183761904Y-130261904D01*
X183857142Y-130214285D01*
X183904761Y-130166666D01*
X183952380Y-130071428D01*
X183952380Y-129880952D01*
X183904761Y-129785714D01*
X183857142Y-129738095D01*
X183761904Y-129690476D01*
X183523809Y-129690476D01*
X183428571Y-129738095D01*
X183380952Y-129785714D01*
X183333333Y-129880952D01*
X183333333Y-130071428D01*
X183380952Y-130166666D01*
X183428571Y-130214285D01*
X183523809Y-130261904D01*
X182952380Y-129357142D02*
X182952380Y-128738095D01*
X183333333Y-129071428D01*
X183333333Y-128928571D01*
X183380952Y-128833333D01*
X183428571Y-128785714D01*
X183523809Y-128738095D01*
X183761904Y-128738095D01*
X183857142Y-128785714D01*
X183904761Y-128833333D01*
X183952380Y-128928571D01*
X183952380Y-129214285D01*
X183904761Y-129309523D01*
X183857142Y-129357142D01*
X183852380Y-133864285D02*
X183852380Y-134435714D01*
X183852380Y-134150000D02*
X182852380Y-134150000D01*
X182995238Y-134245238D01*
X183090476Y-134340476D01*
X183138095Y-134435714D01*
%TO.C,D43*%
X163702380Y-91214285D02*
X162702380Y-91214285D01*
X162702380Y-90976190D01*
X162750000Y-90833333D01*
X162845238Y-90738095D01*
X162940476Y-90690476D01*
X163130952Y-90642857D01*
X163273809Y-90642857D01*
X163464285Y-90690476D01*
X163559523Y-90738095D01*
X163654761Y-90833333D01*
X163702380Y-90976190D01*
X163702380Y-91214285D01*
X163035714Y-89785714D02*
X163702380Y-89785714D01*
X162654761Y-90023809D02*
X163369047Y-90261904D01*
X163369047Y-89642857D01*
X162702380Y-89357142D02*
X162702380Y-88738095D01*
X163083333Y-89071428D01*
X163083333Y-88928571D01*
X163130952Y-88833333D01*
X163178571Y-88785714D01*
X163273809Y-88738095D01*
X163511904Y-88738095D01*
X163607142Y-88785714D01*
X163654761Y-88833333D01*
X163702380Y-88928571D01*
X163702380Y-89214285D01*
X163654761Y-89309523D01*
X163607142Y-89357142D01*
X163852380Y-93864285D02*
X163852380Y-94435714D01*
X163852380Y-94150000D02*
X162852380Y-94150000D01*
X162995238Y-94245238D01*
X163090476Y-94340476D01*
X163138095Y-94435714D01*
%TO.C,D54*%
X177202380Y-91214285D02*
X176202380Y-91214285D01*
X176202380Y-90976190D01*
X176250000Y-90833333D01*
X176345238Y-90738095D01*
X176440476Y-90690476D01*
X176630952Y-90642857D01*
X176773809Y-90642857D01*
X176964285Y-90690476D01*
X177059523Y-90738095D01*
X177154761Y-90833333D01*
X177202380Y-90976190D01*
X177202380Y-91214285D01*
X176202380Y-89738095D02*
X176202380Y-90214285D01*
X176678571Y-90261904D01*
X176630952Y-90214285D01*
X176583333Y-90119047D01*
X176583333Y-89880952D01*
X176630952Y-89785714D01*
X176678571Y-89738095D01*
X176773809Y-89690476D01*
X177011904Y-89690476D01*
X177107142Y-89738095D01*
X177154761Y-89785714D01*
X177202380Y-89880952D01*
X177202380Y-90119047D01*
X177154761Y-90214285D01*
X177107142Y-90261904D01*
X176535714Y-88833333D02*
X177202380Y-88833333D01*
X176154761Y-89071428D02*
X176869047Y-89309523D01*
X176869047Y-88690476D01*
X177052380Y-85564285D02*
X177052380Y-86135714D01*
X177052380Y-85850000D02*
X176052380Y-85850000D01*
X176195238Y-85945238D01*
X176290476Y-86040476D01*
X176338095Y-86135714D01*
%TO.C,D64*%
X183702380Y-141214285D02*
X182702380Y-141214285D01*
X182702380Y-140976190D01*
X182750000Y-140833333D01*
X182845238Y-140738095D01*
X182940476Y-140690476D01*
X183130952Y-140642857D01*
X183273809Y-140642857D01*
X183464285Y-140690476D01*
X183559523Y-140738095D01*
X183654761Y-140833333D01*
X183702380Y-140976190D01*
X183702380Y-141214285D01*
X182702380Y-139785714D02*
X182702380Y-139976190D01*
X182750000Y-140071428D01*
X182797619Y-140119047D01*
X182940476Y-140214285D01*
X183130952Y-140261904D01*
X183511904Y-140261904D01*
X183607142Y-140214285D01*
X183654761Y-140166666D01*
X183702380Y-140071428D01*
X183702380Y-139880952D01*
X183654761Y-139785714D01*
X183607142Y-139738095D01*
X183511904Y-139690476D01*
X183273809Y-139690476D01*
X183178571Y-139738095D01*
X183130952Y-139785714D01*
X183083333Y-139880952D01*
X183083333Y-140071428D01*
X183130952Y-140166666D01*
X183178571Y-140214285D01*
X183273809Y-140261904D01*
X183035714Y-138833333D02*
X183702380Y-138833333D01*
X182654761Y-139071428D02*
X183369047Y-139309523D01*
X183369047Y-138690476D01*
X183852380Y-143864285D02*
X183852380Y-144435714D01*
X183852380Y-144150000D02*
X182852380Y-144150000D01*
X182995238Y-144245238D01*
X183090476Y-144340476D01*
X183138095Y-144435714D01*
%TO.C,D44*%
X163702380Y-101214285D02*
X162702380Y-101214285D01*
X162702380Y-100976190D01*
X162750000Y-100833333D01*
X162845238Y-100738095D01*
X162940476Y-100690476D01*
X163130952Y-100642857D01*
X163273809Y-100642857D01*
X163464285Y-100690476D01*
X163559523Y-100738095D01*
X163654761Y-100833333D01*
X163702380Y-100976190D01*
X163702380Y-101214285D01*
X163035714Y-99785714D02*
X163702380Y-99785714D01*
X162654761Y-100023809D02*
X163369047Y-100261904D01*
X163369047Y-99642857D01*
X163035714Y-98833333D02*
X163702380Y-98833333D01*
X162654761Y-99071428D02*
X163369047Y-99309523D01*
X163369047Y-98690476D01*
X163852380Y-103864285D02*
X163852380Y-104435714D01*
X163852380Y-104150000D02*
X162852380Y-104150000D01*
X162995238Y-104245238D01*
X163090476Y-104340476D01*
X163138095Y-104435714D01*
%TO.C,D55*%
X177202380Y-81214285D02*
X176202380Y-81214285D01*
X176202380Y-80976190D01*
X176250000Y-80833333D01*
X176345238Y-80738095D01*
X176440476Y-80690476D01*
X176630952Y-80642857D01*
X176773809Y-80642857D01*
X176964285Y-80690476D01*
X177059523Y-80738095D01*
X177154761Y-80833333D01*
X177202380Y-80976190D01*
X177202380Y-81214285D01*
X176202380Y-79738095D02*
X176202380Y-80214285D01*
X176678571Y-80261904D01*
X176630952Y-80214285D01*
X176583333Y-80119047D01*
X176583333Y-79880952D01*
X176630952Y-79785714D01*
X176678571Y-79738095D01*
X176773809Y-79690476D01*
X177011904Y-79690476D01*
X177107142Y-79738095D01*
X177154761Y-79785714D01*
X177202380Y-79880952D01*
X177202380Y-80119047D01*
X177154761Y-80214285D01*
X177107142Y-80261904D01*
X176202380Y-78785714D02*
X176202380Y-79261904D01*
X176678571Y-79309523D01*
X176630952Y-79261904D01*
X176583333Y-79166666D01*
X176583333Y-78928571D01*
X176630952Y-78833333D01*
X176678571Y-78785714D01*
X176773809Y-78738095D01*
X177011904Y-78738095D01*
X177107142Y-78785714D01*
X177154761Y-78833333D01*
X177202380Y-78928571D01*
X177202380Y-79166666D01*
X177154761Y-79261904D01*
X177107142Y-79309523D01*
X177052380Y-75564285D02*
X177052380Y-76135714D01*
X177052380Y-75850000D02*
X176052380Y-75850000D01*
X176195238Y-75945238D01*
X176290476Y-76040476D01*
X176338095Y-76135714D01*
%TO.C,D45*%
X163952380Y-111214285D02*
X162952380Y-111214285D01*
X162952380Y-110976190D01*
X163000000Y-110833333D01*
X163095238Y-110738095D01*
X163190476Y-110690476D01*
X163380952Y-110642857D01*
X163523809Y-110642857D01*
X163714285Y-110690476D01*
X163809523Y-110738095D01*
X163904761Y-110833333D01*
X163952380Y-110976190D01*
X163952380Y-111214285D01*
X163285714Y-109785714D02*
X163952380Y-109785714D01*
X162904761Y-110023809D02*
X163619047Y-110261904D01*
X163619047Y-109642857D01*
X162952380Y-108785714D02*
X162952380Y-109261904D01*
X163428571Y-109309523D01*
X163380952Y-109261904D01*
X163333333Y-109166666D01*
X163333333Y-108928571D01*
X163380952Y-108833333D01*
X163428571Y-108785714D01*
X163523809Y-108738095D01*
X163761904Y-108738095D01*
X163857142Y-108785714D01*
X163904761Y-108833333D01*
X163952380Y-108928571D01*
X163952380Y-109166666D01*
X163904761Y-109261904D01*
X163857142Y-109309523D01*
X163852380Y-113864285D02*
X163852380Y-114435714D01*
X163852380Y-114150000D02*
X162852380Y-114150000D01*
X162995238Y-114245238D01*
X163090476Y-114340476D01*
X163138095Y-114435714D01*
%TO.C,D56*%
X177202380Y-71214285D02*
X176202380Y-71214285D01*
X176202380Y-70976190D01*
X176250000Y-70833333D01*
X176345238Y-70738095D01*
X176440476Y-70690476D01*
X176630952Y-70642857D01*
X176773809Y-70642857D01*
X176964285Y-70690476D01*
X177059523Y-70738095D01*
X177154761Y-70833333D01*
X177202380Y-70976190D01*
X177202380Y-71214285D01*
X176202380Y-69738095D02*
X176202380Y-70214285D01*
X176678571Y-70261904D01*
X176630952Y-70214285D01*
X176583333Y-70119047D01*
X176583333Y-69880952D01*
X176630952Y-69785714D01*
X176678571Y-69738095D01*
X176773809Y-69690476D01*
X177011904Y-69690476D01*
X177107142Y-69738095D01*
X177154761Y-69785714D01*
X177202380Y-69880952D01*
X177202380Y-70119047D01*
X177154761Y-70214285D01*
X177107142Y-70261904D01*
X176202380Y-68833333D02*
X176202380Y-69023809D01*
X176250000Y-69119047D01*
X176297619Y-69166666D01*
X176440476Y-69261904D01*
X176630952Y-69309523D01*
X177011904Y-69309523D01*
X177107142Y-69261904D01*
X177154761Y-69214285D01*
X177202380Y-69119047D01*
X177202380Y-68928571D01*
X177154761Y-68833333D01*
X177107142Y-68785714D01*
X177011904Y-68738095D01*
X176773809Y-68738095D01*
X176678571Y-68785714D01*
X176630952Y-68833333D01*
X176583333Y-68928571D01*
X176583333Y-69119047D01*
X176630952Y-69214285D01*
X176678571Y-69261904D01*
X176773809Y-69309523D01*
X177052380Y-65564285D02*
X177052380Y-66135714D01*
X177052380Y-65850000D02*
X176052380Y-65850000D01*
X176195238Y-65945238D01*
X176290476Y-66040476D01*
X176338095Y-66135714D01*
%TO.C,D46*%
X163952380Y-121214285D02*
X162952380Y-121214285D01*
X162952380Y-120976190D01*
X163000000Y-120833333D01*
X163095238Y-120738095D01*
X163190476Y-120690476D01*
X163380952Y-120642857D01*
X163523809Y-120642857D01*
X163714285Y-120690476D01*
X163809523Y-120738095D01*
X163904761Y-120833333D01*
X163952380Y-120976190D01*
X163952380Y-121214285D01*
X163285714Y-119785714D02*
X163952380Y-119785714D01*
X162904761Y-120023809D02*
X163619047Y-120261904D01*
X163619047Y-119642857D01*
X162952380Y-118833333D02*
X162952380Y-119023809D01*
X163000000Y-119119047D01*
X163047619Y-119166666D01*
X163190476Y-119261904D01*
X163380952Y-119309523D01*
X163761904Y-119309523D01*
X163857142Y-119261904D01*
X163904761Y-119214285D01*
X163952380Y-119119047D01*
X163952380Y-118928571D01*
X163904761Y-118833333D01*
X163857142Y-118785714D01*
X163761904Y-118738095D01*
X163523809Y-118738095D01*
X163428571Y-118785714D01*
X163380952Y-118833333D01*
X163333333Y-118928571D01*
X163333333Y-119119047D01*
X163380952Y-119214285D01*
X163428571Y-119261904D01*
X163523809Y-119309523D01*
X163852380Y-123864285D02*
X163852380Y-124435714D01*
X163852380Y-124150000D02*
X162852380Y-124150000D01*
X162995238Y-124245238D01*
X163090476Y-124340476D01*
X163138095Y-124435714D01*
%TO.C,D57*%
X183952380Y-71214285D02*
X182952380Y-71214285D01*
X182952380Y-70976190D01*
X183000000Y-70833333D01*
X183095238Y-70738095D01*
X183190476Y-70690476D01*
X183380952Y-70642857D01*
X183523809Y-70642857D01*
X183714285Y-70690476D01*
X183809523Y-70738095D01*
X183904761Y-70833333D01*
X183952380Y-70976190D01*
X183952380Y-71214285D01*
X182952380Y-69738095D02*
X182952380Y-70214285D01*
X183428571Y-70261904D01*
X183380952Y-70214285D01*
X183333333Y-70119047D01*
X183333333Y-69880952D01*
X183380952Y-69785714D01*
X183428571Y-69738095D01*
X183523809Y-69690476D01*
X183761904Y-69690476D01*
X183857142Y-69738095D01*
X183904761Y-69785714D01*
X183952380Y-69880952D01*
X183952380Y-70119047D01*
X183904761Y-70214285D01*
X183857142Y-70261904D01*
X182952380Y-69357142D02*
X182952380Y-68690476D01*
X183952380Y-69119047D01*
X183852380Y-73864285D02*
X183852380Y-74435714D01*
X183852380Y-74150000D02*
X182852380Y-74150000D01*
X182995238Y-74245238D01*
X183090476Y-74340476D01*
X183138095Y-74435714D01*
%TO.C,D47*%
X163952380Y-131214285D02*
X162952380Y-131214285D01*
X162952380Y-130976190D01*
X163000000Y-130833333D01*
X163095238Y-130738095D01*
X163190476Y-130690476D01*
X163380952Y-130642857D01*
X163523809Y-130642857D01*
X163714285Y-130690476D01*
X163809523Y-130738095D01*
X163904761Y-130833333D01*
X163952380Y-130976190D01*
X163952380Y-131214285D01*
X163285714Y-129785714D02*
X163952380Y-129785714D01*
X162904761Y-130023809D02*
X163619047Y-130261904D01*
X163619047Y-129642857D01*
X162952380Y-129357142D02*
X162952380Y-128690476D01*
X163952380Y-129119047D01*
X163852380Y-133864285D02*
X163852380Y-134435714D01*
X163852380Y-134150000D02*
X162852380Y-134150000D01*
X162995238Y-134245238D01*
X163090476Y-134340476D01*
X163138095Y-134435714D01*
%TO.C,D58*%
X183952380Y-81214285D02*
X182952380Y-81214285D01*
X182952380Y-80976190D01*
X183000000Y-80833333D01*
X183095238Y-80738095D01*
X183190476Y-80690476D01*
X183380952Y-80642857D01*
X183523809Y-80642857D01*
X183714285Y-80690476D01*
X183809523Y-80738095D01*
X183904761Y-80833333D01*
X183952380Y-80976190D01*
X183952380Y-81214285D01*
X182952380Y-79738095D02*
X182952380Y-80214285D01*
X183428571Y-80261904D01*
X183380952Y-80214285D01*
X183333333Y-80119047D01*
X183333333Y-79880952D01*
X183380952Y-79785714D01*
X183428571Y-79738095D01*
X183523809Y-79690476D01*
X183761904Y-79690476D01*
X183857142Y-79738095D01*
X183904761Y-79785714D01*
X183952380Y-79880952D01*
X183952380Y-80119047D01*
X183904761Y-80214285D01*
X183857142Y-80261904D01*
X183380952Y-79119047D02*
X183333333Y-79214285D01*
X183285714Y-79261904D01*
X183190476Y-79309523D01*
X183142857Y-79309523D01*
X183047619Y-79261904D01*
X183000000Y-79214285D01*
X182952380Y-79119047D01*
X182952380Y-78928571D01*
X183000000Y-78833333D01*
X183047619Y-78785714D01*
X183142857Y-78738095D01*
X183190476Y-78738095D01*
X183285714Y-78785714D01*
X183333333Y-78833333D01*
X183380952Y-78928571D01*
X183380952Y-79119047D01*
X183428571Y-79214285D01*
X183476190Y-79261904D01*
X183571428Y-79309523D01*
X183761904Y-79309523D01*
X183857142Y-79261904D01*
X183904761Y-79214285D01*
X183952380Y-79119047D01*
X183952380Y-78928571D01*
X183904761Y-78833333D01*
X183857142Y-78785714D01*
X183761904Y-78738095D01*
X183571428Y-78738095D01*
X183476190Y-78785714D01*
X183428571Y-78833333D01*
X183380952Y-78928571D01*
X183852380Y-83864285D02*
X183852380Y-84435714D01*
X183852380Y-84150000D02*
X182852380Y-84150000D01*
X182995238Y-84245238D01*
X183090476Y-84340476D01*
X183138095Y-84435714D01*
%TO.C,D48*%
X163952380Y-141214285D02*
X162952380Y-141214285D01*
X162952380Y-140976190D01*
X163000000Y-140833333D01*
X163095238Y-140738095D01*
X163190476Y-140690476D01*
X163380952Y-140642857D01*
X163523809Y-140642857D01*
X163714285Y-140690476D01*
X163809523Y-140738095D01*
X163904761Y-140833333D01*
X163952380Y-140976190D01*
X163952380Y-141214285D01*
X163285714Y-139785714D02*
X163952380Y-139785714D01*
X162904761Y-140023809D02*
X163619047Y-140261904D01*
X163619047Y-139642857D01*
X163380952Y-139119047D02*
X163333333Y-139214285D01*
X163285714Y-139261904D01*
X163190476Y-139309523D01*
X163142857Y-139309523D01*
X163047619Y-139261904D01*
X163000000Y-139214285D01*
X162952380Y-139119047D01*
X162952380Y-138928571D01*
X163000000Y-138833333D01*
X163047619Y-138785714D01*
X163142857Y-138738095D01*
X163190476Y-138738095D01*
X163285714Y-138785714D01*
X163333333Y-138833333D01*
X163380952Y-138928571D01*
X163380952Y-139119047D01*
X163428571Y-139214285D01*
X163476190Y-139261904D01*
X163571428Y-139309523D01*
X163761904Y-139309523D01*
X163857142Y-139261904D01*
X163904761Y-139214285D01*
X163952380Y-139119047D01*
X163952380Y-138928571D01*
X163904761Y-138833333D01*
X163857142Y-138785714D01*
X163761904Y-138738095D01*
X163571428Y-138738095D01*
X163476190Y-138785714D01*
X163428571Y-138833333D01*
X163380952Y-138928571D01*
X163852380Y-143864285D02*
X163852380Y-144435714D01*
X163852380Y-144150000D02*
X162852380Y-144150000D01*
X162995238Y-144245238D01*
X163090476Y-144340476D01*
X163138095Y-144435714D01*
%TO.C,D59*%
X183952380Y-91214285D02*
X182952380Y-91214285D01*
X182952380Y-90976190D01*
X183000000Y-90833333D01*
X183095238Y-90738095D01*
X183190476Y-90690476D01*
X183380952Y-90642857D01*
X183523809Y-90642857D01*
X183714285Y-90690476D01*
X183809523Y-90738095D01*
X183904761Y-90833333D01*
X183952380Y-90976190D01*
X183952380Y-91214285D01*
X182952380Y-89738095D02*
X182952380Y-90214285D01*
X183428571Y-90261904D01*
X183380952Y-90214285D01*
X183333333Y-90119047D01*
X183333333Y-89880952D01*
X183380952Y-89785714D01*
X183428571Y-89738095D01*
X183523809Y-89690476D01*
X183761904Y-89690476D01*
X183857142Y-89738095D01*
X183904761Y-89785714D01*
X183952380Y-89880952D01*
X183952380Y-90119047D01*
X183904761Y-90214285D01*
X183857142Y-90261904D01*
X183952380Y-89214285D02*
X183952380Y-89023809D01*
X183904761Y-88928571D01*
X183857142Y-88880952D01*
X183714285Y-88785714D01*
X183523809Y-88738095D01*
X183142857Y-88738095D01*
X183047619Y-88785714D01*
X183000000Y-88833333D01*
X182952380Y-88928571D01*
X182952380Y-89119047D01*
X183000000Y-89214285D01*
X183047619Y-89261904D01*
X183142857Y-89309523D01*
X183380952Y-89309523D01*
X183476190Y-89261904D01*
X183523809Y-89214285D01*
X183571428Y-89119047D01*
X183571428Y-88928571D01*
X183523809Y-88833333D01*
X183476190Y-88785714D01*
X183380952Y-88738095D01*
X183852380Y-93864285D02*
X183852380Y-94435714D01*
X183852380Y-94150000D02*
X182852380Y-94150000D01*
X182995238Y-94245238D01*
X183090476Y-94340476D01*
X183138095Y-94435714D01*
%TO.C,D49*%
X176952380Y-141214285D02*
X175952380Y-141214285D01*
X175952380Y-140976190D01*
X176000000Y-140833333D01*
X176095238Y-140738095D01*
X176190476Y-140690476D01*
X176380952Y-140642857D01*
X176523809Y-140642857D01*
X176714285Y-140690476D01*
X176809523Y-140738095D01*
X176904761Y-140833333D01*
X176952380Y-140976190D01*
X176952380Y-141214285D01*
X176285714Y-139785714D02*
X176952380Y-139785714D01*
X175904761Y-140023809D02*
X176619047Y-140261904D01*
X176619047Y-139642857D01*
X176952380Y-139214285D02*
X176952380Y-139023809D01*
X176904761Y-138928571D01*
X176857142Y-138880952D01*
X176714285Y-138785714D01*
X176523809Y-138738095D01*
X176142857Y-138738095D01*
X176047619Y-138785714D01*
X176000000Y-138833333D01*
X175952380Y-138928571D01*
X175952380Y-139119047D01*
X176000000Y-139214285D01*
X176047619Y-139261904D01*
X176142857Y-139309523D01*
X176380952Y-139309523D01*
X176476190Y-139261904D01*
X176523809Y-139214285D01*
X176571428Y-139119047D01*
X176571428Y-138928571D01*
X176523809Y-138833333D01*
X176476190Y-138785714D01*
X176380952Y-138738095D01*
X177052380Y-135564285D02*
X177052380Y-136135714D01*
X177052380Y-135850000D02*
X176052380Y-135850000D01*
X176195238Y-135945238D01*
X176290476Y-136040476D01*
X176338095Y-136135714D01*
%TO.C,D60*%
X183702380Y-101214285D02*
X182702380Y-101214285D01*
X182702380Y-100976190D01*
X182750000Y-100833333D01*
X182845238Y-100738095D01*
X182940476Y-100690476D01*
X183130952Y-100642857D01*
X183273809Y-100642857D01*
X183464285Y-100690476D01*
X183559523Y-100738095D01*
X183654761Y-100833333D01*
X183702380Y-100976190D01*
X183702380Y-101214285D01*
X182702380Y-99785714D02*
X182702380Y-99976190D01*
X182750000Y-100071428D01*
X182797619Y-100119047D01*
X182940476Y-100214285D01*
X183130952Y-100261904D01*
X183511904Y-100261904D01*
X183607142Y-100214285D01*
X183654761Y-100166666D01*
X183702380Y-100071428D01*
X183702380Y-99880952D01*
X183654761Y-99785714D01*
X183607142Y-99738095D01*
X183511904Y-99690476D01*
X183273809Y-99690476D01*
X183178571Y-99738095D01*
X183130952Y-99785714D01*
X183083333Y-99880952D01*
X183083333Y-100071428D01*
X183130952Y-100166666D01*
X183178571Y-100214285D01*
X183273809Y-100261904D01*
X182702380Y-99071428D02*
X182702380Y-98976190D01*
X182750000Y-98880952D01*
X182797619Y-98833333D01*
X182892857Y-98785714D01*
X183083333Y-98738095D01*
X183321428Y-98738095D01*
X183511904Y-98785714D01*
X183607142Y-98833333D01*
X183654761Y-98880952D01*
X183702380Y-98976190D01*
X183702380Y-99071428D01*
X183654761Y-99166666D01*
X183607142Y-99214285D01*
X183511904Y-99261904D01*
X183321428Y-99309523D01*
X183083333Y-99309523D01*
X182892857Y-99261904D01*
X182797619Y-99214285D01*
X182750000Y-99166666D01*
X182702380Y-99071428D01*
X183852380Y-103864285D02*
X183852380Y-104435714D01*
X183852380Y-104150000D02*
X182852380Y-104150000D01*
X182995238Y-104245238D01*
X183090476Y-104340476D01*
X183138095Y-104435714D01*
%TO.C,D50*%
X176952380Y-131214285D02*
X175952380Y-131214285D01*
X175952380Y-130976190D01*
X176000000Y-130833333D01*
X176095238Y-130738095D01*
X176190476Y-130690476D01*
X176380952Y-130642857D01*
X176523809Y-130642857D01*
X176714285Y-130690476D01*
X176809523Y-130738095D01*
X176904761Y-130833333D01*
X176952380Y-130976190D01*
X176952380Y-131214285D01*
X175952380Y-129738095D02*
X175952380Y-130214285D01*
X176428571Y-130261904D01*
X176380952Y-130214285D01*
X176333333Y-130119047D01*
X176333333Y-129880952D01*
X176380952Y-129785714D01*
X176428571Y-129738095D01*
X176523809Y-129690476D01*
X176761904Y-129690476D01*
X176857142Y-129738095D01*
X176904761Y-129785714D01*
X176952380Y-129880952D01*
X176952380Y-130119047D01*
X176904761Y-130214285D01*
X176857142Y-130261904D01*
X175952380Y-129071428D02*
X175952380Y-128976190D01*
X176000000Y-128880952D01*
X176047619Y-128833333D01*
X176142857Y-128785714D01*
X176333333Y-128738095D01*
X176571428Y-128738095D01*
X176761904Y-128785714D01*
X176857142Y-128833333D01*
X176904761Y-128880952D01*
X176952380Y-128976190D01*
X176952380Y-129071428D01*
X176904761Y-129166666D01*
X176857142Y-129214285D01*
X176761904Y-129261904D01*
X176571428Y-129309523D01*
X176333333Y-129309523D01*
X176142857Y-129261904D01*
X176047619Y-129214285D01*
X176000000Y-129166666D01*
X175952380Y-129071428D01*
X177052380Y-125564285D02*
X177052380Y-126135714D01*
X177052380Y-125850000D02*
X176052380Y-125850000D01*
X176195238Y-125945238D01*
X176290476Y-126040476D01*
X176338095Y-126135714D01*
%TO.C,H1*%
X104238095Y-56252380D02*
X104238095Y-55252380D01*
X104238095Y-55728571D02*
X104809523Y-55728571D01*
X104809523Y-56252380D02*
X104809523Y-55252380D01*
X105809523Y-56252380D02*
X105238095Y-56252380D01*
X105523809Y-56252380D02*
X105523809Y-55252380D01*
X105428571Y-55395238D01*
X105333333Y-55490476D01*
X105238095Y-55538095D01*
%TO.C,H2*%
X194238095Y-56252380D02*
X194238095Y-55252380D01*
X194238095Y-55728571D02*
X194809523Y-55728571D01*
X194809523Y-56252380D02*
X194809523Y-55252380D01*
X195238095Y-55347619D02*
X195285714Y-55300000D01*
X195380952Y-55252380D01*
X195619047Y-55252380D01*
X195714285Y-55300000D01*
X195761904Y-55347619D01*
X195809523Y-55442857D01*
X195809523Y-55538095D01*
X195761904Y-55680952D01*
X195190476Y-56252380D01*
X195809523Y-56252380D01*
%TO.C,H4*%
X104238095Y-146252380D02*
X104238095Y-145252380D01*
X104238095Y-145728571D02*
X104809523Y-145728571D01*
X104809523Y-146252380D02*
X104809523Y-145252380D01*
X105714285Y-145585714D02*
X105714285Y-146252380D01*
X105476190Y-145204761D02*
X105238095Y-145919047D01*
X105857142Y-145919047D01*
%TO.C,C43*%
X159927142Y-92642857D02*
X159974761Y-92690476D01*
X160022380Y-92833333D01*
X160022380Y-92928571D01*
X159974761Y-93071428D01*
X159879523Y-93166666D01*
X159784285Y-93214285D01*
X159593809Y-93261904D01*
X159450952Y-93261904D01*
X159260476Y-93214285D01*
X159165238Y-93166666D01*
X159070000Y-93071428D01*
X159022380Y-92928571D01*
X159022380Y-92833333D01*
X159070000Y-92690476D01*
X159117619Y-92642857D01*
X159355714Y-91785714D02*
X160022380Y-91785714D01*
X158974761Y-92023809D02*
X159689047Y-92261904D01*
X159689047Y-91642857D01*
X159022380Y-91357142D02*
X159022380Y-90738095D01*
X159403333Y-91071428D01*
X159403333Y-90928571D01*
X159450952Y-90833333D01*
X159498571Y-90785714D01*
X159593809Y-90738095D01*
X159831904Y-90738095D01*
X159927142Y-90785714D01*
X159974761Y-90833333D01*
X160022380Y-90928571D01*
X160022380Y-91214285D01*
X159974761Y-91309523D01*
X159927142Y-91357142D01*
%TD*%
M02*
